<?xml version="1.0" encoding="UTF-8"?>
<!-- Created by Vectric (http://www.vectric.com/) -->
<svg width="4.16220215in" height="13.34170080in" viewBox="0 0 4.16220215 13.34170080" id="svg2" version="1.1" xmlns="http://www.w3.org/2000/svg" xmlns:xlink="http://www.w3.org/1999/xlink" xmlns:inkscape="http://www.inkscape.org/namespaces/inkscape">
    <g inkscape:groupmode="layer" id="85667243-1302-4a85-b3ac-c7bf39b332ec" inkscape:label="Toolpath Previews"/>
    <g inkscape:groupmode="layer" id="77229a7a-f7b1-486d-b53f-6c9af494c489" inkscape:label="Heart">
        <path style="fill:none;stroke-width:0.010000;stroke-linecap:round;stroke-linejoin:round;stroke-opacity:1;stroke:#ff0000;" d="M 0.691433,5.144249 C 0.702234,5.122049 0.710406,5.106845 0.734689,5.084920 C 0.762192,5.057417 0.794353,5.033167 0.819327,5.013808 C 0.877789,4.963132 0.944130,4.919579 1.011507,4.871603 C 1.096348,4.811191 1.126470,4.799577 1.204669,4.726887 C 1.242261,4.691944 1.301432,4.612298 1.324969,4.566689 C 1.354860,4.508770 1.377684,4.444716 1.382096,4.379688 C 1.385044,4.336227 1.379526,4.291452 1.366219,4.249974 C 1.356081,4.218377 1.342220,4.187772 1.325328,4.159211 C 1.281319,4.084802 1.227756,4.048508 1.199195,4.032399 C 1.172769,4.017493 1.119096,3.992224 1.039131,3.990375 C 1.008358,3.989784 0.977390,3.992613 0.947129,3.998235 C 0.862521,4.013952 0.810442,4.052020 0.785671,4.073277 C 0.763215,4.092548 0.722625,4.132854 0.691433,4.204426 C 0.660240,4.132854 0.619651,4.092548 0.597195,4.073277 C 0.572424,4.052020 0.520345,4.013952 0.435737,3.998235 C 0.405475,3.992613 0.374508,3.989784 0.343734,3.990375 C 0.263770,3.992224 0.210097,4.017493 0.183671,4.032399 C 0.155110,4.048508 0.101547,4.084802 0.057538,4.159211 C 0.040646,4.187772 0.026784,4.218377 0.016647,4.249974 C 0.003339,4.291452 -0.002179,4.336227 0.000770,4.379688 C 0.005182,4.444716 0.028006,4.508770 0.057896,4.566689 C 0.081434,4.612298 0.140605,4.691944 0.178197,4.726887 C 0.256396,4.799577 0.286518,4.811191 0.371359,4.871603 C 0.438735,4.919579 0.505077,4.963132 0.563539,5.013808 C 0.588513,5.033167 0.620674,5.057417 0.648176,5.084920 C 0.672460,5.106845 0.680632,5.122049 0.691433,5.144249 "/>
        <path style="fill:none;stroke-width:0.010000;stroke-linecap:round;stroke-linejoin:round;stroke-opacity:1;stroke:#ff0000;" d="M 2.965749,1.243590 C 3.054118,1.312787 3.118923,1.401461 3.172382,1.467018 C 3.208896,1.511794 3.275385,1.600171 3.406007,1.678522 C 3.459489,1.710602 3.519186,1.735002 3.580626,1.745702 C 3.811508,1.785911 3.935722,1.693429 3.945887,1.686442 C 4.013881,1.639708 4.071473,1.575495 4.114060,1.504830 C 4.141855,1.458711 4.166428,1.404072 4.161597,1.350443 C 4.157534,1.305333 4.142494,1.204230 4.048221,1.130947 C 4.041326,1.125587 4.034075,1.120704 4.027001,1.115582 C 3.996517,1.181625 3.965107,1.249765 3.916103,1.303520 C 3.896646,1.324863 3.848666,1.372955 3.772650,1.368614 C 3.762900,1.368058 3.634910,1.364919 3.521177,1.218322 C 3.467373,1.148971 3.422492,1.081674 3.372320,1.005412 C 3.282320,0.849527 3.240650,0.743774 3.221091,0.688144 C 3.152157,0.492081 3.048747,0.258795 2.869210,0.154110 C 2.800779,0.114210 2.665155,0.051762 2.459000,0.018403 C 2.070116,-0.044524 1.858719,0.073226 1.840327,0.082798 C 1.789775,0.109107 1.740886,0.143893 1.706794,0.189560 C 1.644941,0.272413 1.601375,0.367465 1.547762,0.455874 C 1.504090,0.527892 1.453200,0.597613 1.389878,0.653148 C 1.331913,0.703985 1.288376,0.737258 1.273901,0.762670 C 1.272935,0.764365 1.252902,0.795299 1.279697,0.820924 C 1.302745,0.842964 1.332932,0.856086 1.360275,0.872496 C 1.429188,0.913853 1.481243,0.981010 1.525496,1.048101 C 1.568585,1.113427 1.599686,1.187405 1.650913,1.246564 C 1.696845,1.299608 1.756954,1.339545 1.816882,1.376041 C 1.820458,1.378219 1.857348,1.400127 1.933973,1.421511 C 2.031978,1.448861 2.107038,1.434560 2.144459,1.425113 C 2.217297,1.406724 2.262869,1.378974 2.290416,1.371684 C 2.319990,1.363859 2.392354,1.355153 2.453283,1.407995 C 2.480318,1.431443 2.501268,1.462163 2.517399,1.494108 C 2.522997,1.505194 2.536080,1.529897 2.526561,1.561222 C 2.518726,1.587010 2.515695,1.614303 2.505757,1.639355 C 2.490186,1.678607 2.472024,1.716785 2.454583,1.755244 C 2.409918,1.853736 2.356642,1.948855 2.295073,2.037765 C 2.132273,2.272857 1.960978,2.503112 1.818067,2.750799 C 1.765683,2.841588 1.714954,2.944952 1.625279,2.999220 C 1.586706,3.022564 1.539643,3.033718 1.494558,3.033961 C 1.354964,3.034715 1.215468,3.023746 1.076309,3.012703 C 0.998661,3.006541 0.944850,3.005324 0.915529,3.001687 C 0.863830,2.995275 0.806289,2.967852 0.780857,2.922386 C 0.744089,2.856656 0.780921,2.794925 0.784712,2.766610 C 0.785478,2.760893 0.786781,2.739798 0.771686,2.737975 C 0.743153,2.734529 0.725110,2.753495 0.716555,2.760252 C 0.637808,2.822448 0.581206,2.866046 0.562065,2.898946 C 0.550097,2.919516 0.549868,2.944956 0.543387,2.967855 C 0.533362,3.003275 0.507830,3.019656 0.496597,3.027950 C 0.491604,3.031637 0.482962,3.037450 0.473110,3.043957 C 0.465546,3.048954 0.455220,3.051183 0.443203,3.053268 C 0.417994,3.057643 0.371057,3.056665 0.303652,3.054190 C 0.192637,3.050114 0.113889,3.018025 0.074736,3.033600 C 0.037129,3.048559 0.034323,3.091418 0.034011,3.106766 C 0.033050,3.154134 0.073994,3.178512 0.089525,3.187553 C 0.120864,3.205795 0.185491,3.224209 0.278833,3.244866 C 0.386716,3.268740 0.586043,3.299924 0.876414,3.323163 C 1.087922,3.340091 1.299953,3.349789 1.511598,3.364918 C 1.541045,3.367023 1.595436,3.366974 1.672310,3.354807 C 1.722818,3.346813 1.823943,3.328553 1.927524,3.242263 C 2.086195,3.110079 2.157774,2.978213 2.195884,2.909774 C 2.259501,2.795526 2.312122,2.675100 2.380444,2.563602 C 2.404737,2.523959 2.441330,2.490387 2.482176,2.468176 C 2.507485,2.454414 2.583944,2.424233 2.639097,2.476450 C 2.694358,2.528770 2.670084,2.609531 2.653602,2.633228 C 2.643914,2.647158 2.619982,2.668651 2.599988,2.708666 C 2.576053,2.756568 2.560884,2.819603 2.582927,2.868404 C 2.608859,2.925816 2.665783,2.938619 2.689046,2.944082 C 2.779216,2.965257 2.830148,2.932689 2.834703,2.930952 C 2.844174,2.927339 2.873474,2.914494 2.889798,2.935655 C 2.921151,2.976298 2.920113,3.079872 2.910618,3.214864 C 2.886789,3.553663 2.918148,3.894435 2.903329,4.233748 C 2.899522,4.320921 2.885561,4.479457 2.888925,4.709470 C 2.892935,4.983613 2.912382,5.257395 2.915850,5.531546 C 2.916639,5.593981 2.916416,5.637539 2.911233,5.660649 C 2.910389,5.664410 2.903171,5.720835 2.835002,5.747593 C 2.822226,5.752608 2.691088,5.797820 2.433728,5.839941 C 2.255538,5.869105 2.075790,5.889498 1.898813,5.925295 C 1.858269,5.933495 1.773543,5.943882 1.692693,6.017065 C 1.617076,6.085511 1.609149,6.169721 1.602474,6.207829 C 1.588201,6.289317 1.593451,6.349641 1.604589,6.378978 C 1.617919,6.414090 1.653158,6.409944 1.655134,6.409990 L 3.730983,6.409990 C 3.750992,6.409838 3.779223,6.411758 3.788914,6.394250 C 3.794790,6.383634 3.792558,6.369675 3.789801,6.357858 C 3.781643,6.322891 3.753898,6.263243 3.721890,6.174158 C 3.607281,5.855179 3.543428,5.629462 3.515365,5.503997 C 3.461125,5.261499 3.441776,5.011062 3.437456,4.762610 C 3.435126,4.628600 3.435593,4.494553 3.435784,4.360523 C 3.436084,4.149430 3.453727,4.004099 3.463984,3.924689 C 3.477584,3.819382 3.494564,3.713754 3.494131,3.607573 C 3.493673,3.495156 3.487282,3.382801 3.480207,3.270605 C 3.465651,3.039769 3.444937,2.880649 3.424607,2.795304 C 3.384306,2.626125 3.310875,2.466112 3.239711,2.307425 C 3.182742,2.180392 3.122465,2.054468 3.075291,1.923482 C 3.059700,1.880191 3.045010,1.836516 3.027150,1.794112 C 2.983645,1.690819 2.932644,1.590252 2.898033,1.483650 C 2.883216,1.438014 2.870454,1.388988 2.876272,1.341361 C 2.878669,1.321739 2.875054,1.257987 2.925655,1.245505 C 2.938645,1.242300 2.952384,1.242952 2.965749,1.243590 "/>
        <path style="fill:none;stroke-width:0.010000;stroke-linecap:round;stroke-linejoin:round;stroke-opacity:1;stroke:#ff0000;" d="M 1.808789,0.415759 A 0.125721,0.125721 0 0,0 1.683068,0.541479 A 0.125721,0.125721 0 0,0 1.808789,0.667200 A 0.125721,0.125721 0 0,0 1.934509,0.541479 A 0.125721,0.125721 0 0,0 1.808789,0.415759 "/>
        <path style="fill:none;stroke-width:0.010000;stroke-linecap:round;stroke-linejoin:round;stroke-opacity:1;stroke:#ff0000;" d="M 2.666116,7.603176 A 0.125721,0.125721 0 0,0 2.540396,7.728896 A 0.125721,0.125721 0 0,0 2.666116,7.854617 A 0.125721,0.125721 0 0,0 2.791837,7.728896 A 0.125721,0.125721 0 0,0 2.666116,7.603176 "/>
    </g>
    <g inkscape:groupmode="layer" id="c8a2c8c8-1a27-40c1-9752-34713fdbf105" inkscape:label="Male">
        <path style="fill:none;stroke-width:0.010000;stroke-linecap:round;stroke-linejoin:round;stroke-opacity:1;stroke:#3366ff;" d="M 2.289080,8.219220 C 2.321319,8.359052 2.502503,8.439651 2.644149,8.462648 C 2.647869,8.463252 2.651594,8.463823 2.655322,8.464382 "/>
        <path style="fill:none;stroke-width:0.010000;stroke-linecap:round;stroke-linejoin:round;stroke-opacity:1;stroke:#3366ff;" d="M 0.841189,13.341163 C 0.838462,13.341360 0.780659,13.349182 0.771415,13.298074 C 0.764880,13.261944 0.776338,13.194511 0.789702,13.098642 C 0.889239,12.384618 1.141049,11.692102 1.186835,10.972629 C 1.190910,10.908594 1.224337,10.768292 1.131176,10.627098 C 1.093229,10.569586 0.997435,10.478776 0.928000,10.310918 C 0.865474,10.159764 0.849116,9.987040 0.865069,9.824245 C 0.880708,9.664648 0.924105,9.508883 0.960986,9.352820 C 1.041596,9.011721 1.141436,8.672371 1.283992,8.352177 C 1.351887,8.203522 1.429771,8.053039 1.450040,7.890876 C 1.469959,7.731522 1.449260,7.569040 1.466529,7.409377 C 1.470878,7.369163 1.495144,7.295408 1.555446,7.207457 C 1.697271,7.000603 1.904758,6.952323 1.998773,6.937785 C 2.202480,6.906284 2.423518,6.940165 2.610792,7.026289 C 2.752532,7.091474 2.887101,7.198133 2.963130,7.334363 C 2.994698,7.390926 3.016857,7.453331 3.030397,7.516676 C 3.061278,7.661155 3.079772,7.813486 3.150037,7.943449 C 3.176620,7.992618 3.215411,8.039656 3.221292,8.095241 C 3.222369,8.105418 3.223337,8.114051 3.220237,8.116387 C 3.217535,8.118425 3.185372,8.131014 3.122066,8.142342 C 3.091343,8.147840 3.025481,8.154518 2.966828,8.212229 C 2.920561,8.257754 2.885419,8.315315 2.833204,8.353873 C 2.775861,8.396217 2.714104,8.432604 2.651253,8.466234 C 2.626582,8.479434 2.581220,8.506795 2.508873,8.521199 C 2.412176,8.540451 2.310939,8.540899 2.213169,8.528165 C 2.139084,8.518516 2.066088,8.501391 1.991959,8.492077 C 1.899287,8.480434 1.776160,8.484338 1.719826,8.558838 C 1.649626,8.651676 1.692633,8.796963 1.727777,8.907922 C 1.735640,8.932749 1.746423,8.957060 1.761032,8.978621 C 1.962356,9.275757 2.124323,9.467207 2.226368,9.557325 C 2.414924,9.723844 2.570085,9.730164 2.583233,9.731721 C 2.664164,9.741305 2.812773,9.723372 3.027297,9.711468 C 3.235072,9.699940 3.379069,9.717622 3.457835,9.712511 C 3.507663,9.709278 3.544732,9.702836 3.558661,9.690001 C 3.568820,9.680640 3.575723,9.668060 3.582002,9.655754 C 3.607667,9.605446 3.572183,9.560458 3.565655,9.540055 C 3.565442,9.539388 3.561655,9.524182 3.574585,9.521036 C 3.578323,9.520126 3.582742,9.520026 3.586094,9.521915 C 3.592067,9.525282 3.649189,9.563326 3.754807,9.639595 C 3.867604,9.721048 3.943248,9.782876 3.974951,9.825066 C 3.976026,9.826497 3.994760,9.842670 3.990622,9.876426 C 3.982909,9.939358 3.939323,9.958171 3.920129,9.972661 C 3.894275,9.992177 3.829240,9.989499 3.743924,9.985722 C 3.646310,9.981400 3.580658,9.960980 3.543792,9.957173 C 3.482321,9.950826 3.369995,9.970628 3.208638,9.993153 C 2.971662,10.026234 2.734132,10.080016 2.494889,10.083910 C 2.339149,10.086446 2.226494,10.068034 2.176007,10.037346 C 2.129323,10.008971 2.057411,9.936863 1.968125,9.823852 C 1.823585,9.640905 1.727123,9.495237 1.643216,9.467293 C 1.640322,9.466329 1.584393,9.447349 1.557225,9.498527 C 1.546029,9.519619 1.532647,9.565697 1.542250,9.627915 C 1.545965,9.651989 1.621816,9.886960 1.672403,10.347020 C 1.692440,10.529238 1.702730,10.712496 1.710513,10.895647 C 1.714814,10.996859 1.721358,11.098439 1.714765,11.199528 C 1.693354,11.527812 1.621605,11.851446 1.598800,12.179636 C 1.588337,12.330204 1.584616,12.435299 1.593460,12.491862 C 1.594758,12.500158 1.601257,12.625626 1.746282,12.692126 C 1.794841,12.714392 1.848520,12.723246 1.900210,12.736734 C 2.093589,12.787194 2.232342,12.797946 2.307346,12.808950 C 2.518218,12.839888 2.663534,12.888869 2.729888,12.935049 C 2.832880,13.006727 2.859600,13.105966 2.873048,13.151622 C 2.896133,13.229996 2.909991,13.295468 2.890718,13.319737 C 2.881714,13.331074 2.865974,13.334865 2.852938,13.341163 C 2.182355,13.341163 1.511772,13.341163 0.841189,13.341163 "/>
    </g>
    <g inkscape:groupmode="layer" id="85939170-c582-47bf-a863-744847deec14" inkscape:label="Female">
        <path style="fill:none;stroke-width:0.010000;stroke-linecap:round;stroke-linejoin:round;stroke-opacity:1;stroke:#339966;" d="M 2.038189,1.089623 C 2.034739,1.094869 1.994837,1.159965 1.879809,1.191573 C 1.792943,1.215442 1.697726,1.210596 1.609553,1.192133 "/>
    </g>
</svg>
