<?xml version="1.0" encoding="UTF-8"?>
<!-- Created by Vectric (http://www.vectric.com/) -->
<svg width="5.30323469in" height="12.89964249in" viewBox="0 0 5.30323469 12.89964249" id="svg2" version="1.1" xmlns="http://www.w3.org/2000/svg" xmlns:xlink="http://www.w3.org/1999/xlink" xmlns:inkscape="http://www.inkscape.org/namespaces/inkscape">
    <g inkscape:groupmode="layer" id="85667243-1302-4a85-b3ac-c7bf39b332ec" inkscape:label="Toolpath Previews"/>
    <g inkscape:groupmode="layer" id="ebea79f9-f16d-4532-bb38-027ad9573fba" inkscape:label="Cats">
        <path style="fill:none;stroke-width:0.010000;stroke-linecap:round;stroke-linejoin:round;stroke-opacity:1;stroke:#000000;" d="M 5.298212,0.869493 L 5.298212,0.000000 C 4.858824,0.239719 4.304599,0.549256 3.868765,0.737296 C 3.833878,0.752348 3.816543,0.762519 3.814734,0.763371 C 3.695904,0.819325 3.594755,0.805949 3.545376,0.799333 C 3.459031,0.787765 3.374770,0.763255 3.288476,0.751319 C 3.024717,0.714838 2.748094,0.709371 2.490016,0.774909 C 2.342287,0.812424 1.998567,0.922442 1.896662,1.203001 C 1.874088,1.254827 1.855353,1.308711 1.843004,1.363874 C 1.841368,1.371180 1.829244,1.445666 1.826759,1.587901 C 1.825615,1.653336 1.827110,1.700024 1.836646,1.722944 C 1.837890,1.725935 1.839523,1.729028 1.842105,1.730985 C 1.918033,1.682238 1.968764,1.599237 2.011200,1.519609 C 2.041540,1.462677 2.069059,1.404185 2.101627,1.348497 C 2.183861,1.207884 2.234147,1.161815 2.371850,1.074795 C 2.432295,1.036598 2.555385,0.970989 2.743283,0.955844 C 2.925672,0.941142 3.111162,0.972734 3.288890,1.016263 C 3.331920,1.026802 3.361846,1.037958 3.374495,1.049021 C 3.398276,1.069822 3.383735,1.096603 3.383133,1.098153 C 3.376652,1.114841 3.358339,1.142800 3.326810,1.177920 L 2.516443,2.080051 C 2.513492,2.082661 2.481611,2.106077 2.417424,2.144604 C 2.313361,2.207066 2.198145,2.256183 2.078860,2.278586 C 1.896398,2.312855 1.706323,2.290278 1.522004,2.268074 C 1.310432,2.242586 1.164655,2.223321 1.084068,2.217049 C 1.043848,2.213919 1.003388,2.229767 0.966684,2.246507 C 0.975745,2.251908 1.064842,2.308435 1.237015,2.411042 C 1.269629,2.430479 1.303195,2.450153 1.329481,2.477549 C 1.397752,2.548703 1.393600,2.634364 1.392055,2.671736 C 1.391419,2.687124 1.383335,2.714255 1.374602,2.753907 C 1.366801,2.789326 1.350871,2.853995 1.344120,2.949373 C 1.336995,3.050043 1.325658,3.150574 1.324276,3.251486 C 1.324015,3.270593 1.323716,3.289701 1.323171,3.308802 C 1.390732,3.326803 1.428821,3.324002 1.432499,3.324132 C 1.501076,3.326551 1.572317,3.330620 1.637903,3.310440 C 1.666755,3.301563 1.718530,3.278888 1.782219,3.231168 C 1.852485,3.178519 1.878106,3.116771 1.892238,3.086614 C 1.905310,3.058720 1.926273,3.006747 1.958951,2.932399 C 1.991779,2.857707 2.023763,2.780489 2.074622,2.716693 C 2.113976,2.667330 2.160901,2.623364 2.212098,2.586428 C 2.315811,2.511606 2.411052,2.495856 2.459442,2.492461 C 2.552920,2.485902 2.648717,2.511355 2.735080,2.547721 C 2.774306,2.564238 2.794486,2.574059 2.796388,2.575243 C 2.801223,2.578253 2.846074,2.613546 2.927259,2.685094 C 3.206355,2.931060 3.445460,3.220867 3.674839,3.513746 C 3.689403,3.532342 3.703247,3.552815 3.723070,3.565659 C 3.738201,3.575463 3.761329,3.585060 3.779583,3.575780 C 3.783319,3.572684 3.787351,3.568764 3.790666,3.565031 C 3.795566,3.560963 3.804057,3.549884 3.814274,3.525984 C 3.822565,3.506590 3.831136,3.478523 3.844282,3.440899 C 3.871956,3.361695 3.912216,3.236956 3.965281,3.044695 C 3.888397,3.016459 3.847593,3.002310 3.843885,3.000111 C 3.838221,2.996751 3.789567,2.952173 3.695084,2.870129 C 3.495042,2.696422 3.290360,2.525714 3.067599,2.382298 C 3.280455,2.055567 3.508255,1.736059 3.768534,1.445688 C 3.925509,1.270563 4.095672,1.103405 4.288589,0.968895 C 4.465666,0.845428 4.681394,0.740974 4.897168,0.747456 C 4.972935,0.749732 5.188594,0.840642 5.298212,0.869493 "/>
        <path style="fill:none;stroke-width:0.010000;stroke-linecap:round;stroke-linejoin:round;stroke-opacity:1;stroke:#000000;" d="M 2.542655,8.849336 C 2.380163,8.775266 2.286319,8.680438 2.236095,8.630587 C 2.157813,8.554242 2.090905,8.474768 2.026982,8.387983 C 2.038637,9.024156 2.044430,9.365937 2.046269,9.399324 C 2.053061,9.522650 2.070671,9.658481 2.014538,9.768501 C 1.969495,9.856786 1.903850,9.872491 1.898813,9.873846 C 1.894142,9.875103 1.822810,9.896556 1.760933,9.828601 C 1.734025,9.799051 1.718353,9.760860 1.699783,9.725470 C 1.641325,9.614058 1.573063,9.503893 1.481682,9.417409 C 1.425900,9.364615 1.304129,9.262956 1.103217,9.237774 C 0.995938,9.224329 0.885227,9.234581 0.779424,9.256837 C 0.798191,9.465355 0.834108,9.672563 0.880271,9.876771 C 0.881321,9.881417 0.891233,9.929055 0.887601,10.019491 C 0.884742,10.090656 0.871104,10.237669 0.753621,10.384146 C 0.712142,10.435863 0.663238,10.481634 0.612439,10.524233 C 0.715893,10.545629 0.825965,10.528522 0.928720,10.503991 C 1.087111,10.466178 1.239788,10.406278 1.390601,10.344854 C 1.432320,10.327862 1.460798,10.315102 1.477289,10.310630 C 1.600492,10.277220 1.724579,10.237684 1.852109,10.232100 C 1.926451,10.228845 2.004983,10.240138 2.071464,10.273569 C 2.077991,10.276851 2.084894,10.279616 2.090744,10.283992 L 2.982868,11.136201 C 2.984850,11.138401 3.004296,11.161040 3.034329,11.208622 C 3.071536,11.267569 3.103179,11.341481 3.090575,11.410040 C 3.089622,11.415222 3.081479,11.479688 3.002653,11.541412 C 2.979544,11.559508 2.934845,11.589890 2.864913,11.623017 C 2.802231,11.652710 2.671707,11.706638 2.490853,11.679653 C 2.332502,11.656025 2.182349,11.583925 2.044217,11.502978 C 1.905475,11.421673 1.775117,11.326370 1.647123,11.229018 C 1.616896,11.206028 1.588640,11.197659 1.574343,11.199412 C 1.532446,11.204549 1.559433,11.262532 1.560322,11.264568 C 1.652010,11.474645 1.769091,11.595583 1.837267,11.649538 C 1.941274,11.731848 2.173076,11.888120 2.522683,11.881088 C 2.747926,11.876557 2.973412,11.805676 3.175507,11.706114 C 3.276361,11.656428 3.382273,11.611181 3.493188,11.592794 C 3.638249,11.568747 3.717021,11.615082 3.723920,11.618588 C 3.763015,11.638459 3.796167,11.668499 3.830056,11.696334 C 4.275615,12.062297 4.670016,12.487799 5.116115,12.853103 C 5.146566,12.878039 5.191860,12.899642 5.226930,12.899642 C 5.272019,12.899642 5.301850,12.855658 5.302197,12.848200 L 5.302197,11.656799 C 5.295781,11.532139 5.211615,11.602654 5.198599,11.610168 C 5.185583,11.617683 5.173301,11.633915 5.162849,11.642467 C 5.088533,11.703272 4.996438,11.754026 4.900746,11.761979 C 4.861291,11.765258 4.781718,11.763774 4.690350,11.713313 C 4.660661,11.696916 4.634243,11.675162 4.606962,11.655011 C 4.161656,11.326093 3.719628,10.990092 3.309353,10.618394 C 3.104515,10.432816 2.907146,10.238530 2.719618,10.035475 C 2.718779,10.034566 2.711190,10.024476 2.692873,10.009753 C 2.655651,9.979836 2.617602,9.947543 2.594128,9.905957 C 2.559125,9.843945 2.550525,9.768904 2.545896,9.697845 C 2.543404,9.659588 2.542600,9.621217 2.542586,9.582879 C 2.542495,9.337735 2.542655,9.094728 2.542655,8.849336 "/>
        <path style="fill:none;stroke-width:0.010000;stroke-linecap:round;stroke-linejoin:round;stroke-opacity:1;stroke:#000000;" d="M 0.882074,9.398373 C 0.891212,9.396494 0.900018,9.386605 0.901087,9.378186 C 0.905072,9.346775 0.920787,9.317344 0.936841,9.301221 C 0.956518,9.287401 0.948023,9.283821 0.931563,9.282591 C 0.902721,9.283651 0.869304,9.280536 0.842621,9.279655 C 0.819474,9.290940 0.810520,9.307225 0.817951,9.322363 C 0.832992,9.346620 0.851933,9.343861 0.868205,9.357475 C 0.880126,9.369894 0.868363,9.390150 0.882074,9.398373 "/>
        <path style="fill:none;stroke-width:0.010000;stroke-linecap:round;stroke-linejoin:round;stroke-opacity:1;stroke:#000000;" d="M 1.290118,9.652686 C 1.224162,9.603462 1.076853,9.389806 0.961484,9.271660 "/>
        <path style="fill:none;stroke-width:0.010000;stroke-linecap:round;stroke-linejoin:round;stroke-opacity:1;stroke:#000000;" d="M 1.348888,9.568717 C 1.259104,9.531403 1.094886,9.369886 0.967143,9.267767 "/>
        <path style="fill:none;stroke-width:0.010000;stroke-linecap:round;stroke-linejoin:round;stroke-opacity:1;stroke:#000000;" d="M 1.422634,9.457195 C 1.304963,9.463646 1.111588,9.342697 0.970646,9.263732 "/>
        <path style="fill:none;stroke-width:0.010000;stroke-linecap:round;stroke-linejoin:round;stroke-opacity:1;stroke:#000000;" d="M 1.384815,3.168175 C 1.393838,3.165805 1.406118,3.170760 1.410810,3.177831 C 1.428318,3.204214 1.455458,3.223618 1.476998,3.230945 C 1.500764,3.234601 1.494739,3.241579 1.480534,3.249983 C 1.454215,3.261829 1.425648,3.279446 1.402126,3.292073 C 1.376376,3.292229 1.361126,3.281607 1.361069,3.264743 C 1.363787,3.236331 1.381986,3.230401 1.390530,3.210981 C 1.395704,3.194562 1.376175,3.181627 1.384815,3.168175 "/>
        <path style="fill:none;stroke-width:0.010000;stroke-linecap:round;stroke-linejoin:round;stroke-opacity:1;stroke:#000000;" d="M 1.675529,2.910884 C 1.636893,2.969427 1.576905,3.185935 1.517451,3.314832 "/>
        <path style="fill:none;stroke-width:0.010000;stroke-linecap:round;stroke-linejoin:round;stroke-opacity:1;stroke:#000000;" d="M 1.742371,2.964412 C 1.682247,3.019554 1.595933,3.197527 1.522824,3.316520 "/>
        <path style="fill:none;stroke-width:0.010000;stroke-linecap:round;stroke-linejoin:round;stroke-opacity:1;stroke:#000000;" d="M 1.827806,3.036670 C 1.734973,3.063171 1.615772,3.215488 1.526563,3.318908 "/>
        <path style="fill:none;stroke-width:0.010000;stroke-linecap:round;stroke-linejoin:round;stroke-opacity:1;stroke:#000000;" d="M 0.975214,9.781352 C 0.942412,9.738906 0.943891,9.697650 0.947169,9.680883 C 0.956509,9.633109 0.997214,9.619169 1.015527,9.616803 C 1.060197,9.611032 1.098712,9.637818 1.113976,9.651273 C 1.158313,9.690357 1.164874,9.739709 1.163967,9.759158 C 1.161615,9.809567 1.124455,9.829666 1.107204,9.834660 C 1.064878,9.846913 1.023977,9.824410 1.007472,9.812546 C 0.995461,9.803913 0.984341,9.793162 0.975214,9.781352 "/>
        <path style="fill:none;stroke-width:0.010000;stroke-linecap:round;stroke-linejoin:round;stroke-opacity:1;stroke:#000000;" d="M 1.435975,2.779464 C 1.465384,2.730281 1.505246,2.716010 1.522352,2.712900 C 1.571092,2.704039 1.598152,2.739628 1.606599,2.757130 C 1.627207,2.799824 1.614670,2.848767 1.606992,2.869248 C 1.584690,2.928741 1.539821,2.954187 1.520957,2.960704 C 1.472066,2.977595 1.440329,2.947922 1.429732,2.932490 C 1.403733,2.894628 1.411377,2.844923 1.417117,2.823803 C 1.421294,2.808433 1.427792,2.793149 1.435975,2.779464 "/>
    </g>
    <g inkscape:groupmode="layer" id="2c060f5d-7b4d-46e8-afc0-4095d9658cd4" inkscape:label="NewHuman">
        <path style="fill:none;stroke-width:0.010000;stroke-linecap:round;stroke-linejoin:round;stroke-opacity:1;stroke:#00ccff;" d="M 0.548208,7.296006 C 0.631441,7.531320 0.847434,7.535812 0.860561,7.536330 C 1.294339,7.553473 1.346631,7.218859 1.351543,7.196545 C 1.411071,6.974382 1.305917,6.624721 1.172122,6.454327 C 1.129925,6.400588 1.159044,6.342483 1.095135,6.318314 C 1.136324,6.284422 1.189017,6.263800 1.241280,6.253135 C 1.331054,6.234815 1.517996,6.370875 1.604501,6.596407 C 1.647611,6.708801 1.700753,6.922962 1.826508,7.214343 C 1.935596,7.467106 2.108293,7.698475 2.315044,7.880253 C 2.538668,8.076865 2.888092,8.164320 3.179764,8.104387 C 3.461583,8.046480 3.691779,7.815228 3.875957,7.594199 C 4.213001,7.189718 4.480317,6.731899 4.783057,6.301143 C 4.784905,6.298513 4.828699,6.213059 4.869555,6.258471 C 4.889224,6.280334 4.892414,6.313852 4.894100,6.343211 L 4.894100,7.695288 C 4.887721,7.783554 4.840175,7.867652 4.786443,7.937968 C 4.654746,8.110312 4.570765,8.190465 4.567655,8.201450 C 4.565336,8.209643 4.576709,8.295168 4.612615,8.452930 C 4.684967,8.770820 4.818251,9.072147 4.940237,9.374485 C 5.038659,9.618418 5.094869,9.797705 5.162092,9.871433 C 5.191177,9.903333 5.269724,9.915964 5.291399,9.878631 C 5.308193,9.849705 5.302206,9.812319 5.302206,9.778872 L 5.302206,5.126342 C 5.300910,5.110492 5.289572,5.088610 5.273677,5.088103 C 5.237461,5.086947 5.178914,5.130037 5.103648,5.188862 C 4.303499,5.768281 4.040920,6.517794 3.456477,7.134719 C 3.441993,7.150009 3.257392,7.406842 2.861616,7.347716 C 2.623324,7.312117 2.450280,7.261635 2.386813,7.195878 C 2.324819,7.131647 2.292005,7.002109 2.346195,6.931170 C 2.385493,6.879725 2.548548,6.739784 2.456845,6.595842 C 2.399691,6.506128 2.263537,6.506646 2.170036,6.455922 C 2.167864,6.454744 2.114618,6.423180 2.143962,6.386539 C 2.155492,6.372140 2.296915,6.244431 2.594309,6.237879 C 2.958776,6.224681 3.117980,6.238831 3.364334,6.025331 C 3.391533,6.001760 3.452343,5.911015 3.470662,5.880034 C 3.482062,5.860753 3.617309,5.666663 3.779596,5.424299 C 3.845849,5.318757 3.940072,5.119774 4.051012,4.810547 C 4.195755,4.407096 4.243082,4.184382 4.243919,4.161838 C 4.244131,4.156125 4.253871,4.038292 4.146709,4.020538 C 4.084149,4.010172 3.995599,4.031837 3.969451,4.089608 C 3.965304,4.098773 3.949249,4.167645 3.912800,4.289231 C 3.892736,4.356160 3.868338,4.438268 3.832011,4.537044 C 3.824943,4.556454 3.823015,4.567100 3.808020,4.595398 C 3.790296,4.628844 3.754439,4.660334 3.694203,4.651711 C 3.611425,4.639862 3.557050,4.505338 3.492900,4.558980 C 3.468912,4.579038 3.455260,4.611323 3.468539,4.649569 C 3.488089,4.705877 3.551757,4.798372 3.592429,4.950159 C 3.639335,5.125217 3.467781,5.243801 3.405782,5.335927 C 3.303128,5.488463 3.238435,5.513973 3.135126,5.666066 C 3.052888,5.787137 2.892654,5.789838 2.455522,5.782662 C 2.183673,5.782662 2.080584,5.849827 2.068629,5.859550 C 1.834727,6.049788 1.632467,6.017847 1.617681,6.012088 C 1.610515,6.009296 1.469642,5.963119 1.491856,5.818692 C 1.507333,5.718070 1.582956,5.635791 1.641115,5.552234 C 1.768391,5.369374 1.752231,5.056225 1.610207,4.884569 C 1.518698,4.773968 1.380956,4.685177 1.343206,4.546679 C 1.326905,4.486874 1.331632,4.378314 1.269694,4.375866 C 1.210428,4.373523 1.121655,4.456158 0.973255,4.505431 C 0.747773,4.580297 0.579341,4.586369 0.494417,4.616523 C 0.311524,4.681465 0.172029,4.868604 0.107560,5.051664 C 0.045808,5.227008 0.015783,5.413806 0.001252,5.599137 C -0.016895,5.830606 0.165531,6.048925 0.329121,6.213685 C 0.482729,6.368392 0.569844,6.513330 0.719344,6.672011 C 0.863941,6.825488 0.926395,6.980682 0.918331,7.060257 C 0.898690,7.254072 0.707702,7.272196 0.697740,7.274621 C 0.648817,7.286529 0.598336,7.291270 0.548208,7.296006 "/>
        <path style="fill:none;stroke-width:0.010000;stroke-linecap:round;stroke-linejoin:round;stroke-opacity:1;stroke:#00ccff;" d="M 1.604929,4.878938 C 1.569021,5.054327 1.485589,5.204245 1.347982,5.254107 "/>
        <path style="fill:none;stroke-width:0.010000;stroke-linecap:round;stroke-linejoin:round;stroke-opacity:1;stroke:#00ccff;" d="M 0.746178,4.852460 A 0.111199,0.111199 0 0,0 0.857377,4.963659 A 0.111199,0.111199 0 0,0 0.968576,4.852460 A 0.111199,0.111199 0 0,0 0.857377,4.741261 A 0.111199,0.111199 0 0,0 0.746178,4.852460 "/>
    </g>
</svg>
