  0
SECTION
  2
HEADER
  9
$ACADVER
  1
AC1009
  9
$DWGCODEPAGE
  3
ansi_1252
  9
$INSBASE
 10
0.0
 20
0.0
 30
0.0
  9
$EXTMIN
 10
0.6513656717220149
 20
0.3241734630534729
 30
0.0
  9
$EXTMAX
 10
5.341123272409769
 20
4.835832730640026
 30
0.0
  9
$LIMMIN
 10
0.0
 20
0.0
  9
$LIMMAX
 10
12.0
 20
9.0
  9
$ORTHOMODE
 70
     0
  9
$REGENMODE
 70
     1
  9
$FILLMODE
 70
     1
  9
$QTEXTMODE
 70
     0
  9
$MIRRTEXT
 70
     1
  9
$DRAGMODE
 70
     2
  9
$LTSCALE
 40
1.0
  9
$OSMODE
 70
    37
  9
$ATTMODE
 70
     1
  9
$TEXTSIZE
 40
0.2
  9
$TRACEWID
 40
0.05
  9
$TEXTSTYLE
  7
STANDARD
  9
$CLAYER
  8
0
  9
$CELTYPE
  6
BYLAYER
  9
$CECOLOR
 62
   256
  9
$DIMSCALE
 40
1.0
  9
$DIMASZ
 40
0.18
  9
$DIMEXO
 40
0.0625
  9
$DIMDLI
 40
0.38
  9
$DIMRND
 40
0.0
  9
$DIMDLE
 40
0.0
  9
$DIMEXE
 40
0.18
  9
$DIMTP
 40
0.0
  9
$DIMTM
 40
0.0
  9
$DIMTXT
 40
0.18
  9
$DIMCEN
 40
0.09
  9
$DIMTSZ
 40
0.0
  9
$DIMTOL
 70
     0
  9
$DIMLIM
 70
     0
  9
$DIMTIH
 70
     1
  9
$DIMTOH
 70
     1
  9
$DIMSE1
 70
     0
  9
$DIMSE2
 70
     0
  9
$DIMTAD
 70
     0
  9
$DIMZIN
 70
     0
  9
$DIMBLK
  1

  9
$DIMASO
 70
     1
  9
$DIMSHO
 70
     1
  9
$DIMPOST
  1

  9
$DIMAPOST
  1

  9
$DIMALT
 70
     0
  9
$DIMALTD
 70
     2
  9
$DIMALTF
 40
25.4
  9
$DIMLFAC
 40
1.0
  9
$DIMTOFL
 70
     0
  9
$DIMTVP
 40
0.0
  9
$DIMTIX
 70
     0
  9
$DIMSOXD
 70
     0
  9
$DIMSAH
 70
     0
  9
$DIMBLK1
  1

  9
$DIMBLK2
  1

  9
$DIMSTYLE
  2
STANDARD
  9
$DIMCLRD
 70
     0
  9
$DIMCLRE
 70
     0
  9
$DIMCLRT
 70
     0
  9
$DIMTFAC
 40
1.0
  9
$DIMGAP
 40
0.09
  9
$LUNITS
 70
     2
  9
$LUPREC
 70
     4
  9
$SKETCHINC
 40
0.1
  9
$FILLETRAD
 40
0.5
  9
$AUNITS
 70
     0
  9
$AUPREC
 70
     0
  9
$MENU
  1
.
  9
$ELEVATION
 40
0.0
  9
$PELEVATION
 40
0.0
  9
$THICKNESS
 40
0.0
  9
$LIMCHECK
 70
     0
  9
$CHAMFERA
 40
0.0
  9
$CHAMFERB
 40
0.0
  9
$SKPOLY
 70
     0
  9
$TDCREATE
 40
2454910.5
  9
$TDUPDATE
 40
2459253.393708993
  9
$TDINDWG
 40
0.0000000116
  9
$TDUSRTIMER
 40
0.0000000116
  9
$USRTIMER
 70
     1
  9
$ANGBASE
 50
0.0
  9
$ANGDIR
 70
     0
  9
$PDMODE
 70
     0
  9
$PDSIZE
 40
0.0
  9
$PLINEWID
 40
0.0
  9
$COORDS
 70
     1
  9
$SPLFRAME
 70
     0
  9
$SPLINETYPE
 70
     6
  9
$SPLINESEGS
 70
     8
  9
$ATTDIA
 70
     0
  9
$ATTREQ
 70
     1
  9
$HANDLING
 70
     1
  9
$HANDSEED
  5
3D5
  9
$SURFTAB1
 70
     6
  9
$SURFTAB2
 70
     6
  9
$SURFTYPE
 70
     6
  9
$SURFU
 70
     6
  9
$SURFV
 70
     6
  9
$UCSNAME
  2

  9
$UCSORG
 10
0.0
 20
0.0
 30
0.0
  9
$UCSXDIR
 10
1.0
 20
0.0
 30
0.0
  9
$UCSYDIR
 10
0.0
 20
1.0
 30
0.0
  9
$PUCSNAME
  2

  9
$PUCSORG
 10
0.0
 20
0.0
 30
0.0
  9
$PUCSXDIR
 10
1.0
 20
0.0
 30
0.0
  9
$PUCSYDIR
 10
0.0
 20
1.0
 30
0.0
  9
$USERI1
 70
     0
  9
$USERI2
 70
     0
  9
$USERI3
 70
     0
  9
$USERI4
 70
     0
  9
$USERI5
 70
     0
  9
$USERR1
 40
0.0
  9
$USERR2
 40
0.0
  9
$USERR3
 40
0.0
  9
$USERR4
 40
0.0
  9
$USERR5
 40
0.0
  9
$WORLDVIEW
 70
     1
  9
$SHADEDGE
 70
     3
  9
$SHADEDIF
 70
    70
  9
$TILEMODE
 70
     1
  9
$MAXACTVP
 70
    64
  9
$PLIMCHECK
 70
     0
  9
$PEXTMIN
 10
1.000000000000000E+20
 20
1.000000000000000E+20
 30
1.000000000000000E+20
  9
$PEXTMAX
 10
-1.000000000000000E+20
 20
-1.000000000000000E+20
 30
-1.000000000000000E+20
  9
$PLIMMIN
 10
0.0
 20
0.0
  9
$PLIMMAX
 10
12.0
 20
9.0
  9
$UNITMODE
 70
     0
  9
$VISRETAIN
 70
     1
  9
$PLINEGEN
 70
     0
  9
$PSLTSCALE
 70
     1
  0
ENDSEC
  0
SECTION
  2
TABLES
  0
TABLE
  2
VPORT
 70
     1
  0
VPORT
  2
*ACTIVE
 70
     0
 10
0.0
 20
0.0
 11
1.0
 21
1.0
 12
10.42990654205607
 22
4.5
 13
0.0
 23
0.0
 14
0.5
 24
0.5
 15
0.5
 25
0.5
 16
0.0
 26
0.0
 36
1.0
 17
0.0
 27
0.0
 37
0.0
 40
9.0
 41
1.972972972850329
 42
50.0
 43
0.0
 44
0.0
 50
0.0
 51
0.0
 71
     0
 72
   100
 73
     1
 74
     3
 75
     0
 76
     0
 77
     0
 78
     0
  0
ENDTAB
  0
TABLE
  2
LTYPE
 70
     2
  0
LTYPE
  2
CONTINUOUS
 70
     0
  3
Solid line
 72
    65
 73
     0
 40
0.0
  0
LTYPE
  2
CONTINUOUS2
 70
     0
  3
Solid Line
 72
    65
 73
     0
 40
0.0
  0
ENDTAB
  0
TABLE
  2
LAYER
 70
     2
  0
LAYER
  2
0
 70
     0
 62
     7
  6
CONTINUOUS
  0
LAYER
  2
CATS
 70
     0
 62
    18
  6
CONTINUOUS
  0
ENDTAB
  0
TABLE
  2
STYLE
 70
     1
  0
STYLE
  2
STANDARD
 70
     0
 40
0.0
 41
1.0
 50
0.0
 71
     0
 42
0.2
  3
txt
  4

  0
ENDTAB
  0
TABLE
  2
VIEW
 70
     0
  0
ENDTAB
  0
TABLE
  2
UCS
 70
     0
  0
ENDTAB
  0
TABLE
  2
APPID
 70
     1
  0
APPID
  2
ACAD
 70
     0
  0
ENDTAB
  0
TABLE
  2
DIMSTYLE
 70
     1
  0
DIMSTYLE
  2
STANDARD
 70
     0
  3

  4

  5

  6

  7

 40
1.0
 41
0.18
 42
0.0625
 43
0.38
 44
0.18
 45
0.0
 46
0.0
 47
0.0
 48
0.0
140
0.18
141
0.09
142
0.0
143
25.4
144
1.0
145
0.0
146
1.0
147
0.09
 71
     0
 72
     0
 73
     1
 74
     1
 75
     0
 76
     0
 77
     0
 78
     0
170
     0
171
     2
172
     0
173
     0
174
     0
175
     0
176
     0
177
     0
178
     0
  0
ENDTAB
  0
ENDSEC
  0
SECTION
  2
BLOCKS
  0
BLOCK
  8
0
  2
$MODEL_SPACE
 70
     0
 10
0.0
 20
0.0
 30
0.0
  3
$MODEL_SPACE
  1

  0
ENDBLK
  5
21
  8
0
  0
BLOCK
 67
     1
  8
0
  2
$PAPER_SPACE
 70
     0
 10
0.0
 20
0.0
 30
0.0
  3
$PAPER_SPACE
  1

  0
ENDBLK
  5
1D
 67
     1
  8
0
  0
ENDSEC
  0
SECTION
  2
ENTITIES
  0
POLYLINE
  5
70
  8
CATS
 66
     1
 10
0.0
 20
0.0
 30
0.0
 70
     1
  0
VERTEX
  5
7D
  8
CATS
 10
2.581581494239031
 20
4.374480034959007
 30
0.0
  0
VERTEX
  5
7E
  8
CATS
 10
2.551912531872191
 20
4.388595355278145
 30
0.0
  0
VERTEX
  5
7F
  8
CATS
 10
2.523815866603477
 20
4.403100905464962
 30
0.0
  0
VERTEX
  5
80
  8
CATS
 10
2.497254833743217
 20
4.417900393292736
 30
0.0
  0
VERTEX
  5
81
  8
CATS
 10
2.472192768601739
 20
4.432897526534745
 30
0.0
  0
VERTEX
  5
82
  8
CATS
 10
2.448593006489372
 20
4.44799601296427
 30
0.0
  0
VERTEX
  5
83
  8
CATS
 10
2.42641888271644
 20
4.463099560354589
 30
0.0
  0
VERTEX
  5
84
  8
CATS
 10
2.405633732593275
 20
4.478111876478982
 30
0.0
  0
VERTEX
  5
85
  8
CATS
 10
2.386200891430203
 20
4.492936669110728
 30
0.0
  0
VERTEX
  5
86
  8
CATS
 10
2.368083694537552
 20
4.507477646023105
 30
0.0
  0
VERTEX
  5
87
  8
CATS
 10
2.35124547722565
 20
4.521638514989393
 30
0.0
  0
VERTEX
  5
88
  8
CATS
 10
2.335649574804824
 20
4.535322983782869
 30
0.0
  0
VERTEX
  5
89
  8
CATS
 10
2.321259322585403
 20
4.548434760176814
 30
0.0
  0
VERTEX
  5
8A
  8
CATS
 10
2.295949109992086
 20
4.572555066859225
 30
0.0
  0
VERTEX
  5
8B
  8
CATS
 10
2.27502152192832
 20
4.593229097222858
 30
0.0
  0
VERTEX
  5
8C
  8
CATS
 10
2.246182353769963
 20
4.622013236906286
 30
0.0
  0
VERTEX
  5
8D
  8
CATS
 10
2.218311257587997
 20
4.651139771973174
 30
0.0
  0
VERTEX
  5
8E
  8
CATS
 10
2.191309913824498
 20
4.680657692516609
 30
0.0
  0
VERTEX
  5
8F
  8
CATS
 10
2.165080002921542
 20
4.710615988629678
 30
0.0
  0
VERTEX
  5
90
  8
CATS
 10
2.139523205321202
 20
4.741063650405468
 30
0.0
  0
VERTEX
  5
91
  8
CATS
 10
2.114541201465556
 20
4.772049667937065
 30
0.0
  0
VERTEX
  5
92
  8
CATS
 10
2.090035671796679
 20
4.803623031317556
 30
0.0
  0
VERTEX
  5
93
  8
CATS
 10
2.065908296756646
 20
4.835832730640026
 30
0.0
  0
VERTEX
  5
94
  8
CATS
 10
2.079232580822514
 20
4.104117869309071
 30
0.0
  0
VERTEX
  5
95
  8
CATS
 10
2.083044616876509
 20
3.907137487284663
 30
0.0
  0
VERTEX
  5
96
  8
CATS
 10
2.084316340617708
 20
3.851440880496799
 30
0.0
  0
VERTEX
  5
97
  8
CATS
 10
2.085195004247969
 20
3.824492119216239
 30
0.0
  0
VERTEX
  5
98
  8
CATS
 10
2.088084099560909
 20
3.777733547164619
 30
0.0
  0
VERTEX
  5
99
  8
CATS
 10
2.090996354936089
 20
3.730251637253132
 30
0.0
  0
VERTEX
  5
9A
  8
CATS
 10
2.092151501601337
 20
3.706379746154627
 30
0.0
  0
VERTEX
  5
9B
  8
CATS
 10
2.092940839027325
 20
3.682495399256782
 30
0.0
  0
VERTEX
  5
9C
  8
CATS
 10
2.093240500795783
 20
3.658654722781472
 30
0.0
  0
VERTEX
  5
9D
  8
CATS
 10
2.092926620488436
 20
3.634913842950572
 30
0.0
  0
VERTEX
  5
9E
  8
CATS
 10
2.091875331687011
 20
3.611328885985958
 30
0.0
  0
VERTEX
  5
9F
  8
CATS
 10
2.089962767973236
 20
3.587955978109505
 30
0.0
  0
VERTEX
  5
A0
  8
CATS
 10
2.087065062928839
 20
3.564851245543089
 30
0.0
  0
VERTEX
  5
A1
  8
CATS
 10
2.085208074151947
 20
3.55341698444548
 30
0.0
  0
VERTEX
  5
A2
  8
CATS
 10
2.083058350135546
 20
3.542070814508584
 30
0.0
  0
VERTEX
  5
A3
  8
CATS
 10
2.080600407577353
 20
3.530819751510134
 30
0.0
  0
VERTEX
  5
A4
  8
CATS
 10
2.077818763175084
 20
3.519670811227867
 30
0.0
  0
VERTEX
  5
A5
  8
CATS
 10
2.074697933626454
 20
3.508631009439514
 30
0.0
  0
VERTEX
  5
A6
  8
CATS
 10
2.07122243562918
 20
3.497707361922811
 30
0.0
  0
VERTEX
  5
A7
  8
CATS
 10
2.067376785880978
 20
3.486906884455494
 30
0.0
  0
VERTEX
  5
A8
  8
CATS
 10
2.063145501079562
 20
3.476236592815295
 30
0.0
  0
VERTEX
  5
A9
  8
CATS
 10
2.05851309792265
 20
3.465703502779949
 30
0.0
  0
VERTEX
  5
AA
  8
CATS
 10
2.053464093107956
 20
3.455314630127191
 30
0.0
  0
VERTEX
  5
AB
  8
CATS
 10
2.044796892640721
 20
3.439597581254733
 30
0.0
  0
VERTEX
  5
AC
  8
CATS
 10
2.035765816196691
 20
3.425496330273903
 30
0.0
  0
VERTEX
  5
AD
  8
CATS
 10
2.026489820446497
 20
3.412925577836778
 30
0.0
  0
VERTEX
  5
AE
  8
CATS
 10
2.017087862060769
 20
3.401800024595434
 30
0.0
  0
VERTEX
  5
AF
  8
CATS
 10
2.007678897710137
 20
3.392034371201946
 30
0.0
  0
VERTEX
  5
B0
  8
CATS
 10
1.99838188406523
 20
3.383543318308391
 30
0.0
  0
VERTEX
  5
B1
  8
CATS
 10
1.989315777796678
 20
3.376241566566844
 30
0.0
  0
VERTEX
  5
B2
  8
CATS
 10
1.980599535575112
 20
3.370043816629381
 30
0.0
  0
VERTEX
  5
B3
  8
CATS
 10
1.972352114071161
 20
3.364864769148079
 30
0.0
  0
VERTEX
  5
B4
  8
CATS
 10
1.964692469955456
 20
3.360619124775014
 30
0.0
  0
VERTEX
  5
B5
  8
CATS
 10
1.957739559898625
 20
3.357221584162262
 30
0.0
  0
VERTEX
  5
B6
  8
CATS
 10
1.9516123405713
 20
3.354586847961898
 30
0.0
  0
VERTEX
  5
B7
  8
CATS
 10
1.942310800787683
 20
3.351264591406641
 30
0.0
  0
VERTEX
  5
B8
  8
CATS
 10
1.937739503969646
 20
3.34996996032585
 30
0.0
  0
VERTEX
  5
B9
  8
CATS
 10
1.933011809716558
 20
3.348766016392922
 30
0.0
  0
VERTEX
  5
BA
  8
CATS
 10
1.922926624254357
 20
3.346953118409301
 30
0.0
  0
VERTEX
  5
BB
  8
CATS
 10
1.916153716146998
 20
3.346219691116669
 30
0.0
  0
VERTEX
  5
BC
  8
CATS
 10
1.908375927829951
 20
3.345815680673191
 30
0.0
  0
VERTEX
  5
BD
  8
CATS
 10
1.899704756834079
 20
3.345901638866141
 30
0.0
  0
VERTEX
  5
BE
  8
CATS
 10
1.890251700690245
 20
3.346638117482794
 30
0.0
  0
VERTEX
  5
BF
  8
CATS
 10
1.880128256929313
 20
3.348185668310425
 30
0.0
  0
VERTEX
  5
C0
  8
CATS
 10
1.869445923082145
 20
3.35070484313631
 30
0.0
  0
VERTEX
  5
C1
  8
CATS
 10
1.858316196679605
 20
3.354356193747724
 30
0.0
  0
VERTEX
  5
C2
  8
CATS
 10
1.846850575252557
 20
3.359300271931942
 30
0.0
  0
VERTEX
  5
C3
  8
CATS
 10
1.841026646883237
 20
3.362307256297376
 30
0.0
  0
VERTEX
  5
C4
  8
CATS
 10
1.835160556331863
 20
3.36569762947624
 30
0.0
  0
VERTEX
  5
C5
  8
CATS
 10
1.829266240789794
 20
3.369491460441941
 30
0.0
  0
VERTEX
  5
C6
  8
CATS
 10
1.823357637448387
 20
3.373708818167892
 30
0.0
  0
VERTEX
  5
C7
  8
CATS
 10
1.817448683499001
 20
3.378369771627499
 30
0.0
  0
VERTEX
  5
C8
  8
CATS
 10
1.811553316132992
 20
3.383494389794174
 30
0.0
  0
VERTEX
  5
C9
  8
CATS
 10
1.80568547254172
 20
3.389102741641325
 30
0.0
  0
VERTEX
  5
CA
  8
CATS
 10
1.799859089916541
 20
3.395214896142361
 30
0.0
  0
VERTEX
  5
CB
  8
CATS
 10
1.790267732520469
 20
3.406679009106912
 30
0.0
  0
VERTEX
  5
CC
  8
CATS
 10
1.781564082093826
 20
3.418819092970997
 30
0.0
  0
VERTEX
  5
CD
  8
CATS
 10
1.773582526609429
 20
3.431501064824078
 30
0.0
  0
VERTEX
  5
CE
  8
CATS
 10
1.766157454040096
 20
3.444590841755616
 30
0.0
  0
VERTEX
  5
CF
  8
CATS
 10
1.752314309537888
 20
3.47145747921192
 30
0.0
  0
VERTEX
  5
D0
  8
CATS
 10
1.738709752369735
 20
3.498346342055607
 30
0.0
  0
VERTEX
  5
D1
  8
CATS
 10
1.716302372543425
 20
3.540023500035373
 30
0.0
  0
VERTEX
  5
D2
  8
CATS
 10
1.704705247906551
 20
3.56073608100348
 30
0.0
  0
VERTEX
  5
D3
  8
CATS
 10
1.692819829536932
 20
3.58132084876291
 30
0.0
  0
VERTEX
  5
D4
  8
CATS
 10
1.680626614496872
 20
3.601744942418042
 30
0.0
  0
VERTEX
  5
D5
  8
CATS
 10
1.668106099848672
 20
3.62197550107326
 30
0.0
  0
VERTEX
  5
D6
  8
CATS
 10
1.655238782654634
 20
3.641979663832942
 30
0.0
  0
VERTEX
  5
D7
  8
CATS
 10
1.642005159977061
 20
3.661724569801468
 30
0.0
  0
VERTEX
  5
D8
  8
CATS
 10
1.628385728878253
 20
3.68117735808322
 30
0.0
  0
VERTEX
  5
D9
  8
CATS
 10
1.614360986420513
 20
3.700305167782578
 30
0.0
  0
VERTEX
  5
DA
  8
CATS
 10
1.599911429666142
 20
3.719075138003922
 30
0.0
  0
VERTEX
  5
DB
  8
CATS
 10
1.585017555677444
 20
3.737454407851632
 30
0.0
  0
VERTEX
  5
DC
  8
CATS
 10
1.569659861516719
 20
3.755410116430089
 30
0.0
  0
VERTEX
  5
DD
  8
CATS
 10
1.55381884424627
 20
3.772909402843674
 30
0.0
  0
VERTEX
  5
DE
  8
CATS
 10
1.537475000928398
 20
3.789919406196767
 30
0.0
  0
VERTEX
  5
DF
  8
CATS
 10
1.520608828625406
 20
3.806407265593748
 30
0.0
  0
VERTEX
  5
E0
  8
CATS
 10
1.509373060638935
 20
3.816848172720483
 30
0.0
  0
VERTEX
  5
E1
  8
CATS
 10
1.49657143071113
 20
3.828250750361928
 30
0.0
  0
VERTEX
  5
E2
  8
CATS
 10
1.482184670715572
 20
3.840431390195344
 30
0.0
  0
VERTEX
  5
E3
  8
CATS
 10
1.466193512525843
 20
3.853206483897996
 30
0.0
  0
VERTEX
  5
E4
  8
CATS
 10
1.448578688015525
 20
3.866392423147146
 30
0.0
  0
VERTEX
  5
E5
  8
CATS
 10
1.4293209290582
 20
3.879805599620056
 30
0.0
  0
VERTEX
  5
E6
  8
CATS
 10
1.408400967527449
 20
3.893262404993989
 30
0.0
  0
VERTEX
  5
E7
  8
CATS
 10
1.385799535296855
 20
3.906579230946207
 30
0.0
  0
VERTEX
  5
E8
  8
CATS
 10
1.373862246379611
 20
3.913127774038318
 30
0.0
  0
VERTEX
  5
E9
  8
CATS
 10
1.36149736424
 20
3.919572469153974
 30
0.0
  0
VERTEX
  5
EA
  8
CATS
 10
1.348702480362218
 20
3.925890365252832
 30
0.0
  0
VERTEX
  5
EB
  8
CATS
 10
1.335475186230465
 20
3.932058511294551
 30
0.0
  0
VERTEX
  5
EC
  8
CATS
 10
1.321813073328936
 20
3.938053956238788
 30
0.0
  0
VERTEX
  5
ED
  8
CATS
 10
1.307713733141832
 20
3.943853749045202
 30
0.0
  0
VERTEX
  5
EE
  8
CATS
 10
1.293174757153348
 20
3.949434938673449
 30
0.0
  0
VERTEX
  5
EF
  8
CATS
 10
1.278193736847683
 20
3.954774574083189
 30
0.0
  0
VERTEX
  5
F0
  8
CATS
 10
1.262768263709034
 20
3.959849704234078
 30
0.0
  0
VERTEX
  5
F1
  8
CATS
 10
1.2468959292216
 20
3.964637378085775
 30
0.0
  0
VERTEX
  5
F2
  8
CATS
 10
1.230574324869577
 20
3.969114644597937
 30
0.0
  0
VERTEX
  5
F3
  8
CATS
 10
1.213801042137165
 20
3.973258552730222
 30
0.0
  0
VERTEX
  5
F4
  8
CATS
 10
1.196573672508559
 20
3.977046151442289
 30
0.0
  0
VERTEX
  5
F5
  8
CATS
 10
1.178889807467959
 20
3.980454489693794
 30
0.0
  0
VERTEX
  5
F6
  8
CATS
 10
1.160747038499562
 20
3.983460616444396
 30
0.0
  0
VERTEX
  5
F7
  8
CATS
 10
1.142142957087565
 20
3.986041580653753
 30
0.0
  0
VERTEX
  5
F8
  8
CATS
 10
1.121990074624733
 20
3.988287776205346
 30
0.0
  0
VERTEX
  5
F9
  8
CATS
 10
1.101768942431751
 20
3.989995678184122
 30
0.0
  0
VERTEX
  5
FA
  8
CATS
 10
1.081491781695635
 20
3.991182417615856
 30
0.0
  0
VERTEX
  5
FB
  8
CATS
 10
1.061170813603399
 20
3.991865125526322
 30
0.0
  0
VERTEX
  5
FC
  8
CATS
 10
1.04081825934206
 20
3.992060932941297
 30
0.0
  0
VERTEX
  5
FD
  8
CATS
 10
1.020446340098632
 20
3.991786970886554
 30
0.0
  0
VERTEX
  5
FE
  8
CATS
 10
1.00006727706013
 20
3.991060370387869
 30
0.0
  0
VERTEX
  5
FF
  8
CATS
 10
0.9796932914135705
 20
3.989898262471016
 30
0.0
  0
VERTEX
  5
100
  8
CATS
 10
0.9593366043459682
 20
3.988317778161771
 30
0.0
  0
VERTEX
  5
101
  8
CATS
 10
0.9390094370443385
 20
3.986336048485908
 30
0.0
  0
VERTEX
  5
102
  8
CATS
 10
0.9187240106956964
 20
3.983970204469204
 30
0.0
  0
VERTEX
  5
103
  8
CATS
 10
0.8984925464870573
 20
3.981237377137431
 30
0.0
  0
VERTEX
  5
104
  8
CATS
 10
0.8783272656054366
 20
3.978154697516366
 30
0.0
  0
VERTEX
  5
105
  8
CATS
 10
0.8582403892378496
 20
3.974739296631783
 30
0.0
  0
VERTEX
  5
106
  8
CATS
 10
0.8382441385713115
 20
3.971008305509457
 30
0.0
  0
VERTEX
  5
107
  8
CATS
 10
0.8183507347928375
 20
3.966978855175163
 30
0.0
  0
VERTEX
  5
108
  8
CATS
 10
0.822068685602238
 20
3.927897464985803
 30
0.0
  0
VERTEX
  5
109
  8
CATS
 10
0.8261784986812639
 20
3.888849266611651
 30
0.0
  0
VERTEX
  5
10A
  8
CATS
 10
0.8306700592717032
 20
3.849836733843356
 30
0.0
  0
VERTEX
  5
10B
  8
CATS
 10
0.8355332526153441
 20
3.81086234047157
 30
0.0
  0
VERTEX
  5
10C
  8
CATS
 10
0.8407579639539744
 20
3.771928560286947
 30
0.0
  0
VERTEX
  5
10D
  8
CATS
 10
0.8463340785293822
 20
3.733037867080136
 30
0.0
  0
VERTEX
  5
10E
  8
CATS
 10
0.852251481583356
 20
3.69419273464179
 30
0.0
  0
VERTEX
  5
10F
  8
CATS
 10
0.8585000583576835
 20
3.65539563676256
 30
0.0
  0
VERTEX
  5
110
  8
CATS
 10
0.8650696940941529
 20
3.616649047233099
 30
0.0
  0
VERTEX
  5
111
  8
CATS
 10
0.8719502740345524
 20
3.577955439844057
 30
0.0
  0
VERTEX
  5
112
  8
CATS
 10
0.8866038074942934
 20
3.50073706664984
 30
0.0
  0
VERTEX
  5
113
  8
CATS
 10
0.9023797406712113
 20
3.423760307505122
 30
0.0
  0
VERTEX
  5
114
  8
CATS
 10
0.9191971554996107
 20
3.347044952735116
 30
0.0
  0
VERTEX
  5
115
  8
CATS
 10
0.9212963754701637
 20
3.335502281693185
 30
0.0
  0
VERTEX
  5
116
  8
CATS
 10
0.922935723784064
 20
3.323690933075557
 30
0.0
  0
VERTEX
  5
117
  8
CATS
 10
0.9246181388878043
 20
3.307855944532621
 30
0.0
  0
VERTEX
  5
118
  8
CATS
 10
0.9260810517094529
 20
3.287999592668728
 30
0.0
  0
VERTEX
  5
119
  8
CATS
 10
0.9270618931770777
 20
3.26412415408823
 30
0.0
  0
VERTEX
  5
11A
  8
CATS
 10
0.927298094218747
 20
3.236231905395476
 30
0.0
  0
VERTEX
  5
11B
  8
CATS
 10
0.9265270857625292
 20
3.204325123194819
 30
0.0
  0
VERTEX
  5
11C
  8
CATS
 10
0.9258420869786096
 20
3.190111388133777
 30
0.0
  0
VERTEX
  5
11D
  8
CATS
 10
0.9247681026389838
 20
3.174231872892741
 30
0.0
  0
VERTEX
  5
11E
  8
CATS
 10
0.9231688093712763
 20
3.156798467633515
 30
0.0
  0
VERTEX
  5
11F
  8
CATS
 10
0.920907883803112
 20
3.137923062517902
 30
0.0
  0
VERTEX
  5
120
  8
CATS
 10
0.9178490025621153
 20
3.117717547707707
 30
0.0
  0
VERTEX
  5
121
  8
CATS
 10
0.9138558422759111
 20
3.096293813364734
 30
0.0
  0
VERTEX
  5
122
  8
CATS
 10
0.908792079572124
 20
3.073763749650787
 30
0.0
  0
VERTEX
  5
123
  8
CATS
 10
0.902521391078379
 20
3.050239246727668
 30
0.0
  0
VERTEX
  5
124
  8
CATS
 10
0.8949074534223006
 20
3.025832194757183
 30
0.0
  0
VERTEX
  5
125
  8
CATS
 10
0.890554165104519
 20
3.013332678554742
 30
0.0
  0
VERTEX
  5
126
  8
CATS
 10
0.8858139432315134
 20
3.000654483901135
 30
0.0
  0
VERTEX
  5
127
  8
CATS
 10
0.8806697473817369
 20
2.987811597066588
 30
0.0
  0
VERTEX
  5
128
  8
CATS
 10
0.8751045371336423
 20
2.974818004321327
 30
0.0
  0
VERTEX
  5
129
  8
CATS
 10
0.869101272065683
 20
2.961687691935577
 30
0.0
  0
VERTEX
  5
12A
  8
CATS
 10
0.8626429117563118
 20
2.948434646179564
 30
0.0
  0
VERTEX
  5
12B
  8
CATS
 10
0.855712415783982
 20
2.935072853323513
 30
0.0
  0
VERTEX
  5
12C
  8
CATS
 10
0.8482927437271468
 20
2.921616299637649
 30
0.0
  0
VERTEX
  5
12D
  8
CATS
 10
0.8403668551642591
 20
2.908078971392198
 30
0.0
  0
VERTEX
  5
12E
  8
CATS
 10
0.8319177096737719
 20
2.894474854857387
 30
0.0
  0
VERTEX
  5
12F
  8
CATS
 10
0.8229282668341384
 20
2.880817936303439
 30
0.0
  0
VERTEX
  5
130
  8
CATS
 10
0.8133814862238118
 20
2.867122202000581
 30
0.0
  0
VERTEX
  5
131
  8
CATS
 10
0.803260327421245
 20
2.853401638219037
 30
0.0
  0
VERTEX
  5
132
  8
CATS
 10
0.7925477500048913
 20
2.839670231229035
 30
0.0
  0
VERTEX
  5
133
  8
CATS
 10
0.7766556365935164
 20
2.820549716491139
 30
0.0
  0
VERTEX
  5
134
  8
CATS
 10
0.760132324390806
 20
2.801954106510863
 30
0.0
  0
VERTEX
  5
135
  8
CATS
 10
0.7430426061675729
 20
2.783850893990231
 30
0.0
  0
VERTEX
  5
136
  8
CATS
 10
0.72545127469463
 20
2.766207571631273
 30
0.0
  0
VERTEX
  5
137
  8
CATS
 10
0.7074231227427901
 20
2.748991632136014
 30
0.0
  0
VERTEX
  5
138
  8
CATS
 10
0.6890229430828656
 20
2.732170568206482
 30
0.0
  0
VERTEX
  5
139
  8
CATS
 10
0.6703155284856697
 20
2.715711872544704
 30
0.0
  0
VERTEX
  5
13A
  8
CATS
 10
0.6513656717220149
 20
2.699583037852709
 30
0.0
  0
VERTEX
  5
13B
  8
CATS
 10
0.6708373224370787
 20
2.696014917647009
 30
0.0
  0
VERTEX
  5
13C
  8
CATS
 10
0.690443696472127
 20
2.693303676550424
 30
0.0
  0
VERTEX
  5
13D
  8
CATS
 10
0.7101643787235765
 20
2.69140378972623
 30
0.0
  0
VERTEX
  5
13E
  8
CATS
 10
0.7299789540878439
 20
2.6902697323377
 30
0.0
  0
VERTEX
  5
13F
  8
CATS
 10
0.7498670074613459
 20
2.68985597954811
 30
0.0
  0
VERTEX
  5
140
  8
CATS
 10
0.7698081237404995
 20
2.690117006520735
 30
0.0
  0
VERTEX
  5
141
  8
CATS
 10
0.7897818878217211
 20
2.691007288418851
 30
0.0
  0
VERTEX
  5
142
  8
CATS
 10
0.8097678846014279
 20
2.692481300405731
 30
0.0
  0
VERTEX
  5
143
  8
CATS
 10
0.8297456989760363
 20
2.694493517644652
 30
0.0
  0
VERTEX
  5
144
  8
CATS
 10
0.8496949158419633
 20
2.696998415298888
 30
0.0
  0
VERTEX
  5
145
  8
CATS
 10
0.8695951200956256
 20
2.699950468531713
 30
0.0
  0
VERTEX
  5
146
  8
CATS
 10
0.8894258966334397
 20
2.703304152506404
 30
0.0
  0
VERTEX
  5
147
  8
CATS
 10
0.9091668303518228
 20
2.707013942386235
 30
0.0
  0
VERTEX
  5
148
  8
CATS
 10
0.9287975061471913
 20
2.711034313334481
 30
0.0
  0
VERTEX
  5
149
  8
CATS
 10
0.9676464235545519
 20
2.719824699089318
 30
0.0
  0
VERTEX
  5
14A
  8
CATS
 10
0.9972787502200435
 20
2.727168462017215
 30
0.0
  0
VERTEX
  5
14B
  8
CATS
 10
1.026782773732228
 20
2.73499976205503
 30
0.0
  0
VERTEX
  5
14C
  8
CATS
 10
1.056164136910641
 20
2.743288478796098
 30
0.0
  0
VERTEX
  5
14D
  8
CATS
 10
1.085428482574822
 20
2.752004491833754
 30
0.0
  0
VERTEX
  5
14E
  8
CATS
 10
1.114581453544307
 20
2.761117680761333
 30
0.0
  0
VERTEX
  5
14F
  8
CATS
 10
1.143628692638634
 20
2.77059792517217
 30
0.0
  0
VERTEX
  5
150
  8
CATS
 10
1.172575842677339
 20
2.780415104659599
 30
0.0
  0
VERTEX
  5
151
  8
CATS
 10
1.201428546479961
 20
2.790539098816957
 30
0.0
  0
VERTEX
  5
152
  8
CATS
 10
1.258873186655103
 20
2.811587049514797
 30
0.0
  0
VERTEX
  5
153
  8
CATS
 10
1.316007755720357
 20
2.833500814012368
 30
0.0
  0
VERTEX
  5
154
  8
CATS
 10
1.372877396232022
 20
2.856039429056351
 30
0.0
  0
VERTEX
  5
155
  8
CATS
 10
1.429527250746397
 20
2.878961931393427
 30
0.0
  0
VERTEX
  5
156
  8
CATS
 10
1.482331899456787
 20
2.90076901389441
 30
0.0
  0
VERTEX
  5
157
  8
CATS
 10
1.501580113183353
 20
2.908341623540135
 30
0.0
  0
VERTEX
  5
158
  8
CATS
 10
1.509467099178864
 20
2.911128743388318
 30
0.0
  0
VERTEX
  5
159
  8
CATS
 10
1.516215588134673
 20
2.913186329606338
 30
0.0
  0
VERTEX
  5
15A
  8
CATS
 10
1.562463168455532
 20
2.925923749392258
 30
0.0
  0
VERTEX
  5
15B
  8
CATS
 10
1.608823545578645
 20
2.938765914394382
 30
0.0
  0
VERTEX
  5
15C
  8
CATS
 10
1.655326734724161
 20
2.95124313745304
 30
0.0
  0
VERTEX
  5
15D
  8
CATS
 10
1.702002751112227
 20
2.962885731408565
 30
0.0
  0
VERTEX
  5
15E
  8
CATS
 10
1.725414949278511
 20
2.968247265235255
 30
0.0
  0
VERTEX
  5
15F
  8
CATS
 10
1.748881609962988
 20
2.973224009101285
 30
0.0
  0
VERTEX
  5
160
  8
CATS
 10
1.772406485068176
 20
2.977757252111698
 30
0.0
  0
VERTEX
  5
161
  8
CATS
 10
1.795993326496594
 20
2.981788283371533
 30
0.0
  0
VERTEX
  5
162
  8
CATS
 10
1.819645886150759
 20
2.985258391985833
 30
0.0
  0
VERTEX
  5
163
  8
CATS
 10
1.84336791593319
 20
2.988108867059639
 30
0.0
  0
VERTEX
  5
164
  8
CATS
 10
1.867163167746406
 20
2.990280997697992
 30
0.0
  0
VERTEX
  5
165
  8
CATS
 10
1.891035393492924
 20
2.991716073005934
 30
0.0
  0
VERTEX
  5
166
  8
CATS
 10
1.905019708772668
 20
2.99215405662541
 30
0.0
  0
VERTEX
  5
167
  8
CATS
 10
1.919078422100716
 20
2.992239950661434
 30
0.0
  0
VERTEX
  5
168
  8
CATS
 10
1.933187745047764
 20
2.991962637820425
 30
0.0
  0
VERTEX
  5
169
  8
CATS
 10
1.947323889184504
 20
2.991311000808805
 30
0.0
  0
VERTEX
  5
16A
  8
CATS
 10
1.961463066081631
 20
2.990273922332991
 30
0.0
  0
VERTEX
  5
16B
  8
CATS
 10
1.97558148730984
 20
2.988840285099407
 30
0.0
  0
VERTEX
  5
16C
  8
CATS
 10
1.989655364439824
 20
2.98699897181447
 30
0.0
  0
VERTEX
  5
16D
  8
CATS
 10
2.003660909042276
 20
2.984738865184601
 30
0.0
  0
VERTEX
  5
16E
  8
CATS
 10
2.017574332687892
 20
2.982048847916221
 30
0.0
  0
VERTEX
  5
16F
  8
CATS
 10
2.031371846947366
 20
2.978917802715749
 30
0.0
  0
VERTEX
  5
170
  8
CATS
 10
2.04502966339139
 20
2.975334612289605
 30
0.0
  0
VERTEX
  5
171
  8
CATS
 10
2.05852399359066
 20
2.97128815934421
 30
0.0
  0
VERTEX
  5
172
  8
CATS
 10
2.07183104911587
 20
2.966767326585984
 30
0.0
  0
VERTEX
  5
173
  8
CATS
 10
2.084927041537713
 20
2.961760996721346
 30
0.0
  0
VERTEX
  5
174
  8
CATS
 10
2.097788182426884
 20
2.956258052456718
 30
0.0
  0
VERTEX
  5
175
  8
CATS
 10
2.110390683354076
 20
2.950247376498518
 30
0.0
  0
VERTEX
  5
176
  8
CATS
 10
2.120284316439426
 20
2.945445987063906
 30
0.0
  0
VERTEX
  5
177
  8
CATS
 10
2.125107759549859
 20
2.942837402770135
 30
0.0
  0
VERTEX
  5
178
  8
CATS
 10
2.129670398174492
 20
2.939824276651777
 30
0.0
  0
VERTEX
  5
179
  8
CATS
 10
3.021793956781751
 20
2.087614589951381
 30
0.0
  0
VERTEX
  5
17A
  8
CATS
 10
3.02644796746965
 20
2.082062092859751
 30
0.0
  0
VERTEX
  5
17B
  8
CATS
 10
3.037005964674334
 20
2.068422598644077
 30
0.0
  0
VERTEX
  5
17C
  8
CATS
 10
3.052823362158356
 20
2.046274015669463
 30
0.0
  0
VERTEX
  5
17D
  8
CATS
 10
3.062502902805918
 20
2.03187691226165
 30
0.0
  0
VERTEX
  5
17E
  8
CATS
 10
3.073255573684273
 20
2.015194252301018
 30
0.0
  0
VERTEX
  5
17F
  8
CATS
 10
3.080157277823571
 20
2.003971191583744
 30
0.0
  0
VERTEX
  5
180
  8
CATS
 10
3.086871905263104
 20
1.992427174449059
 30
0.0
  0
VERTEX
  5
181
  8
CATS
 10
3.093342790856968
 20
1.980591961485258
 30
0.0
  0
VERTEX
  5
182
  8
CATS
 10
3.099513269459258
 20
1.968495313280637
 30
0.0
  0
VERTEX
  5
183
  8
CATS
 10
3.105326675924068
 20
1.956166990423493
 30
0.0
  0
VERTEX
  5
184
  8
CATS
 10
3.110726345105493
 20
1.943636753502122
 30
0.0
  0
VERTEX
  5
185
  8
CATS
 10
3.115655611857629
 20
1.93093436310482
 30
0.0
  0
VERTEX
  5
186
  8
CATS
 10
3.120057811034569
 20
1.918089579819884
 30
0.0
  0
VERTEX
  5
187
  8
CATS
 10
3.12387627749041
 20
1.905132164235609
 30
0.0
  0
VERTEX
  5
188
  8
CATS
 10
3.127054346079246
 20
1.892091876940292
 30
0.0
  0
VERTEX
  5
189
  8
CATS
 10
3.129535351655171
 20
1.87899847852223
 30
0.0
  0
VERTEX
  5
18A
  8
CATS
 10
3.131262629072282
 20
1.865881729569717
 30
0.0
  0
VERTEX
  5
18B
  8
CATS
 10
3.132179513184672
 20
1.852771390671051
 30
0.0
  0
VERTEX
  5
18C
  8
CATS
 10
3.132229338846437
 20
1.839697222414528
 30
0.0
  0
VERTEX
  5
18D
  8
CATS
 10
3.131355440911671
 20
1.826688985388444
 30
0.0
  0
VERTEX
  5
18E
  8
CATS
 10
3.12950115423447
 20
1.813776440181096
 30
0.0
  0
VERTEX
  5
18F
  8
CATS
 10
3.128682805498028
 20
1.809175240185666
 30
0.0
  0
VERTEX
  5
190
  8
CATS
 10
3.126446323717263
 20
1.799743051627923
 30
0.0
  0
VERTEX
  5
191
  8
CATS
 10
3.124563766175756
 20
1.793442481746237
 30
0.0
  0
VERTEX
  5
192
  8
CATS
 10
3.122047655261762
 20
1.786206738853637
 30
0.0
  0
VERTEX
  5
193
  8
CATS
 10
3.118804984271482
 20
1.778126680993343
 30
0.0
  0
VERTEX
  5
194
  8
CATS
 10
3.114742746501112
 20
1.769293166208577
 30
0.0
  0
VERTEX
  5
195
  8
CATS
 10
3.10976793524685
 20
1.75979705254256
 30
0.0
  0
VERTEX
  5
196
  8
CATS
 10
3.103787543804896
 20
1.749729198038513
 30
0.0
  0
VERTEX
  5
197
  8
CATS
 10
3.096708565471446
 20
1.739180460739658
 30
0.0
  0
VERTEX
  5
198
  8
CATS
 10
3.0884379935427
 20
1.728241698689216
 30
0.0
  0
VERTEX
  5
199
  8
CATS
 10
3.078882821314855
 20
1.717003769930408
 30
0.0
  0
VERTEX
  5
19A
  8
CATS
 10
3.067950042084111
 20
1.705557532506455
 30
0.0
  0
VERTEX
  5
19B
  8
CATS
 10
3.055546649146664
 20
1.693993844460578
 30
0.0
  0
VERTEX
  5
19C
  8
CATS
 10
3.041579635798714
 20
1.682403563835999
 30
0.0
  0
VERTEX
  5
19D
  8
CATS
 10
3.031894424482618
 20
1.675060323205934
 30
0.0
  0
VERTEX
  5
19E
  8
CATS
 10
3.020142513957992
 20
1.666677056154981
 30
0.0
  0
VERTEX
  5
19F
  8
CATS
 10
3.006281203673248
 20
1.657365578248219
 30
0.0
  0
VERTEX
  5
1A0
  8
CATS
 10
2.9902677930768
 20
1.647237705050728
 30
0.0
  0
VERTEX
  5
1A1
  8
CATS
 10
2.97205958161706
 20
1.636405252127587
 30
0.0
  0
VERTEX
  5
1A2
  8
CATS
 10
2.951613868742441
 20
1.624980035043874
 30
0.0
  0
VERTEX
  5
1A3
  8
CATS
 10
2.928887953901355
 20
1.61307386936467
 30
0.0
  0
VERTEX
  5
1A4
  8
CATS
 10
2.903839136542215
 20
1.600798570655052
 30
0.0
  0
VERTEX
  5
1A5
  8
CATS
 10
2.891295478857224
 20
1.594972854186488
 30
0.0
  0
VERTEX
  5
1A6
  8
CATS
 10
2.877187432699098
 20
1.588733141522102
 30
0.0
  0
VERTEX
  5
1A7
  8
CATS
 10
2.861540649632418
 20
1.582233460414348
 30
0.0
  0
VERTEX
  5
1A8
  8
CATS
 10
2.844380781221767
 20
1.575627838615682
 30
0.0
  0
VERTEX
  5
1A9
  8
CATS
 10
2.825733479031728
 20
1.569070303878558
 30
0.0
  0
VERTEX
  5
1AA
  8
CATS
 10
2.805624394626883
 20
1.562714883955433
 30
0.0
  0
VERTEX
  5
1AB
  8
CATS
 10
2.784079179571814
 20
1.55671560659876
 30
0.0
  0
VERTEX
  5
1AC
  8
CATS
 10
2.761123485431103
 20
1.551226499560996
 30
0.0
  0
VERTEX
  5
1AD
  8
CATS
 10
2.736782963769333
 20
1.546401590594594
 30
0.0
  0
VERTEX
  5
1AE
  8
CATS
 10
2.711083266151086
 20
1.542394907452011
 30
0.0
  0
VERTEX
  5
1AF
  8
CATS
 10
2.697731742472215
 20
1.540746534237294
 30
0.0
  0
VERTEX
  5
1B0
  8
CATS
 10
2.684050044140944
 20
1.539360477885702
 30
0.0
  0
VERTEX
  5
1B1
  8
CATS
 10
2.670041377602844
 20
1.538255991866292
 30
0.0
  0
VERTEX
  5
1B2
  8
CATS
 10
2.65570894930349
 20
1.53745232964812
 30
0.0
  0
VERTEX
  5
1B3
  8
CATS
 10
2.641055965688452
 20
1.536968744700245
 30
0.0
  0
VERTEX
  5
1B4
  8
CATS
 10
2.626085633203306
 20
1.536824490491723
 30
0.0
  0
VERTEX
  5
1B5
  8
CATS
 10
2.610801158293622
 20
1.537038820491609
 30
0.0
  0
VERTEX
  5
1B6
  8
CATS
 10
2.595205747404974
 20
1.537630988168963
 30
0.0
  0
VERTEX
  5
1B7
  8
CATS
 10
2.579302606982935
 20
1.53862024699284
 30
0.0
  0
VERTEX
  5
1B8
  8
CATS
 10
2.563094943473077
 20
1.540025850432297
 30
0.0
  0
VERTEX
  5
1B9
  8
CATS
 10
2.546585963320974
 20
1.541867051956392
 30
0.0
  0
VERTEX
  5
1BA
  8
CATS
 10
2.529778872972197
 20
1.544163105034181
 30
0.0
  0
VERTEX
  5
1BB
  8
CATS
 10
2.500185219529581
 20
1.549151655313091
 30
0.0
  0
VERTEX
  5
1BC
  8
CATS
 10
2.4707892851553
 20
1.555218224370572
 30
0.0
  0
VERTEX
  5
1BD
  8
CATS
 10
2.441596671258889
 20
1.56230476932681
 30
0.0
  0
VERTEX
  5
1BE
  8
CATS
 10
2.412612979249884
 20
1.570353247301989
 30
0.0
  0
VERTEX
  5
1BF
  8
CATS
 10
2.383843810537819
 20
1.579305615416296
 30
0.0
  0
VERTEX
  5
1C0
  8
CATS
 10
2.35529476653223
 20
1.589103830789916
 30
0.0
  0
VERTEX
  5
1C1
  8
CATS
 10
2.326971448642654
 20
1.599689850543033
 30
0.0
  0
VERTEX
  5
1C2
  8
CATS
 10
2.298879458278624
 20
1.611005631795834
 30
0.0
  0
VERTEX
  5
1C3
  8
CATS
 10
2.271024396849677
 20
1.622993131668503
 30
0.0
  0
VERTEX
  5
1C4
  8
CATS
 10
2.243411865765347
 20
1.635594307281226
 30
0.0
  0
VERTEX
  5
1C5
  8
CATS
 10
2.216047466435171
 20
1.648751115754189
 30
0.0
  0
VERTEX
  5
1C6
  8
CATS
 10
2.188936800268684
 20
1.662405514207575
 30
0.0
  0
VERTEX
  5
1C7
  8
CATS
 10
2.162085468675421
 20
1.676499459761572
 30
0.0
  0
VERTEX
  5
1C8
  8
CATS
 10
2.135499073064917
 20
1.690974909536364
 30
0.0
  0
VERTEX
  5
1C9
  8
CATS
 10
2.109183214846709
 20
1.705773820652136
 30
0.0
  0
VERTEX
  5
1CA
  8
CATS
 10
2.083143495430331
 20
1.720838150229074
 30
0.0
  0
VERTEX
  5
1CB
  8
CATS
 10
2.057226199584111
 20
1.736243936753777
 30
0.0
  0
VERTEX
  5
1CC
  8
CATS
 10
2.031496563993657
 20
1.751960302466652
 30
0.0
  0
VERTEX
  5
1CD
  8
CATS
 10
2.005945773123366
 20
1.767969742722427
 30
0.0
  0
VERTEX
  5
1CE
  8
CATS
 10
1.980565011437638
 20
1.784254752875831
 30
0.0
  0
VERTEX
  5
1CF
  8
CATS
 10
1.930278313477465
 20
1.817581464294446
 30
0.0
  0
VERTEX
  5
1D0
  8
CATS
 10
1.880565945828329
 20
1.85180039956033
 30
0.0
  0
VERTEX
  5
1D1
  8
CATS
 10
1.83135738420542
 20
1.886771521511319
 30
0.0
  0
VERTEX
  5
1D2
  8
CATS
 10
1.782582104323927
 20
1.922354792985245
 30
0.0
  0
VERTEX
  5
1D3
  8
CATS
 10
1.734169581899042
 20
1.958410176819943
 30
0.0
  0
VERTEX
  5
1D4
  8
CATS
 10
1.686049292645954
 20
1.994797635853247
 30
0.0
  0
VERTEX
  5
1D5
  8
CATS
 10
1.674830079490989
 20
2.002742403330381
 30
0.0
  0
VERTEX
  5
1D6
  8
CATS
 10
1.66393609718496
 20
2.009369154168755
 30
0.0
  0
VERTEX
  5
1D7
  8
CATS
 10
1.65350782453948
 20
2.014730614510538
 30
0.0
  0
VERTEX
  5
1D8
  8
CATS
 10
1.643685740366163
 20
2.018879510497903
 30
0.0
  0
VERTEX
  5
1D9
  8
CATS
 10
1.634610323476622
 20
2.021868568273021
 30
0.0
  0
VERTEX
  5
1DA
  8
CATS
 10
1.62642205268247
 20
2.023750513978063
 30
0.0
  0
VERTEX
  5
1DB
  8
CATS
 10
1.619261406795323
 20
2.024578073755202
 30
0.0
  0
VERTEX
  5
1DC
  8
CATS
 10
1.613268864626792
 20
2.024403973746608
 30
0.0
  0
VERTEX
  5
1DD
  8
CATS
 10
1.609539980578272
 20
2.023770911252929
 30
0.0
  0
VERTEX
  5
1DE
  8
CATS
 10
1.606197319032691
 20
2.022848120292838
 30
0.0
  0
VERTEX
  5
1DF
  8
CATS
 10
1.603223488291412
 20
2.021655521666298
 30
0.0
  0
VERTEX
  5
1E0
  8
CATS
 10
1.6006010966558
 20
2.020213036173274
 30
0.0
  0
VERTEX
  5
1E1
  8
CATS
 10
1.598312752427218
 20
2.018540584613731
 30
0.0
  0
VERTEX
  5
1E2
  8
CATS
 10
1.596341063907029
 20
2.016658087787632
 30
0.0
  0
VERTEX
  5
1E3
  8
CATS
 10
1.594668639396599
 20
2.014585466494942
 30
0.0
  0
VERTEX
  5
1E4
  8
CATS
 10
1.593278087197289
 20
2.012342641535624
 30
0.0
  0
VERTEX
  5
1E5
  8
CATS
 10
1.59127303293749
 20
2.007426063816965
 30
0.0
  0
VERTEX
  5
1E6
  8
CATS
 10
1.590186767538542
 20
2.002067721031367
 30
0.0
  0
VERTEX
  5
1E7
  8
CATS
 10
1.589880157411355
 20
1.996426979578546
 30
0.0
  0
VERTEX
  5
1E8
  8
CATS
 10
1.59021406896684
 20
1.990663205858215
 30
0.0
  0
VERTEX
  5
1E9
  8
CATS
 10
1.591049368615906
 20
1.984935766270088
 30
0.0
  0
VERTEX
  5
1EA
  8
CATS
 10
1.592246922769464
 20
1.979404027213878
 30
0.0
  0
VERTEX
  5
1EB
  8
CATS
 10
1.595172260233695
 20
1.969565116296065
 30
0.0
  0
VERTEX
  5
1EC
  8
CATS
 10
1.597877012646815
 20
1.962421404302489
 30
0.0
  0
VERTEX
  5
1ED
  8
CATS
 10
1.599248111296105
 20
1.959247822430858
 30
0.0
  0
VERTEX
  5
1EE
  8
CATS
 10
1.607916048972012
 20
1.939813567672453
 30
0.0
  0
VERTEX
  5
1EF
  8
CATS
 10
1.616719162767267
 20
1.920897558541287
 30
0.0
  0
VERTEX
  5
1F0
  8
CATS
 10
1.62564384870524
 20
1.902495737967589
 30
0.0
  0
VERTEX
  5
1F1
  8
CATS
 10
1.634676502809299
 20
1.884604048881592
 30
0.0
  0
VERTEX
  5
1F2
  8
CATS
 10
1.643803521102813
 20
1.867218434213525
 30
0.0
  0
VERTEX
  5
1F3
  8
CATS
 10
1.653011299609151
 20
1.850334836893621
 30
0.0
  0
VERTEX
  5
1F4
  8
CATS
 10
1.671614721353779
 20
1.818057466019222
 30
0.0
  0
VERTEX
  5
1F5
  8
CATS
 10
1.690377936230133
 20
1.787739479700244
 30
0.0
  0
VERTEX
  5
1F6
  8
CATS
 10
1.709192112425166
 20
1.759348421378534
 30
0.0
  0
VERTEX
  5
1F7
  8
CATS
 10
1.727948418125832
 20
1.73285183449594
 30
0.0
  0
VERTEX
  5
1F8
  8
CATS
 10
1.746538021519081
 20
1.70821726249431
 30
0.0
  0
VERTEX
  5
1F9
  8
CATS
 10
1.764852090791867
 20
1.685412248815491
 30
0.0
  0
VERTEX
  5
1FA
  8
CATS
 10
1.782781794131143
 20
1.664404336901332
 30
0.0
  0
VERTEX
  5
1FB
  8
CATS
 10
1.800218299723861
 20
1.645161070193681
 30
0.0
  0
VERTEX
  5
1FC
  8
CATS
 10
1.817052775756974
 20
1.627649992134385
 30
0.0
  0
VERTEX
  5
1FD
  8
CATS
 10
1.833176390417433
 20
1.611838646165292
 30
0.0
  0
VERTEX
  5
1FE
  8
CATS
 10
1.848480311892193
 20
1.597694575728251
 30
0.0
  0
VERTEX
  5
1FF
  8
CATS
 10
1.862855708368205
 20
1.585185324265108
 30
0.0
  0
VERTEX
  5
200
  8
CATS
 10
1.876193748032422
 20
1.574278435217712
 30
0.0
  0
VERTEX
  5
201
  8
CATS
 10
1.897190119454016
 20
1.558036387925335
 30
0.0
  0
VERTEX
  5
202
  8
CATS
 10
1.921167067678243
 20
1.540408437823478
 30
0.0
  0
VERTEX
  5
203
  8
CATS
 10
1.948109957184941
 20
1.521742140165833
 30
0.0
  0
VERTEX
  5
204
  8
CATS
 10
1.962689056319167
 20
1.512128222020368
 30
0.0
  0
VERTEX
  5
205
  8
CATS
 10
1.97800415245395
 20
1.502385050206092
 30
0.0
  0
VERTEX
  5
206
  8
CATS
 10
1.994053416149271
 20
1.492556069129714
 30
0.0
  0
VERTEX
  5
207
  8
CATS
 10
2.010835017965109
 20
1.482684723197947
 30
0.0
  0
VERTEX
  5
208
  8
CATS
 10
2.028347128461443
 20
1.472814456817502
 30
0.0
  0
VERTEX
  5
209
  8
CATS
 10
2.046587918198255
 20
1.462988714395091
 30
0.0
  0
VERTEX
  5
20A
  8
CATS
 10
2.065555557735524
 20
1.453250940337425
 30
0.0
  0
VERTEX
  5
20B
  8
CATS
 10
2.085248217633229
 20
1.443644579051216
 30
0.0
  0
VERTEX
  5
20C
  8
CATS
 10
2.105664068451351
 20
1.434213074943175
 30
0.0
  0
VERTEX
  5
20D
  8
CATS
 10
2.12680128074987
 20
1.424999872420014
 30
0.0
  0
VERTEX
  5
20E
  8
CATS
 10
2.148658025088764
 20
1.416048415888445
 30
0.0
  0
VERTEX
  5
20F
  8
CATS
 10
2.171232472028015
 20
1.407402149755178
 30
0.0
  0
VERTEX
  5
210
  8
CATS
 10
2.194522792127602
 20
1.399104518426926
 30
0.0
  0
VERTEX
  5
211
  8
CATS
 10
2.218527155947505
 20
1.3911989663104
 30
0.0
  0
VERTEX
  5
212
  8
CATS
 10
2.243243734047702
 20
1.383728937812311
 30
0.0
  0
VERTEX
  5
213
  8
CATS
 10
2.268670696988177
 20
1.376737877339372
 30
0.0
  0
VERTEX
  5
214
  8
CATS
 10
2.294806215328906
 20
1.370269229298293
 30
0.0
  0
VERTEX
  5
215
  8
CATS
 10
2.321648459629871
 20
1.364366438095786
 30
0.0
  0
VERTEX
  5
216
  8
CATS
 10
2.349195600451051
 20
1.359072948138563
 30
0.0
  0
VERTEX
  5
217
  8
CATS
 10
2.377445808352426
 20
1.354432203833335
 30
0.0
  0
VERTEX
  5
218
  8
CATS
 10
2.406397253893976
 20
1.350487649586814
 30
0.0
  0
VERTEX
  5
219
  8
CATS
 10
2.436048107635681
 20
1.347282729805712
 30
0.0
  0
VERTEX
  5
21A
  8
CATS
 10
2.466396540137521
 20
1.344860888896739
 30
0.0
  0
VERTEX
  5
21B
  8
CATS
 10
2.497440721959475
 20
1.343265571266607
 30
0.0
  0
VERTEX
  5
21C
  8
CATS
 10
2.529178823661524
 20
1.342540221322028
 30
0.0
  0
VERTEX
  5
21D
  8
CATS
 10
2.561609015803647
 20
1.342728283469714
 30
0.0
  0
VERTEX
  5
21E
  8
CATS
 10
2.582725553599114
 20
1.343346257621281
 30
0.0
  0
VERTEX
  5
21F
  8
CATS
 10
2.603839187383431
 20
1.344346104559884
 30
0.0
  0
VERTEX
  5
220
  8
CATS
 10
2.624945589590644
 20
1.345720927041341
 30
0.0
  0
VERTEX
  5
221
  8
CATS
 10
2.646040432654803
 20
1.347463827821467
 30
0.0
  0
VERTEX
  5
222
  8
CATS
 10
2.667119389009955
 20
1.349567909656077
 30
0.0
  0
VERTEX
  5
223
  8
CATS
 10
2.68817813109015
 20
1.352026275300988
 30
0.0
  0
VERTEX
  5
224
  8
CATS
 10
2.709212331329436
 20
1.354832027512016
 30
0.0
  0
VERTEX
  5
225
  8
CATS
 10
2.730217662161861
 20
1.357978269044975
 30
0.0
  0
VERTEX
  5
226
  8
CATS
 10
2.751189796021474
 20
1.361458102655683
 30
0.0
  0
VERTEX
  5
227
  8
CATS
 10
2.772124405342323
 20
1.365264631099955
 30
0.0
  0
VERTEX
  5
228
  8
CATS
 10
2.793017162558456
 20
1.369390957133606
 30
0.0
  0
VERTEX
  5
229
  8
CATS
 10
2.813863740103923
 20
1.373830183512454
 30
0.0
  0
VERTEX
  5
22A
  8
CATS
 10
2.834659810412773
 20
1.378575412992312
 30
0.0
  0
VERTEX
  5
22B
  8
CATS
 10
2.855401045919051
 20
1.383619748328998
 30
0.0
  0
VERTEX
  5
22C
  8
CATS
 10
2.896701702260094
 20
1.394578147596115
 30
0.0
  0
VERTEX
  5
22D
  8
CATS
 10
2.937731088599439
 20
1.406650203360331
 30
0.0
  0
VERTEX
  5
22E
  8
CATS
 10
2.978454584409475
 20
1.419780737668173
 30
0.0
  0
VERTEX
  5
22F
  8
CATS
 10
3.018837569162589
 20
1.433914572566168
 30
0.0
  0
VERTEX
  5
230
  8
CATS
 10
3.05884542233117
 20
1.448996530100842
 30
0.0
  0
VERTEX
  5
231
  8
CATS
 10
3.098443523387604
 20
1.464971432318722
 30
0.0
  0
VERTEX
  5
232
  8
CATS
 10
3.137597251804281
 20
1.481784101266336
 30
0.0
  0
VERTEX
  5
233
  8
CATS
 10
3.176271987053586
 20
1.499379358990208
 30
0.0
  0
VERTEX
  5
234
  8
CATS
 10
3.21443310860791
 20
1.517702027536867
 30
0.0
  0
VERTEX
  5
235
  8
CATS
 10
3.252490438794104
 20
1.536082471845907
 30
0.0
  0
VERTEX
  5
236
  8
CATS
 10
3.291021253735937
 20
1.553784004654978
 30
0.0
  0
VERTEX
  5
237
  8
CATS
 10
3.310464023388181
 20
1.562298069241894
 30
0.0
  0
VERTEX
  5
238
  8
CATS
 10
3.33002493070689
 20
1.570543873947658
 30
0.0
  0
VERTEX
  5
239
  8
CATS
 10
3.349703897851249
 20
1.578488574770218
 30
0.0
  0
VERTEX
  5
23A
  8
CATS
 10
3.369500846980442
 20
1.586099327707522
 30
0.0
  0
VERTEX
  5
23B
  8
CATS
 10
3.389415700253655
 20
1.593343288757516
 30
0.0
  0
VERTEX
  5
23C
  8
CATS
 10
3.409448379830073
 20
1.600187613918147
 30
0.0
  0
VERTEX
  5
23D
  8
CATS
 10
3.42959880786888
 20
1.606599459187363
 30
0.0
  0
VERTEX
  5
23E
  8
CATS
 10
3.449866906529263
 20
1.61254598056311
 30
0.0
  0
VERTEX
  5
23F
  8
CATS
 10
3.470252597970406
 20
1.617994334043336
 30
0.0
  0
VERTEX
  5
240
  8
CATS
 10
3.490755804351493
 20
1.622911675625987
 30
0.0
  0
VERTEX
  5
241
  8
CATS
 10
3.51137644783171
 20
1.627265161309011
 30
0.0
  0
VERTEX
  5
242
  8
CATS
 10
3.532114450570242
 20
1.631021947090355
 30
0.0
  0
VERTEX
  5
243
  8
CATS
 10
3.545519535574003
 20
1.633073606062619
 30
0.0
  0
VERTEX
  5
244
  8
CATS
 10
3.558535187082465
 20
1.634733603077784
 30
0.0
  0
VERTEX
  5
245
  8
CATS
 10
3.571160382567729
 20
1.636022667380411
 30
0.0
  0
VERTEX
  5
246
  8
CATS
 10
3.583394099501901
 20
1.636961528215057
 30
0.0
  0
VERTEX
  5
247
  8
CATS
 10
3.606683007605384
 20
1.637871556458649
 30
0.0
  0
VERTEX
  5
248
  8
CATS
 10
3.628393731169749
 20
1.637629521765033
 30
0.0
  0
VERTEX
  5
249
  8
CATS
 10
3.648518089971831
 20
1.636401258090685
 30
0.0
  0
VERTEX
  5
24A
  8
CATS
 10
3.667047903788463
 20
1.634352599392076
 30
0.0
  0
VERTEX
  5
24B
  8
CATS
 10
3.68397499239648
 20
1.631649379625684
 30
0.0
  0
VERTEX
  5
24C
  8
CATS
 10
3.699291175572717
 20
1.62845743274798
 30
0.0
  0
VERTEX
  5
24D
  8
CATS
 10
3.712988273094009
 20
1.624942592715441
 30
0.0
  0
VERTEX
  5
24E
  8
CATS
 10
3.725058104737189
 20
1.621270693484539
 30
0.0
  0
VERTEX
  5
24F
  8
CATS
 10
3.735492490279093
 20
1.617607569011749
 30
0.0
  0
VERTEX
  5
250
  8
CATS
 10
3.744283249496554
 20
1.614119053253545
 30
0.0
  0
VERTEX
  5
251
  8
CATS
 10
3.756901168065487
 20
1.608329183706792
 30
0.0
  0
VERTEX
  5
252
  8
CATS
 10
3.762846418658666
 20
1.605227756496075
 30
0.0
  0
VERTEX
  5
253
  8
CATS
 10
3.777241374441751
 20
1.597323580287571
 30
0.0
  0
VERTEX
  5
254
  8
CATS
 10
3.791157493460599
 20
1.588611076216395
 30
0.0
  0
VERTEX
  5
255
  8
CATS
 10
3.804673051079984
 20
1.579235252834184
 30
0.0
  0
VERTEX
  5
256
  8
CATS
 10
3.817866322664681
 20
1.569341118692576
 30
0.0
  0
VERTEX
  5
257
  8
CATS
 10
3.84359910918911
 20
1.548577952337714
 30
0.0
  0
VERTEX
  5
258
  8
CATS
 10
3.868982055952084
 20
1.527481645564906
 30
0.0
  0
VERTEX
  5
259
  8
CATS
 10
3.910606484699883
 20
1.49300190290831
 30
0.0
  0
VERTEX
  5
25A
  8
CATS
 10
3.951949992498267
 20
1.458195217183444
 30
0.0
  0
VERTEX
  5
25B
  8
CATS
 10
3.993031412835802
 20
1.423083513143485
 30
0.0
  0
VERTEX
  5
25C
  8
CATS
 10
4.033869579201054
 20
1.387688715541615
 30
0.0
  0
VERTEX
  5
25D
  8
CATS
 10
4.074483325082594
 20
1.352032749131011
 30
0.0
  0
VERTEX
  5
25E
  8
CATS
 10
4.114891483968985
 20
1.316137538664854
 30
0.0
  0
VERTEX
  5
25F
  8
CATS
 10
4.195166374710596
 20
1.243717084578597
 30
0.0
  0
VERTEX
  5
260
  8
CATS
 10
4.274844919334429
 20
1.170602751308277
 30
0.0
  0
VERTEX
  5
261
  8
CATS
 10
4.354077785749018
 20
1.096969936879329
 30
0.0
  0
VERTEX
  5
262
  8
CATS
 10
4.511809155584627
 20
0.9488504566472884
 30
0.0
  0
VERTEX
  5
263
  8
CATS
 10
4.590608994822725
 20
0.8747145868950652
 30
0.0
  0
VERTEX
  5
264
  8
CATS
 10
4.669565827485735
 20
0.8007618280859531
 30
0.0
  0
VERTEX
  5
265
  8
CATS
 10
4.748830321482197
 20
0.7271675782453865
 30
0.0
  0
VERTEX
  5
266
  8
CATS
 10
4.828553144720647
 20
0.6541072353988001
 30
0.0
  0
VERTEX
  5
267
  8
CATS
 10
4.908884965109627
 20
0.5817561975716288
 30
0.0
  0
VERTEX
  5
268
  8
CATS
 10
4.949326332956983
 20
0.545901479923272
 30
0.0
  0
VERTEX
  5
269
  8
CATS
 10
4.989976450557673
 20
0.510289862789307
 30
0.0
  0
VERTEX
  5
26A
  8
CATS
 10
5.030854151400264
 20
0.4749432709229131
 30
0.0
  0
VERTEX
  5
26B
  8
CATS
 10
5.071978268973326
 20
0.4398836290772695
 30
0.0
  0
VERTEX
  5
26C
  8
CATS
 10
5.113367636765422
 20
0.4051328620055557
 30
0.0
  0
VERTEX
  5
26D
  8
CATS
 10
5.155041088265123
 20
0.370712894460951
 30
0.0
  0
VERTEX
  5
26E
  8
CATS
 10
5.167107175170059
 20
0.361553708352365
 30
0.0
  0
VERTEX
  5
26F
  8
CATS
 10
5.180270985217955
 20
0.3529211076116692
 30
0.0
  0
VERTEX
  5
270
  8
CATS
 10
5.194238770804738
 20
0.3450291934381543
 30
0.0
  0
VERTEX
  5
271
  8
CATS
 10
5.20871678432633
 20
0.3380920670311112
 30
0.0
  0
VERTEX
  5
272
  8
CATS
 10
5.216055330436406
 20
0.3350484558647949
 30
0.0
  0
VERTEX
  5
273
  8
CATS
 10
5.223411278178656
 20
0.3323238295898306
 30
0.0
  0
VERTEX
  5
274
  8
CATS
 10
5.23074790910257
 20
0.3299449508561297
 30
0.0
  0
VERTEX
  5
275
  8
CATS
 10
5.23802850475764
 20
0.3279385823136036
 30
0.0
  0
VERTEX
  5
276
  8
CATS
 10
5.245216346693356
 20
0.3263314866121634
 30
0.0
  0
VERTEX
  5
277
  8
CATS
 10
5.252274716459207
 20
0.3251504264017208
 30
0.0
  0
VERTEX
  5
278
  8
CATS
 10
5.259166895604684
 20
0.3244221643321868
 30
0.0
  0
VERTEX
  5
279
  8
CATS
 10
5.265856165679279
 20
0.3241734630534729
 30
0.0
  0
VERTEX
  5
27A
  8
CATS
 10
5.274128182418364
 20
0.3246692471599357
 30
0.0
  0
VERTEX
  5
27B
  8
CATS
 10
5.282021718616164
 20
0.3260779765112576
 30
0.0
  0
VERTEX
  5
27C
  8
CATS
 10
5.289515939458141
 20
0.3282817166553395
 30
0.0
  0
VERTEX
  5
27D
  8
CATS
 10
5.296590010129758
 20
0.3311625331400815
 30
0.0
  0
VERTEX
  5
27E
  8
CATS
 10
5.303223095816479
 20
0.3346024915133847
 30
0.0
  0
VERTEX
  5
27F
  8
CATS
 10
5.309394361703767
 20
0.3384836573231494
 30
0.0
  0
VERTEX
  5
280
  8
CATS
 10
5.315082972977086
 20
0.3426880961172764
 30
0.0
  0
VERTEX
  5
281
  8
CATS
 10
5.320268094821898
 20
0.347097873443666
 30
0.0
  0
VERTEX
  5
282
  8
CATS
 10
5.324928892423667
 20
0.3515950548502191
 30
0.0
  0
VERTEX
  5
283
  8
CATS
 10
5.329044530967858
 20
0.3560617058848362
 30
0.0
  0
VERTEX
  5
284
  8
CATS
 10
5.335556991625351
 20
0.3644316790298645
 30
0.0
  0
VERTEX
  5
285
  8
CATS
 10
5.339638798278086
 20
0.3712643172619558
 30
0.0
  0
VERTEX
  5
286
  8
CATS
 10
5.340716119316328
 20
0.3738092996554016
 30
0.0
  0
VERTEX
  5
287
  8
CATS
 10
5.341123272409769
 20
0.3756161449643148
 30
0.0
  0
VERTEX
  5
288
  8
CATS
 10
5.341123272409769
 20
1.567016839945473
 30
0.0
  0
VERTEX
  5
289
  8
CATS
 10
5.340298513126563
 20
1.57813977755298
 30
0.0
  0
VERTEX
  5
28A
  8
CATS
 10
5.339045457445815
 20
1.58816639018374
 30
0.0
  0
VERTEX
  5
28B
  8
CATS
 10
5.337391369394523
 20
1.59714395078672
 30
0.0
  0
VERTEX
  5
28C
  8
CATS
 10
5.335363512999686
 20
1.605119732310889
 30
0.0
  0
VERTEX
  5
28D
  8
CATS
 10
5.332989152288302
 20
1.612141007705213
 30
0.0
  0
VERTEX
  5
28E
  8
CATS
 10
5.33029555128737
 20
1.618255049918661
 30
0.0
  0
VERTEX
  5
28F
  8
CATS
 10
5.327309974023887
 20
1.6235091319002
 30
0.0
  0
VERTEX
  5
290
  8
CATS
 10
5.324059684524852
 20
1.627950526598796
 30
0.0
  0
VERTEX
  5
291
  8
CATS
 10
5.320571946817264
 20
1.631626506963419
 30
0.0
  0
VERTEX
  5
292
  8
CATS
 10
5.31687402492812
 20
1.634584345943034
 30
0.0
  0
VERTEX
  5
293
  8
CATS
 10
5.312993182884419
 20
1.63687131648661
 30
0.0
  0
VERTEX
  5
294
  8
CATS
 10
5.308956684713159
 20
1.638534691543114
 30
0.0
  0
VERTEX
  5
295
  8
CATS
 10
5.304791794441339
 20
1.639621744061514
 30
0.0
  0
VERTEX
  5
296
  8
CATS
 10
5.300525776095958
 20
1.640179746990778
 30
0.0
  0
VERTEX
  5
297
  8
CATS
 10
5.296185893704012
 20
1.640255973279871
 30
0.0
  0
VERTEX
  5
298
  8
CATS
 10
5.291799411292502
 20
1.639897695877763
 30
0.0
  0
VERTEX
  5
299
  8
CATS
 10
5.287393592888424
 20
1.639152187733421
 30
0.0
  0
VERTEX
  5
29A
  8
CATS
 10
5.282995702518777
 20
1.638066721795811
 30
0.0
  0
VERTEX
  5
29B
  8
CATS
 10
5.274332761990772
 20
1.635065008336663
 30
0.0
  0
VERTEX
  5
29C
  8
CATS
 10
5.266028701924471
 20
1.631270739092057
 30
0.0
  0
VERTEX
  5
29D
  8
CATS
 10
5.258301634535862
 20
1.627062097653733
 30
0.0
  0
VERTEX
  5
29E
  8
CATS
 10
5.245450926655666
 20
1.618914432562894
 30
0.0
  0
VERTEX
  5
29F
  8
CATS
 10
5.237525536078076
 20
1.613647481798065
 30
0.0
  0
VERTEX
  5
2A0
  8
CATS
 10
5.232680993267203
 20
1.610452794652938
 30
0.0
  0
VERTEX
  5
2A1
  8
CATS
 10
5.227918125686989
 20
1.606633045149829
 30
0.0
  0
VERTEX
  5
2A2
  8
CATS
 10
5.218688789129084
 20
1.597886982377104
 30
0.0
  0
VERTEX
  5
2A3
  8
CATS
 10
5.209940272225462
 20
1.588946540094769
 30
0.0
  0
VERTEX
  5
2A4
  8
CATS
 10
5.205778429213101
 20
1.584883816204647
 30
0.0
  0
VERTEX
  5
2A5
  8
CATS
 10
5.201775320797223
 20
1.581348964917701
 30
0.0
  0
VERTEX
  5
2A6
  8
CATS
 10
5.187636145860754
 20
1.570073848121314
 30
0.0
  0
VERTEX
  5
2A7
  8
CATS
 10
5.173101050245565
 20
1.559082272517287
 30
0.0
  0
VERTEX
  5
2A8
  8
CATS
 10
5.158190809509467
 20
1.54842221118731
 30
0.0
  0
VERTEX
  5
2A9
  8
CATS
 10
5.142926199210264
 20
1.538141637213072
 30
0.0
  0
VERTEX
  5
2AA
  8
CATS
 10
5.127327994905762
 20
1.528288523676265
 30
0.0
  0
VERTEX
  5
2AB
  8
CATS
 10
5.111416972153769
 20
1.518910843658579
 30
0.0
  0
VERTEX
  5
2AC
  8
CATS
 10
5.095213906512092
 20
1.510056570241703
 30
0.0
  0
VERTEX
  5
2AD
  8
CATS
 10
5.078739573538538
 20
1.501773676507329
 30
0.0
  0
VERTEX
  5
2AE
  8
CATS
 10
5.062014748790912
 20
1.494110135537146
 30
0.0
  0
VERTEX
  5
2AF
  8
CATS
 10
5.045060207827023
 20
1.487113920412845
 30
0.0
  0
VERTEX
  5
2B0
  8
CATS
 10
5.027896726204676
 20
1.480833004216116
 30
0.0
  0
VERTEX
  5
2B1
  8
CATS
 10
5.010545079481679
 20
1.47531536002865
 30
0.0
  0
VERTEX
  5
2B2
  8
CATS
 10
4.993026043215838
 20
1.470608960932136
 30
0.0
  0
VERTEX
  5
2B3
  8
CATS
 10
4.97536039296496
 20
1.466761780008266
 30
0.0
  0
VERTEX
  5
2B4
  8
CATS
 10
4.957568904286852
 20
1.463821790338728
 30
0.0
  0
VERTEX
  5
2B5
  8
CATS
 10
4.939672352739319
 20
1.461836965005214
 30
0.0
  0
VERTEX
  5
2B6
  8
CATS
 10
4.923051539837855
 20
1.4609168959607
 30
0.0
  0
VERTEX
  5
2B7
  8
CATS
 10
4.913434460854978
 20
1.460786251712188
 30
0.0
  0
VERTEX
  5
2B8
  8
CATS
 10
4.903001584324706
 20
1.46096155279889
 30
0.0
  0
VERTEX
  5
2B9
  8
CATS
 10
4.89179439835257
 20
1.461507563085344
 30
0.0
  0
VERTEX
  5
2BA
  8
CATS
 10
4.879854391044093
 20
1.462489046436088
 30
0.0
  0
VERTEX
  5
2BB
  8
CATS
 10
4.867223050504805
 20
1.463970766715661
 30
0.0
  0
VERTEX
  5
2BC
  8
CATS
 10
4.853941864840234
 20
1.466017487788601
 30
0.0
  0
VERTEX
  5
2BD
  8
CATS
 10
4.840052322155906
 20
1.468693973519446
 30
0.0
  0
VERTEX
  5
2BE
  8
CATS
 10
4.825595910557348
 20
1.472064987772734
 30
0.0
  0
VERTEX
  5
2BF
  8
CATS
 10
4.810614118150089
 20
1.476195294413004
 30
0.0
  0
VERTEX
  5
2C0
  8
CATS
 10
4.795148433039654
 20
1.481149657304794
 30
0.0
  0
VERTEX
  5
2C1
  8
CATS
 10
4.779240343331571
 20
1.486992840312643
 30
0.0
  0
VERTEX
  5
2C2
  8
CATS
 10
4.76293133713137
 20
1.493789607301087
 30
0.0
  0
VERTEX
  5
2C3
  8
CATS
 10
4.746262902544574
 20
1.501604722134667
 30
0.0
  0
VERTEX
  5
2C4
  8
CATS
 10
4.729276527676714
 20
1.51050294867792
 30
0.0
  0
VERTEX
  5
2C5
  8
CATS
 10
4.718288382502516
 20
1.516889239416901
 30
0.0
  0
VERTEX
  5
2C6
  8
CATS
 10
4.707558459913886
 20
1.523696240263317
 30
0.0
  0
VERTEX
  5
2C7
  8
CATS
 10
4.686679499674209
 20
1.538246047066964
 30
0.0
  0
VERTEX
  5
2C8
  8
CATS
 10
4.666252081319429
 20
1.553499718665892
 30
0.0
  0
VERTEX
  5
2C9
  8
CATS
 10
4.645888639211296
 20
1.568804604637132
 30
0.0
  0
VERTEX
  5
2CA
  8
CATS
 10
4.479108155906932
 20
1.692536904994195
 30
0.0
  0
VERTEX
  5
2CB
  8
CATS
 10
4.39593743437495
 20
1.754756821941659
 30
0.0
  0
VERTEX
  5
2CC
  8
CATS
 10
4.312968675346282
 20
1.817268473379351
 30
0.0
  0
VERTEX
  5
2CD
  8
CATS
 10
4.230243590638304
 20
1.880113776790474
 30
0.0
  0
VERTEX
  5
2CE
  8
CATS
 10
4.147803892068402
 20
1.943334649658234
 30
0.0
  0
VERTEX
  5
2CF
  8
CATS
 10
4.065691291453956
 20
2.006973009465835
 30
0.0
  0
VERTEX
  5
2D0
  8
CATS
 10
3.983947500612348
 20
2.071070773696481
 30
0.0
  0
VERTEX
  5
2D1
  8
CATS
 10
3.90261423136096
 20
2.135669859833377
 30
0.0
  0
VERTEX
  5
2D2
  8
CATS
 10
3.821733195517176
 20
2.200812185359726
 30
0.0
  0
VERTEX
  5
2D3
  8
CATS
 10
3.741346104898376
 20
2.266539667758734
 30
0.0
  0
VERTEX
  5
2D4
  8
CATS
 10
3.661494671321943
 20
2.332894224513605
 30
0.0
  0
VERTEX
  5
2D5
  8
CATS
 10
3.582220606605258
 20
2.399917773107543
 30
0.0
  0
VERTEX
  5
2D6
  8
CATS
 10
3.503565622565704
 20
2.467652231023752
 30
0.0
  0
VERTEX
  5
2D7
  8
CATS
 10
3.425571431020662
 20
2.536139515745438
 30
0.0
  0
VERTEX
  5
2D8
  8
CATS
 10
3.348279743787516
 20
2.605421544755804
 30
0.0
  0
VERTEX
  5
2D9
  8
CATS
 10
3.271820056368187
 20
2.675421659426593
 30
0.0
  0
VERTEX
  5
2DA
  8
CATS
 10
3.196088417425949
 20
2.746238842049615
 30
0.0
  0
VERTEX
  5
2DB
  8
CATS
 10
3.121112634113425
 20
2.817873823881084
 30
0.0
  0
VERTEX
  5
2DC
  8
CATS
 10
3.04692051358323
 20
2.890327336177213
 30
0.0
  0
VERTEX
  5
2DD
  8
CATS
 10
2.973539862987986
 20
2.963600110194217
 30
0.0
  0
VERTEX
  5
2DE
  8
CATS
 10
2.90099848948031
 20
3.037692877188308
 30
0.0
  0
VERTEX
  5
2DF
  8
CATS
 10
2.865051221369504
 20
3.075046986569329
 30
0.0
  0
VERTEX
  5
2E0
  8
CATS
 10
2.829324200212823
 20
3.112606368415703
 30
0.0
  0
VERTEX
  5
2E1
  8
CATS
 10
2.793820901904343
 20
3.150371114134455
 30
0.0
  0
VERTEX
  5
2E2
  8
CATS
 10
2.758544802338143
 20
3.188341315132613
 30
0.0
  0
VERTEX
  5
2E3
  8
CATS
 10
2.756587689937984
 20
3.190673204192506
 30
0.0
  0
VERTEX
  5
2E4
  8
CATS
 10
2.751726431303513
 20
3.196021622901794
 30
0.0
  0
VERTEX
  5
2E5
  8
CATS
 10
2.743587998846543
 20
3.20396019631354
 30
0.0
  0
VERTEX
  5
2E6
  8
CATS
 10
2.731799364978886
 20
3.214062549480808
 30
0.0
  0
VERTEX
  5
2E7
  8
CATS
 10
2.717832543014843
 20
3.225406379411169
 30
0.0
  0
VERTEX
  5
2E8
  8
CATS
 10
2.703968609814975
 20
3.237053996266438
 30
0.0
  0
VERTEX
  5
2E9
  8
CATS
 10
2.690388074372732
 20
3.249086473700281
 30
0.0
  0
VERTEX
  5
2EA
  8
CATS
 10
2.677271445681565
 20
3.261584885366364
 30
0.0
  0
VERTEX
  5
2EB
  8
CATS
 10
2.664799232734921
 20
3.274630304918351
 30
0.0
  0
VERTEX
  5
2EC
  8
CATS
 10
2.653151944526252
 20
3.288303806009907
 30
0.0
  0
VERTEX
  5
2ED
  8
CATS
 10
2.647694056259111
 20
3.295401422649795
 30
0.0
  0
VERTEX
  5
2EE
  8
CATS
 10
2.642510090049006
 20
3.302686462294699
 30
0.0
  0
VERTEX
  5
2EF
  8
CATS
 10
2.637622609520121
 20
3.310169059151328
 30
0.0
  0
VERTEX
  5
2F0
  8
CATS
 10
2.633054178296635
 20
3.317859347426392
 30
0.0
  0
VERTEX
  5
2F1
  8
CATS
 10
2.626794996405282
 20
3.329635130227755
 30
0.0
  0
VERTEX
  5
2F2
  8
CATS
 10
2.621121791266506
 20
3.341691353616712
 30
0.0
  0
VERTEX
  5
2F3
  8
CATS
 10
2.616001702575096
 20
3.354003099305184
 30
0.0
  0
VERTEX
  5
2F4
  8
CATS
 10
2.61140187002584
 20
3.366545449005093
 30
0.0
  0
VERTEX
  5
2F5
  8
CATS
 10
2.607289433313526
 20
3.379293484428364
 30
0.0
  0
VERTEX
  5
2F6
  8
CATS
 10
2.603631532132944
 20
3.392222287286919
 30
0.0
  0
VERTEX
  5
2F7
  8
CATS
 10
2.600395306178881
 20
3.40530693929268
 30
0.0
  0
VERTEX
  5
2F8
  8
CATS
 10
2.597547895146127
 20
3.418522522157569
 30
0.0
  0
VERTEX
  5
2F9
  8
CATS
 10
2.595056438729471
 20
3.431844117593509
 30
0.0
  0
VERTEX
  5
2FA
  8
CATS
 10
2.592888076623701
 20
3.445246807312424
 30
0.0
  0
VERTEX
  5
2FB
  8
CATS
 10
2.589389194123975
 20
3.472195796446868
 30
0.0
  0
VERTEX
  5
2FC
  8
CATS
 10
2.586788365205257
 20
3.499170143256279
 30
0.0
  0
VERTEX
  5
2FD
  8
CATS
 10
2.584822707425856
 20
3.525970501436041
 30
0.0
  0
VERTEX
  5
2FE
  8
CATS
 10
2.583256105359946
 20
3.554682390846092
 30
0.0
  0
VERTEX
  5
2FF
  8
CATS
 10
2.582238161217662
 20
3.583423346853958
 30
0.0
  0
VERTEX
  5
300
  8
CATS
 10
2.58168479356237
 20
3.612179503549008
 30
0.0
  0
VERTEX
  5
301
  8
CATS
 10
2.581511920957437
 20
3.640936995020613
 30
0.0
  0
SEQEND
  5
3CF
  8
CATS
  0
POLYLINE
  5
71
  8
CATS
 66
     1
 10
0.0
 20
0.0
 30
0.0
 70
     1
  0
VERTEX
  5
302
  8
CATS
 10
0.9210007461902243
 20
3.825443137995958
 30
0.0
  0
VERTEX
  5
303
  8
CATS
 10
0.9243972723511149
 20
3.82650463041241
 30
0.0
  0
VERTEX
  5
304
  8
CATS
 10
0.9276759858035369
 20
3.828205973073014
 30
0.0
  0
VERTEX
  5
305
  8
CATS
 10
0.9307500778514792
 20
3.830436072966691
 30
0.0
  0
VERTEX
  5
306
  8
CATS
 10
0.9335327397989308
 20
3.833083837082361
 30
0.0
  0
VERTEX
  5
307
  8
CATS
 10
0.9359371629498806
 20
3.836038172408946
 30
0.0
  0
VERTEX
  5
308
  8
CATS
 10
0.9378765386083177
 20
3.839187985935368
 30
0.0
  0
VERTEX
  5
309
  8
CATS
 10
0.9392640580782307
 20
3.842422184650547
 30
0.0
  0
VERTEX
  5
30A
  8
CATS
 10
0.9400129126636088
 20
3.845629675543407
 30
0.0
  0
VERTEX
  5
30B
  8
CATS
 10
0.9420351029822058
 20
3.857294057305221
 30
0.0
  0
VERTEX
  5
30C
  8
CATS
 10
0.9450234558752945
 20
3.868639973103371
 30
0.0
  0
VERTEX
  5
30D
  8
CATS
 10
0.9488444812858814
 20
3.879534688015421
 30
0.0
  0
VERTEX
  5
30E
  8
CATS
 10
0.9533646891569739
 20
3.889845467118934
 30
0.0
  0
VERTEX
  5
30F
  8
CATS
 10
0.9584505894315789
 20
3.899439575491473
 30
0.0
  0
VERTEX
  5
310
  8
CATS
 10
0.9639686920527033
 20
3.908184278210602
 30
0.0
  0
VERTEX
  5
311
  8
CATS
 10
0.9697855069633542
 20
3.915946840353882
 30
0.0
  0
VERTEX
  5
312
  8
CATS
 10
0.9757675441065387
 20
3.922594526998878
 30
0.0
  0
VERTEX
  5
313
  8
CATS
 10
0.9818651886918337
 20
3.927312435296169
 30
0.0
  0
VERTEX
  5
314
  8
CATS
 10
0.9855585386652405
 20
3.931162849247897
 30
0.0
  0
VERTEX
  5
315
  8
CATS
 10
0.9865776050867013
 20
3.932791635721277
 30
0.0
  0
VERTEX
  5
316
  8
CATS
 10
0.987084400152249
 20
3.934238216460789
 30
0.0
  0
VERTEX
  5
317
  8
CATS
 10
0.9871085246275696
 20
3.935514147417274
 30
0.0
  0
VERTEX
  5
318
  8
CATS
 10
0.9866795792783496
 20
3.936630984541574
 30
0.0
  0
VERTEX
  5
319
  8
CATS
 10
0.985827164870275
 20
3.937600283784529
 30
0.0
  0
VERTEX
  5
31A
  8
CATS
 10
0.9845808821690321
 20
3.93843360109698
 30
0.0
  0
VERTEX
  5
31B
  8
CATS
 10
0.9810251149497866
 20
3.939738513733733
 30
0.0
  0
VERTEX
  5
31C
  8
CATS
 10
0.9762490837461033
 20
3.940638170058563
 30
0.0
  0
VERTEX
  5
31D
  8
CATS
 10
0.9704895946834722
 20
3.941225017678197
 30
0.0
  0
VERTEX
  5
31E
  8
CATS
 10
0.9481767915644458
 20
3.941112565073858
 30
0.0
  0
VERTEX
  5
31F
  8
CATS
 10
0.9252086630150806
 20
3.941964948692727
 30
0.0
  0
VERTEX
  5
320
  8
CATS
 10
0.9026454701966773
 20
3.943181250296125
 30
0.0
  0
VERTEX
  5
321
  8
CATS
 10
0.8815474742705359
 20
3.944160551645373
 30
0.0
  0
VERTEX
  5
322
  8
CATS
 10
0.8735369732903585
 20
3.939706571689255
 30
0.0
  0
VERTEX
  5
323
  8
CATS
 10
0.8668827249858936
 20
3.934855793517775
 30
0.0
  0
VERTEX
  5
324
  8
CATS
 10
0.861610420841733
 20
3.929680256777264
 30
0.0
  0
VERTEX
  5
325
  8
CATS
 10
0.8595005264187017
 20
3.9269932163331
 30
0.0
  0
VERTEX
  5
326
  8
CATS
 10
0.8577457523424682
 20
3.924252001114052
 30
0.0
  0
VERTEX
  5
327
  8
CATS
 10
0.8563493100486067
 20
3.921465616075912
 30
0.0
  0
VERTEX
  5
328
  8
CATS
 10
0.8553144109726909
 20
3.918643066174471
 30
0.0
  0
VERTEX
  5
329
  8
CATS
 10
0.8546442665502949
 20
3.91579335636552
 30
0.0
  0
VERTEX
  5
32A
  8
CATS
 10
0.8543420882169928
 20
3.912925491604851
 30
0.0
  0
VERTEX
  5
32B
  8
CATS
 10
0.8544110874083584
 20
3.910048476848255
 30
0.0
  0
VERTEX
  5
32C
  8
CATS
 10
0.8548544755599655
 20
3.907171317051524
 30
0.0
  0
VERTEX
  5
32D
  8
CATS
 10
0.8556754641073883
 20
3.904303017170448
 30
0.0
  0
VERTEX
  5
32E
  8
CATS
 10
0.8568772644862007
 20
3.901452582160819
 30
0.0
  0
VERTEX
  5
32F
  8
CATS
 10
0.8597415150307922
 20
3.897210420971795
 30
0.0
  0
VERTEX
  5
330
  8
CATS
 10
0.8626875489263017
 20
3.893537902195952
 30
0.0
  0
VERTEX
  5
331
  8
CATS
 10
0.8657057441339047
 20
3.890371465582231
 30
0.0
  0
VERTEX
  5
332
  8
CATS
 10
0.8687864786147763
 20
3.887647550879572
 30
0.0
  0
VERTEX
  5
333
  8
CATS
 10
0.875097077241027
 20
3.8832730462032
 30
0.0
  0
VERTEX
  5
334
  8
CATS
 10
0.8815423684944567
 20
3.879905906158357
 30
0.0
  0
VERTEX
  5
335
  8
CATS
 10
0.8880453760644682
 20
3.877037648736565
 30
0.0
  0
VERTEX
  5
336
  8
CATS
 10
0.8945291236404643
 20
3.874159791929345
 30
0.0
  0
VERTEX
  5
337
  8
CATS
 10
0.900916634911848
 20
3.870763853728219
 30
0.0
  0
VERTEX
  5
338
  8
CATS
 10
0.9040502468362485
 20
3.868712703477291
 30
0.0
  0
VERTEX
  5
339
  8
CATS
 10
0.9071309335680218
 20
3.866341352124706
 30
0.0
  0
VERTEX
  5
33A
  8
CATS
 10
0.9091006291229773
 20
3.863925794387171
 30
0.0
  0
VERTEX
  5
33B
  8
CATS
 10
0.9105872439563728
 20
3.861355648060337
 30
0.0
  0
VERTEX
  5
33C
  8
CATS
 10
0.9116627858723693
 20
3.85866002268061
 30
0.0
  0
VERTEX
  5
33D
  8
CATS
 10
0.9123992626751276
 20
3.855868027784396
 30
0.0
  0
VERTEX
  5
33E
  8
CATS
 10
0.9131430521575732
 20
3.850111367588136
 30
0.0
  0
VERTEX
  5
33F
  8
CATS
 10
0.9133946748369972
 20
3.844318543762812
 30
0.0
  0
VERTEX
  5
340
  8
CATS
 10
0.913730193146687
 20
3.838722432599678
 30
0.0
  0
VERTEX
  5
341
  8
CATS
 10
0.9147256695199297
 20
3.833555910389988
 30
0.0
  0
VERTEX
  5
342
  8
CATS
 10
0.9156509114907859
 20
3.831206518983701
 30
0.0
  0
VERTEX
  5
343
  8
CATS
 10
0.9169571663900131
 20
3.829051853424996
 30
0.0
  0
VERTEX
  5
344
  8
CATS
 10
0.9187164420217724
 20
3.82712102325028
 30
0.0
  0
SEQEND
  5
3D0
  8
CATS
  0
POLYLINE
  5
72
  8
CATS
 66
     1
 10
0.0
 20
0.0
 30
0.0
  0
VERTEX
  5
345
  8
CATS
 10
1.32904421526638
 20
3.571130003683031
 30
0.0
  0
VERTEX
  5
346
  8
CATS
 10
1.322625965889703
 20
3.576218568418319
 30
0.0
  0
VERTEX
  5
347
  8
CATS
 10
1.31575178395317
 20
3.582223004561024
 30
0.0
  0
VERTEX
  5
348
  8
CATS
 10
1.300718600063969
 20
3.596789104054889
 30
0.0
  0
VERTEX
  5
349
  8
CATS
 10
1.284110618925641
 20
3.614447528137015
 30
0.0
  0
VERTEX
  5
34A
  8
CATS
 10
1.266093795865052
 20
3.634817502779794
 30
0.0
  0
VERTEX
  5
34B
  8
CATS
 10
1.246834086209069
 20
3.657518253955617
 30
0.0
  0
VERTEX
  5
34C
  8
CATS
 10
1.226497445284558
 20
3.682169007636873
 30
0.0
  0
VERTEX
  5
34D
  8
CATS
 10
1.183257190937417
 20
3.735797426405253
 30
0.0
  0
VERTEX
  5
34E
  8
CATS
 10
1.137700675438556
 20
3.792656566864061
 30
0.0
  0
VERTEX
  5
34F
  8
CATS
 10
1.114468708074397
 20
3.821345722658351
 30
0.0
  0
VERTEX
  5
350
  8
CATS
 10
1.091155541402907
 20
3.849700236792422
 30
0.0
  0
VERTEX
  5
351
  8
CATS
 10
1.067927130750951
 20
3.877339335238663
 30
0.0
  0
VERTEX
  5
352
  8
CATS
 10
1.044949431445397
 20
3.903882243969464
 30
0.0
  0
VERTEX
  5
353
  8
CATS
 10
1.02238839881311
 20
3.928948188957219
 30
0.0
  0
VERTEX
  5
354
  8
CATS
 10
1.000409988180956
 20
3.952156396174316
 30
0.0
  0
SEQEND
  5
3D1
  8
CATS
  0
POLYLINE
  5
73
  8
CATS
 66
     1
 10
0.0
 20
0.0
 30
0.0
  0
VERTEX
  5
355
  8
CATS
 10
1.387814160600159
 20
3.655098916904093
 30
0.0
  0
VERTEX
  5
356
  8
CATS
 10
1.379182199142207
 20
3.658955366273919
 30
0.0
  0
VERTEX
  5
357
  8
CATS
 10
1.370134412281735
 20
3.663505951969118
 30
0.0
  0
VERTEX
  5
358
  8
CATS
 10
1.360691108020812
 20
3.668717055496125
 30
0.0
  0
VERTEX
  5
359
  8
CATS
 10
1.350872594361507
 20
3.67455505836138
 30
0.0
  0
VERTEX
  5
35A
  8
CATS
 10
1.330191170856035
 20
3.687977288132378
 30
0.0
  0
VERTEX
  5
35B
  8
CATS
 10
1.308252605781876
 20
3.703503693333611
 30
0.0
  0
VERTEX
  5
35C
  8
CATS
 10
1.285219363155588
 20
3.720865326016574
 30
0.0
  0
VERTEX
  5
35D
  8
CATS
 10
1.261253906993729
 20
3.739793238232765
 30
0.0
  0
VERTEX
  5
35E
  8
CATS
 10
1.236518701312859
 20
3.760018482033681
 30
0.0
  0
VERTEX
  5
35F
  8
CATS
 10
1.211176210129535
 20
3.781272109470823
 30
0.0
  0
VERTEX
  5
360
  8
CATS
 10
1.159319227321757
 20
3.825788723459765
 30
0.0
  0
VERTEX
  5
361
  8
CATS
 10
1.106982670702862
 20
3.871191496611574
 30
0.0
  0
VERTEX
  5
362
  8
CATS
 10
1.055466252405314
 20
3.915328845338228
 30
0.0
  0
VERTEX
  5
363
  8
CATS
 10
1.030421755168442
 20
3.936250615670867
 30
0.0
  0
VERTEX
  5
364
  8
CATS
 10
1.006069684561581
 20
3.956049186051709
 30
0.0
  0
SEQEND
  5
3D2
  8
CATS
  0
POLYLINE
  5
74
  8
CATS
 66
     1
 10
0.0
 20
0.0
 30
0.0
  0
VERTEX
  5
365
  8
CATS
 10
1.461559960662726
 20
3.766620492865516
 30
0.0
  0
VERTEX
  5
366
  8
CATS
 10
1.450310481800736
 20
3.766383860631724
 30
0.0
  0
VERTEX
  5
367
  8
CATS
 10
1.438640882871939
 20
3.766862690463091
 30
0.0
  0
VERTEX
  5
368
  8
CATS
 10
1.426574626720852
 20
3.768025967598831
 30
0.0
  0
VERTEX
  5
369
  8
CATS
 10
1.414135176191997
 20
3.769842677278157
 30
0.0
  0
VERTEX
  5
36A
  8
CATS
 10
1.401345994129894
 20
3.772281804740284
 30
0.0
  0
VERTEX
  5
36B
  8
CATS
 10
1.388230543379062
 20
3.775312335224426
 30
0.0
  0
VERTEX
  5
36C
  8
CATS
 10
1.374812286784021
 20
3.778903253969795
 30
0.0
  0
VERTEX
  5
36D
  8
CATS
 10
1.361114687189291
 20
3.783023546215608
 30
0.0
  0
VERTEX
  5
36E
  8
CATS
 10
1.347161207439393
 20
3.787642197201077
 30
0.0
  0
VERTEX
  5
36F
  8
CATS
 10
1.332975310378847
 20
3.792728192165415
 30
0.0
  0
VERTEX
  5
370
  8
CATS
 10
1.318580458852172
 20
3.798250516347839
 30
0.0
  0
VERTEX
  5
371
  8
CATS
 10
1.304000115703888
 20
3.80417815498756
 30
0.0
  0
VERTEX
  5
372
  8
CATS
 10
1.274376805920574
 20
3.81712531659575
 30
0.0
  0
VERTEX
  5
373
  8
CATS
 10
1.244293083785066
 20
3.8313215589037
 30
0.0
  0
VERTEX
  5
374
  8
CATS
 10
1.213936652053524
 20
3.84651876382512
 30
0.0
  0
VERTEX
  5
375
  8
CATS
 10
1.183495213482107
 20
3.86246881327372
 30
0.0
  0
VERTEX
  5
376
  8
CATS
 10
1.153156470826976
 20
3.878923589163212
 30
0.0
  0
VERTEX
  5
377
  8
CATS
 10
1.123108126844291
 20
3.895634973407308
 30
0.0
  0
VERTEX
  5
378
  8
CATS
 10
1.064633445920897
 20
3.928835094614153
 30
0.0
  0
VERTEX
  5
379
  8
CATS
 10
1.009572792761207
 20
3.960084232203946
 30
0.0
  0
SEQEND
  5
3D3
  8
CATS
  0
POLYLINE
  5
75
  8
CATS
 66
     1
 10
0.0
 20
0.0
 30
0.0
 70
     1
  0
VERTEX
  5
37A
  8
CATS
 10
1.014140266477891
 20
3.442464403758384
 30
0.0
  0
VERTEX
  5
37B
  8
CATS
 10
1.00838369528649
 20
3.45040335839329
 30
0.0
  0
VERTEX
  5
37C
  8
CATS
 10
1.003383006085008
 20
3.458280281933861
 30
0.0
  0
VERTEX
  5
37D
  8
CATS
 10
0.9990906176875151
 20
3.466061047785289
 30
0.0
  0
VERTEX
  5
37E
  8
CATS
 10
0.995458948908082
 20
3.473711529352766
 30
0.0
  0
VERTEX
  5
37F
  8
CATS
 10
0.9924404185607791
 20
3.481197600041485
 30
0.0
  0
VERTEX
  5
380
  8
CATS
 10
0.9899874454596767
 20
3.488485133256639
 30
0.0
  0
VERTEX
  5
381
  8
CATS
 10
0.9880524484188451
 20
3.49554000240342
 30
0.0
  0
VERTEX
  5
382
  8
CATS
 10
0.986587846252355
 20
3.502328080887021
 30
0.0
  0
VERTEX
  5
383
  8
CATS
 10
0.9855460577742765
 20
3.508815242112634
 30
0.0
  0
VERTEX
  5
384
  8
CATS
 10
0.98487950179868
 20
3.514967359485451
 30
0.0
  0
VERTEX
  5
385
  8
CATS
 10
0.9844817626112151
 20
3.52612995629347
 30
0.0
  0
VERTEX
  5
386
  8
CATS
 10
0.9850139792025233
 20
3.535542858552618
 30
0.0
  0
VERTEX
  5
387
  8
CATS
 10
0.9860955020851678
 20
3.542933053504437
 30
0.0
  0
VERTEX
  5
388
  8
CATS
 10
0.988201194551443
 20
3.551499669325516
 30
0.0
  0
VERTEX
  5
389
  8
CATS
 10
0.9909632601725682
 20
3.559305888224311
 30
0.0
  0
VERTEX
  5
38A
  8
CATS
 10
0.9943029516247353
 20
3.566384319908967
 30
0.0
  0
VERTEX
  5
38B
  8
CATS
 10
0.9981415215841363
 20
3.572767574087627
 30
0.0
  0
VERTEX
  5
38C
  8
CATS
 10
1.002400222726963
 20
3.578488260468434
 30
0.0
  0
VERTEX
  5
38D
  8
CATS
 10
1.007000307729408
 20
3.583578988759534
 30
0.0
  0
VERTEX
  5
38E
  8
CATS
 10
1.011863029267662
 20
3.588072368669069
 30
0.0
  0
VERTEX
  5
38F
  8
CATS
 10
1.016909640017918
 20
3.592001009905182
 30
0.0
  0
VERTEX
  5
390
  8
CATS
 10
1.022061392656368
 20
3.595397522176019
 30
0.0
  0
VERTEX
  5
391
  8
CATS
 10
1.027239539859203
 20
3.598294515189723
 30
0.0
  0
VERTEX
  5
392
  8
CATS
 10
1.032365334302616
 20
3.600724598654437
 30
0.0
  0
VERTEX
  5
393
  8
CATS
 10
1.037360028662798
 20
3.602720382278305
 30
0.0
  0
VERTEX
  5
394
  8
CATS
 10
1.046641127838238
 20
3.60553948883608
 30
0.0
  0
VERTEX
  5
395
  8
CATS
 10
1.05445285879506
 20
3.607012712528197
 30
0.0
  0
VERTEX
  5
396
  8
CATS
 10
1.062752349027388
 20
3.607724555111854
 30
0.0
  0
VERTEX
  5
397
  8
CATS
 10
1.070882512742526
 20
3.607740543681038
 30
0.0
  0
VERTEX
  5
398
  8
CATS
 10
1.07881830846974
 20
3.607127898251263
 30
0.0
  0
VERTEX
  5
399
  8
CATS
 10
1.086534694738295
 20
3.605953838838047
 30
0.0
  0
VERTEX
  5
39A
  8
CATS
 10
1.094006630077461
 20
3.604285585456903
 30
0.0
  0
VERTEX
  5
39B
  8
CATS
 10
1.101209073016503
 20
3.602190358123348
 30
0.0
  0
VERTEX
  5
39C
  8
CATS
 10
1.108116982084687
 20
3.599735376852895
 30
0.0
  0
VERTEX
  5
39D
  8
CATS
 10
1.114705315811281
 20
3.596987861661062
 30
0.0
  0
VERTEX
  5
39E
  8
CATS
 10
1.126823091356766
 20
3.590884109575311
 30
0.0
  0
VERTEX
  5
39F
  8
CATS
 10
1.137362067887091
 20
3.584416861990219
 30
0.0
  0
VERTEX
  5
3A0
  8
CATS
 10
1.146121913636392
 20
3.578123879029906
 30
0.0
  0
VERTEX
  5
3A1
  8
CATS
 10
1.152902296838801
 20
3.572542920818496
 30
0.0
  0
VERTEX
  5
3A2
  8
CATS
 10
1.160780199604469
 20
3.565104183783674
 30
0.0
  0
VERTEX
  5
3A3
  8
CATS
 10
1.167817132787026
 20
3.557483629720032
 30
0.0
  0
VERTEX
  5
3A4
  8
CATS
 10
1.174057490768075
 20
3.5497401022793
 30
0.0
  0
VERTEX
  5
3A5
  8
CATS
 10
1.179545667929218
 20
3.541932445113213
 30
0.0
  0
VERTEX
  5
3A6
  8
CATS
 10
1.18432605865206
 20
3.534119501873501
 30
0.0
  0
VERTEX
  5
3A7
  8
CATS
 10
1.188443057318202
 20
3.526360116211895
 30
0.0
  0
VERTEX
  5
3A8
  8
CATS
 10
1.191941058309248
 20
3.518713131780129
 30
0.0
  0
VERTEX
  5
3A9
  8
CATS
 10
1.194864456006802
 20
3.511237392229933
 30
0.0
  0
VERTEX
  5
3AA
  8
CATS
 10
1.197257644792464
 20
3.50399174121304
 30
0.0
  0
VERTEX
  5
3AB
  8
CATS
 10
1.19916501904784
 20
3.49703502238118
 30
0.0
  0
VERTEX
  5
3AC
  8
CATS
 10
1.20169990149414
 20
3.484223755879492
 30
0.0
  0
VERTEX
  5
3AD
  8
CATS
 10
1.202824258398527
 20
3.473274341938722
 30
0.0
  0
VERTEX
  5
3AE
  8
CATS
 10
1.202893244813823
 20
3.464657529772725
 30
0.0
  0
VERTEX
  5
3AF
  8
CATS
 10
1.202057694935163
 20
3.455557323989884
 30
0.0
  0
VERTEX
  5
3B0
  8
CATS
 10
1.200486496811992
 20
3.447145253867286
 30
0.0
  0
VERTEX
  5
3B1
  8
CATS
 10
1.198259799614217
 20
3.439399043761663
 30
0.0
  0
VERTEX
  5
3B2
  8
CATS
 10
1.195457752511741
 20
3.432296418029753
 30
0.0
  0
VERTEX
  5
3B3
  8
CATS
 10
1.192160504674469
 20
3.425815101028287
 30
0.0
  0
VERTEX
  5
3B4
  8
CATS
 10
1.188448205272306
 20
3.419932817113999
 30
0.0
  0
VERTEX
  5
3B5
  8
CATS
 10
1.184401003475155
 20
3.414627290643625
 30
0.0
  0
VERTEX
  5
3B6
  8
CATS
 10
1.180099048452921
 20
3.4098762459739
 30
0.0
  0
VERTEX
  5
3B7
  8
CATS
 10
1.17562248937551
 20
3.405657407461557
 30
0.0
  0
VERTEX
  5
3B8
  8
CATS
 10
1.171051475412824
 20
3.401948499463329
 30
0.0
  0
VERTEX
  5
3B9
  8
CATS
 10
1.166466155734769
 20
3.398727246335953
 30
0.0
  0
VERTEX
  5
3BA
  8
CATS
 10
1.161946679511249
 20
3.39597137243616
 30
0.0
  0
VERTEX
  5
3BB
  8
CATS
 10
1.153425854107434
 20
3.391766659746268
 30
0.0
  0
VERTEX
  5
3BC
  8
CATS
 10
1.146130192560612
 20
3.389156156247526
 30
0.0
  0
VERTEX
  5
3BD
  8
CATS
 10
1.138216386084134
 20
3.387254958143293
 30
0.0
  0
VERTEX
  5
3BE
  8
CATS
 10
1.130369625758213
 20
3.386101855663186
 30
0.0
  0
VERTEX
  5
3BF
  8
CATS
 10
1.122623561122826
 20
3.385630351235738
 30
0.0
  0
VERTEX
  5
3C0
  8
CATS
 10
1.115011841717951
 20
3.385773947289488
 30
0.0
  0
VERTEX
  5
3C1
  8
CATS
 10
1.107568117083565
 20
3.386466146252969
 30
0.0
  0
VERTEX
  5
3C2
  8
CATS
 10
1.100326036759645
 20
3.387640450554717
 30
0.0
  0
VERTEX
  5
3C3
  8
CATS
 10
1.093319250286169
 20
3.389230362623268
 30
0.0
  0
VERTEX
  5
3C4
  8
CATS
 10
1.086581407203114
 20
3.391169384887156
 30
0.0
  0
VERTEX
  5
3C5
  8
CATS
 10
1.080146157050457
 20
3.393391019774917
 30
0.0
  0
VERTEX
  5
3C6
  8
CATS
 10
1.074047149368176
 20
3.395828769715088
 30
0.0
  0
VERTEX
  5
3C7
  8
CATS
 10
1.062992459574651
 20
3.401086624466797
 30
0.0
  0
VERTEX
  5
3C8
  8
CATS
 10
1.053686534142358
 20
3.406410968570566
 30
0.0
  0
VERTEX
  5
3C9
  8
CATS
 10
1.046398569391115
 20
3.411269821454679
 30
0.0
  0
VERTEX
  5
3CA
  8
CATS
 10
1.037574607320052
 20
3.418125317986232
 30
0.0
  0
VERTEX
  5
3CB
  8
CATS
 10
1.029187975503933
 20
3.425675704904892
 30
0.0
  0
VERTEX
  5
3CC
  8
CATS
 10
1.0213420649031
 20
3.433821795674372
 30
0.0
  0
SEQEND
  5
3D4
  8
CATS
  0
ENDSEC
  0
EOF
