<?xml version="1.0" encoding="UTF-8"?>
<!-- Created by Vectric (http://www.vectric.com/) -->
<svg width="8.11140795in" height="16.49259038in" viewBox="0 0 8.11140795 16.49259038" id="svg2" version="1.1" xmlns="http://www.w3.org/2000/svg" xmlns:xlink="http://www.w3.org/1999/xlink" xmlns:inkscape="http://www.inkscape.org/namespaces/inkscape">
    <g inkscape:groupmode="layer" id="85667243-1302-4a85-b3ac-c7bf39b332ec" inkscape:label="Toolpath Previews"/>
    <g inkscape:groupmode="layer" id="ebea79f9-f16d-4532-bb38-027ad9573fba" inkscape:label="Cat">
        <path style="fill:none;stroke-width:0.010000;stroke-linecap:round;stroke-linejoin:round;stroke-opacity:1;stroke:#000000;" d="M 1.643239,12.838089 C 1.651721,12.835220 1.658941,12.824760 1.658964,12.816614 C 1.659049,12.786222 1.670542,12.756331 1.683929,12.739077 C 1.701040,12.723588 1.692524,12.721181 1.676701,12.721954 C 1.649352,12.726371 1.617152,12.727352 1.591632,12.729665 C 1.570916,12.743149 1.564311,12.759719 1.573178,12.773261 C 1.590371,12.794590 1.608087,12.789724 1.625195,12.800770 C 1.638018,12.811191 1.629207,12.831876 1.643239,12.838089 "/>
        <path style="fill:none;stroke-width:0.010000;stroke-linecap:round;stroke-linejoin:round;stroke-opacity:1;stroke:#000000;" d="M 2.084793,13.032128 C 2.016151,12.993032 1.850590,12.806916 1.726736,12.708006 "/>
        <path style="fill:none;stroke-width:0.010000;stroke-linecap:round;stroke-linejoin:round;stroke-opacity:1;stroke:#000000;" d="M 2.130854,12.945200 C 2.040921,12.920264 1.865413,12.785811 1.731667,12.703629 "/>
        <path style="fill:none;stroke-width:0.010000;stroke-linecap:round;stroke-linejoin:round;stroke-opacity:1;stroke:#000000;" d="M 2.187925,12.830257 C 2.076600,12.850303 1.878111,12.757939 1.734527,12.699372 "/>
        <path style="fill:none;stroke-width:0.010000;stroke-linecap:round;stroke-linejoin:round;stroke-opacity:1;stroke:#000000;" d="M 3.127147,12.075558 C 3.068417,12.052963 3.016774,12.027308 2.971407,12.003316 C 2.892277,11.961469 2.835841,11.919810 2.809729,11.900449 C 2.765577,11.867713 2.725066,11.832212 2.688426,11.797413 C 2.646905,11.757978 2.615519,11.730206 2.571959,11.684364 C 2.658220,12.183099 2.728859,12.623541 2.734555,12.655127 C 2.755595,12.771799 2.788417,12.899105 2.747945,13.010537 C 2.715469,13.099954 2.654795,13.122669 2.650157,13.124555 C 2.645856,13.126305 2.580443,13.155167 2.513473,13.097747 C 2.484351,13.072777 2.464910,13.038250 2.443041,13.006733 C 2.374194,12.907514 2.296155,12.810641 2.198893,12.739056 C 2.139520,12.695357 2.011516,12.612907 1.817162,12.612657 C 1.713385,12.612524 1.609137,12.635370 1.510984,12.669069 C 1.553495,12.865477 1.612188,13.058610 1.680287,13.247675 C 1.681836,13.251977 1.696906,13.296184 1.704130,13.382758 C 1.709815,13.450884 1.714192,13.592533 1.619589,13.745939 C 1.586187,13.800103 1.545012,13.849480 1.501656,13.896060 C 1.602728,13.904218 1.705557,13.874919 1.800539,13.839412 C 1.946948,13.784680 2.085303,13.709585 2.221704,13.633257 C 2.259436,13.612143 2.285056,13.596623 2.300236,13.590415 C 2.413646,13.544036 2.527174,13.491715 2.647994,13.471329 C 2.718424,13.459446 2.794564,13.460925 2.861841,13.484915 C 2.868446,13.487270 2.875348,13.489089 2.881437,13.492566 L 3.831915,14.198943 C 3.834064,14.200804 3.855261,14.220072 3.889491,14.261847 C 3.931897,14.313602 3.970771,14.380268 3.966864,14.447064 C 3.966568,14.452113 3.966428,14.514482 3.898635,14.582590 C 3.878759,14.602558 3.839771,14.636780 3.777070,14.676597 C 3.720870,14.712286 3.602911,14.779076 3.427449,14.774737 C 3.273821,14.770939 3.122274,14.720000 2.981132,14.659212 C 2.839368,14.598156 2.703935,14.522776 2.570513,14.445165 C 2.539004,14.426836 2.511100,14.422203 2.497688,14.425562 C 2.458386,14.435404 2.490943,14.487448 2.492030,14.489283 C 2.604187,14.678560 2.725335,14.747285 2.819944,14.841895 C 2.928740,14.908013 3.168007,15.029484 3.500195,15.018738 C 3.714216,14.987811 3.920629,14.930910 4.101373,14.812195 C 4.191572,14.752951 4.287113,14.697338 4.390593,14.666720 C 4.525931,14.626676 4.606439,14.661506 4.613425,14.664031 C 4.653012,14.678340 4.688141,14.703039 4.723710,14.725549 C 5.172737,14.928369 5.598695,15.287087 6.066786,15.582355 C 6.098739,15.602511 6.144436,15.617738 6.177842,15.613595 C 6.220792,15.608268 6.244010,15.562846 6.243460,15.555700 L 6.102704,14.420828 C 6.081865,14.302841 6.010024,14.379953 5.998513,14.388649 C 5.987002,14.397345 5.977221,14.414258 5.968275,14.423639 C 5.904668,14.490338 5.822939,14.549565 5.732727,14.568446 C 5.695532,14.576231 5.619559,14.584218 5.526565,14.546946 C 5.496347,14.534834 5.468612,14.517233 5.440245,14.501262 C 4.977208,14.240559 4.516457,13.972723 4.081735,13.667132 C 3.864690,13.514559 3.653732,13.352810 3.451113,13.181543 C 3.450206,13.180777 3.441785,13.172062 3.422598,13.160202 C 3.383608,13.136102 3.343548,13.109836 3.316275,13.072996 C 3.275606,13.018062 3.258549,12.947597 3.245745,12.880457 C 3.238851,12.844310 3.233552,12.807854 3.229009,12.771337 C 3.199960,12.537835 3.156138,12.292007 3.127147,12.075558 "/>
        <path style="fill:none;stroke-width:0.010000;stroke-linecap:round;stroke-linejoin:round;stroke-opacity:1;stroke:#000000;" d="M 1.957115,13.198490 C 1.930583,13.129692 1.863131,13.108413 1.835211,13.106765 C 1.772813,13.103081 1.751226,13.153565 1.750043,13.156634 C 1.737329,13.189635 1.750087,13.232530 1.771749,13.260484 C 1.829386,13.334865 1.906068,13.314417 1.910778,13.312886 C 1.974560,13.292157 1.964137,13.224529 1.963510,13.221056 C 1.962121,13.213362 1.959928,13.205784 1.957115,13.198490 "/>
    </g>
    <g inkscape:groupmode="layer" id="0c394af3-019d-49e7-a00e-af860feba876" inkscape:label="Woman">
        <path style="fill:none;stroke-width:0.010000;stroke-linecap:round;stroke-linejoin:round;stroke-opacity:1;stroke:#ff0000;" d="M 2.165307,7.602203 C 2.378832,7.587034 2.551892,7.361690 2.635245,7.164521 C 2.651505,7.126059 2.665678,7.086678 2.678201,7.046843 "/>
        <path style="fill:none;stroke-width:0.010000;stroke-linecap:round;stroke-linejoin:round;stroke-opacity:1;stroke:#ff0000;" d="M 1.515526,9.153893 C 1.622206,9.218248 1.755643,9.431528 1.847415,9.746905 C 1.921752,10.002367 1.920935,10.198205 1.893811,10.295411 C 1.880162,10.344326 1.848922,10.432588 1.784321,10.549858 C 1.592449,10.898163 1.330014,10.955388 1.309888,10.961132 C 1.106033,11.019315 0.839978,10.992369 0.683878,10.848930 C 0.593632,10.766004 0.530865,10.641226 0.521555,10.519019 C 0.521522,10.518588 0.521490,10.518156 0.521464,10.517723 C 0.631645,10.533234 0.745504,10.534780 0.855263,10.516522 C 0.923705,10.505136 0.995948,10.481265 1.046026,10.433242 C 1.087242,10.393716 1.171928,10.296686 1.167019,10.146215 C 1.166516,10.130816 1.159588,9.964860 1.017811,9.708752 C 0.889762,9.477444 0.707592,9.279696 0.534424,9.079913 C 0.250796,8.752696 0.062525,8.384033 0.004094,7.954963 C -0.014469,7.818655 0.033748,7.679728 0.074347,7.548290 C 0.166776,7.249056 0.287212,6.945544 0.486548,6.703988 C 0.601984,6.564102 0.756618,6.443759 0.928962,6.387266 C 1.078135,6.338369 1.165706,6.349686 1.173968,6.349711 C 1.480295,6.350626 1.797621,6.354264 2.088338,6.257718 C 2.156753,6.234998 2.226366,6.194410 2.297819,6.203967 C 2.367024,6.213224 2.365001,6.287527 2.365236,6.291195 C 2.370037,6.366309 2.365302,6.447411 2.376723,6.527537 C 2.383144,6.572587 2.396645,6.609629 2.410276,6.639594 C 2.420664,6.662429 2.430337,6.680523 2.437731,6.695525 C 2.443524,6.707277 2.447564,6.716999 2.451815,6.726499 C 2.464435,6.754700 2.477680,6.778734 2.494940,6.802924 C 2.502302,6.813240 2.510262,6.821311 2.517842,6.831500 C 2.526779,6.843512 2.534656,6.856485 2.544012,6.868351 C 2.555597,6.883044 2.565674,6.896711 2.575533,6.908787 C 2.584541,6.919821 2.593475,6.929383 2.601016,6.940131 C 2.615287,6.960468 2.627934,6.980635 2.644691,7.002624 C 2.647268,7.006007 2.661830,7.024216 2.680468,7.056497 C 2.691219,7.075119 2.703803,7.098201 2.715514,7.127105 C 2.733308,7.171026 2.750060,7.227552 2.762979,7.295695 C 2.796222,7.471030 2.785672,7.661426 2.721478,7.827939 C 2.683340,7.926865 2.625316,8.019306 2.556163,8.099672 C 2.551357,8.105257 2.490942,8.149047 2.395300,8.251280 C 2.315430,8.336655 2.233386,8.442056 2.226588,8.558769 C 2.222510,8.628766 2.293893,8.806389 2.473274,8.851025 C 2.529033,8.864900 2.588242,8.856206 2.645634,8.853432 C 3.151592,8.828979 3.657451,8.797462 4.163939,8.789604 C 4.296411,8.787549 4.389549,8.765512 4.433848,8.741783 C 4.539779,8.685043 4.524873,8.581540 4.524719,8.575217 C 4.522670,8.491321 4.473512,8.340533 4.373602,8.143129 C 4.308343,8.014188 4.221291,7.897479 4.146784,7.773651 C 4.127174,7.741060 4.056716,7.710232 3.960263,7.682807 C 3.894216,7.664026 3.824853,7.648006 3.755215,7.637474 C 3.737984,7.661907 3.714270,7.689467 3.675096,7.681838 C 3.625712,7.672221 3.622028,7.648808 3.615517,7.624510 C 3.661682,7.590044 3.696221,7.552077 3.722294,7.513121 C 3.747278,7.475791 3.764620,7.434524 3.777879,7.394017 C 3.791639,7.351980 3.802576,7.313855 3.809391,7.288422 C 3.816812,7.260726 3.830739,7.208995 3.840004,7.136245 C 3.862372,6.960595 3.848566,6.949142 3.847211,6.786099 C 3.847145,6.778149 3.846844,6.762104 3.847121,6.745293 C 3.847229,6.738733 3.847098,6.732630 3.847098,6.726233 C 3.847098,6.717631 3.851674,6.708695 3.855503,6.700765 C 3.859679,6.692113 3.870164,6.677862 3.888074,6.664833 C 3.921437,6.640564 3.967815,6.617026 4.004625,6.651574 C 4.031425,6.676728 4.049729,6.744950 4.085880,6.834854 C 4.260130,7.268195 4.433913,7.544116 4.528960,7.693623 C 4.621512,7.839207 4.801770,8.103437 4.961677,8.529206 C 5.003540,8.640670 5.041476,8.753636 5.076876,8.867318 C 5.086004,8.896630 5.080178,8.928728 5.078806,8.959397 C 5.072731,9.095257 5.051250,9.175306 5.026548,9.220591 C 4.999834,9.269565 4.949293,9.302173 4.903480,9.334003 C 4.895467,9.339571 4.797249,9.350258 4.612593,9.366814 C 4.184617,9.405186 3.753943,9.402408 3.324667,9.421322 C 3.304856,9.422195 3.253210,9.414016 3.214110,9.464002 C 3.211592,9.466238 3.172221,9.534370 3.211364,9.584982 C 3.250912,9.636118 3.326274,9.646127 3.388266,9.664455 C 3.506515,9.699415 3.652539,9.738711 3.709362,9.848146 C 3.773353,9.971385 3.726531,10.089507 3.700526,10.135311 C 3.648153,10.227559 3.557833,10.293958 3.502680,10.384571 C 3.501809,10.386003 3.486920,10.400036 3.485567,10.431856 C 3.481051,10.538067 3.501160,10.657377 3.568191,10.739888 C 3.681492,10.879356 3.889991,10.910187 4.065852,10.947086 C 4.190231,10.973183 4.314923,11.003149 4.441794,11.010552 C 4.567283,11.017873 4.839383,11.019999 5.098478,10.813377 C 5.247090,10.694862 5.359986,10.537436 5.489504,10.398308 C 5.515790,10.370072 5.765114,10.074284 6.189585,9.476707 C 6.548613,8.971262 6.898500,8.758470 7.345757,8.329125 C 7.561616,8.121912 7.734364,8.005508 7.825340,7.937648 C 7.937788,7.853772 8.030014,7.789245 8.081756,7.801662 C 8.109282,7.808268 8.110095,7.842202 8.110056,7.852939 C 8.109196,8.094154 8.113497,10.506327 8.110056,15.520977 C 8.110056,15.721626 8.110056,15.918148 8.110056,16.154212 C 8.110056,16.347289 7.963856,16.492590 7.907266,16.492590 C 7.680467,16.492590 7.570652,16.490013 7.476409,16.490013 C 7.306609,16.490013 7.011976,15.846724 6.998484,15.737597 C 6.998129,15.734727 6.991818,15.671289 6.988288,15.633910 C 6.986844,15.618618 6.979505,15.601469 6.972884,15.595610 C 6.973513,15.595119 6.982483,15.585984 6.983126,15.585359 C 6.990917,15.577788 6.999306,15.561243 6.999306,15.555700 L 6.917269,14.891413 L 6.857772,14.419432 C 6.853760,14.273980 6.849601,14.115912 6.847491,14.022422 C 6.846364,13.972470 6.895708,13.898648 6.945217,13.857649 L 7.163153,13.757190 C 7.287173,13.600813 7.327092,13.455352 7.330603,13.379728 L 7.330603,9.956826 C 7.330514,9.879596 7.298063,9.822237 7.272466,9.807991 C 7.225457,9.781830 7.188512,9.848098 7.176718,9.864751 C 6.916461,10.244682 6.539263,10.556069 6.101457,11.133132 C 5.902750,11.395044 5.691019,11.653390 5.436679,11.861699 C 5.197581,12.057525 5.031239,12.102888 5.016710,12.110203 C 4.994924,12.121172 4.746648,12.251115 4.288455,12.181584 C 4.006502,12.138798 3.715117,12.035549 3.500947,11.847244 C 3.052212,11.452702 2.848669,11.069344 2.749696,10.865452 C 2.743883,10.853477 2.689505,10.731837 2.597465,10.496260 C 2.522212,10.303651 2.458084,10.106685 2.398540,9.908656 C 2.395152,9.897390 2.354706,9.785413 2.242483,9.592107 C 2.059420,9.276779 1.907743,9.146778 1.892742,9.134810 C 1.886316,9.129684 1.604509,8.995346 1.526771,9.130818 C 1.522512,9.138240 1.518824,9.145998 1.515526,9.153893 "/>
        <path style="fill:none;stroke-width:0.010000;stroke-linecap:round;stroke-linejoin:round;stroke-opacity:1;stroke:#ff0000;" d="M 1.321888,6.842123 C 1.322344,6.939188 1.395599,6.996056 1.428691,7.012195 C 1.515979,7.054765 1.599443,7.014233 1.628569,6.991680 C 1.705102,6.932418 1.705897,6.840115 1.698729,6.804106 C 1.679755,6.708784 1.596819,6.666912 1.561201,6.657403 C 1.525560,6.647888 1.432687,6.642881 1.368758,6.716171 C 1.339311,6.749929 1.321677,6.797327 1.321888,6.842123 "/>
    </g>
    <g inkscape:groupmode="layer" id="f6850817-eadd-447c-92df-80585431ab42" inkscape:label="Dog">
        <path style="fill:none;stroke-width:0.010000;stroke-linecap:round;stroke-linejoin:round;stroke-opacity:1;stroke:#33cccc;" d="M 2.869099,4.168717 C 2.797206,4.206497 2.644489,4.264749 2.515640,4.435753 C 2.441487,4.534168 2.397266,4.656160 2.373792,4.777128 C 2.372066,4.786021 2.387965,4.798613 2.404545,4.815802 C 2.507521,4.922563 2.643804,4.991936 2.770994,5.068257 C 2.848230,5.114603 3.019021,5.137322 3.256388,5.144320 C 3.463806,5.150435 3.620956,5.147898 3.683423,5.100011 C 3.770315,5.033401 3.748010,4.879368 3.719814,4.773574 C 3.697326,4.689196 3.638762,4.517201 3.456334,4.376771 C 3.401067,4.334227 3.296224,4.248206 3.118075,4.202676 C 3.038259,4.182277 2.955659,4.171722 2.873355,4.168152 C 2.871925,4.168090 2.870366,4.168051 2.869099,4.168717 "/>
        <path style="fill:none;stroke-width:0.010000;stroke-linecap:round;stroke-linejoin:round;stroke-opacity:1;stroke:#33cccc;" d="M 3.507423,5.428138 C 3.712512,5.634424 3.726201,5.876160 3.732453,5.986319 C 3.734796,6.027598 3.735388,6.068987 3.734948,6.110330 "/>
        <path style="fill:none;stroke-width:0.010000;stroke-linecap:round;stroke-linejoin:round;stroke-opacity:1;stroke:#33cccc;" d="M 5.915933,2.031518 C 5.896978,2.079903 5.847952,2.163648 5.816773,2.297051 C 5.793454,2.396827 5.790312,2.501949 5.799779,2.603975 C 5.827584,2.903626 6.059941,3.059689 6.162322,3.110167 C 6.368866,3.212003 6.545986,3.192023 6.632985,3.184207 C 6.842064,3.165424 6.945101,3.111261 6.955361,3.107161 C 7.031793,3.076623 7.109038,3.045273 7.177933,3.000240 C 7.190887,2.991773 7.203966,2.983497 7.217102,2.975316 "/>
        <path style="fill:none;stroke-width:0.010000;stroke-linecap:round;stroke-linejoin:round;stroke-opacity:1;stroke:#33cccc;" d="M 3.844904,5.488068 L 3.844812,5.366736 C 3.851316,5.313325 3.917689,5.282923 3.967251,5.263118 C 4.088905,5.214505 4.223197,5.197968 4.354144,5.193976 C 4.415245,5.192114 4.476472,5.193801 4.537503,5.197274 C 4.690326,5.205969 4.838658,5.254608 4.985804,5.296781 C 5.193520,5.356314 5.341368,5.388985 5.423328,5.388621 C 5.510317,5.388234 5.597213,5.351692 5.670456,5.304760 C 5.850156,5.189614 5.968955,5.102159 6.032787,5.052368 C 6.073008,5.020994 6.140183,4.949940 6.264151,4.897807 C 6.274799,4.893329 6.382131,4.850260 6.590137,4.780242 C 6.779042,4.716653 6.921380,4.717171 6.996785,4.711692 C 7.301278,4.689570 7.514612,4.692184 7.628427,4.713541 C 7.672662,4.721841 7.696350,4.725301 7.698262,4.726699 C 7.701899,4.729357 7.716603,4.773680 7.765529,4.843901 C 7.802146,4.896456 7.856023,4.956349 7.920052,4.958131 C 7.995519,4.958131 8.109122,4.936830 8.109113,4.886518 L 8.109113,4.609033 C 8.109113,4.415386 8.109113,4.312875 8.109113,4.303287 C 8.086199,4.265963 8.018380,4.214231 7.917582,4.186335 C 7.837552,4.164186 7.683788,4.173374 7.464874,4.171949 C 7.350023,4.171201 7.141065,4.166466 6.838899,4.146952 C 6.823892,4.145983 6.808892,4.144906 6.793907,4.143636 C 6.906721,3.910311 6.999215,3.664392 7.143864,3.449347 C 7.234805,3.314146 7.314103,3.267900 7.320898,3.262668 C 7.500232,3.124592 7.601815,3.057558 7.613724,3.057822 C 7.621294,3.057990 7.594836,3.139026 7.570376,3.280785 C 7.551246,3.391654 7.532260,3.528384 7.601781,3.616842 C 7.608341,3.625190 7.695354,3.738148 7.897074,3.736242 C 7.966500,3.735587 8.059316,3.719741 8.096266,3.657390 C 8.105184,3.639184 8.108785,3.618146 8.108785,3.597872 C 8.108785,2.027972 8.108785,1.201702 8.108785,1.119080 C 8.108785,1.001327 8.032586,0.889866 7.964406,0.793852 C 7.881691,0.677369 7.780692,0.575009 7.690009,0.464616 C 7.488446,0.219241 7.316023,0.155548 7.300928,0.148375 C 7.067863,0.037618 6.798235,-0.012546 6.540640,0.002645 C 6.367059,0.012882 6.179501,0.058628 6.046971,0.171193 C 5.971756,0.235078 5.945333,0.283540 5.944627,0.288686 C 5.940934,0.315602 5.999425,0.299681 6.025965,0.293874 C 6.086862,0.280549 6.197711,0.243368 6.362053,0.242273 C 6.740295,0.239752 7.158462,0.451421 7.368834,0.765773 C 7.429884,0.856998 7.472382,0.963127 7.492226,1.071087 C 7.493892,1.080150 7.499082,1.099122 7.489880,1.098632 C 7.460491,1.097067 7.412850,1.067871 7.340374,1.040166 C 7.324740,1.034190 7.162192,0.954960 6.844265,0.962608 C 6.537279,0.969992 6.334406,1.083514 6.235866,1.145616 C 6.029290,1.275802 5.854460,1.452272 5.682654,1.625779 C 5.662901,1.645728 5.475546,1.855163 5.137996,2.268174 C 4.857205,2.611737 4.712311,2.794965 4.696540,2.812188 C 4.577849,2.941811 4.477636,3.087267 4.364589,3.221840 C 4.235371,3.375661 4.077536,3.503792 3.921783,3.630675 C 3.695040,3.815390 3.442519,3.982130 3.165145,4.074842 C 3.033353,4.118894 2.894555,4.148786 2.772815,4.215788 C 2.681217,4.266201 2.490598,4.389998 2.405762,4.652261 C 2.346180,4.836454 2.365565,4.977571 2.367631,5.050973 C 2.369342,5.111747 2.368542,5.175075 2.389877,5.232007 C 2.391189,5.235508 2.401338,5.272112 2.434785,5.334770 C 2.448223,5.359942 2.463219,5.413104 2.513566,5.468998 C 2.516284,5.472015 2.537326,5.507183 2.587238,5.566016 C 2.606143,5.588300 2.620028,5.614452 2.638023,5.637477 C 2.667454,5.675134 2.691493,5.717325 2.710587,5.761139 C 2.717315,5.776577 2.783309,5.938928 2.799319,6.258491 C 2.803007,6.332124 2.799344,6.385122 2.810903,6.410587 C 2.826299,6.444505 2.872982,6.456912 2.909788,6.462637 C 2.947085,6.468438 2.984868,6.454713 3.022483,6.451589 C 3.123939,6.443162 3.227481,6.456915 3.327622,6.438584 C 3.417665,6.422101 3.453969,6.378611 3.457685,6.375544 C 3.460757,6.373008 3.489284,6.344118 3.553684,6.304313 C 3.602158,6.274352 3.706858,6.213158 3.761591,6.073247 C 3.783138,6.018167 3.817576,5.914635 3.840151,5.760351 C 3.859237,5.629906 3.845849,5.537629 3.844904,5.488068 "/>
        <path style="fill:none;stroke-width:0.010000;stroke-linecap:round;stroke-linejoin:round;stroke-opacity:1;stroke:#33cccc;" d="M 2.848334,5.531750 C 2.952187,5.554433 2.992857,5.454856 2.994683,5.449568 C 3.029328,5.349220 2.935560,5.297151 2.930536,5.294705 C 2.834914,5.248164 2.771910,5.335452 2.768891,5.340165 C 2.711639,5.429537 2.790515,5.502174 2.794822,5.505731 C 2.810114,5.518362 2.828957,5.527517 2.848334,5.531750 "/>
    </g>
</svg>
