<?xml version="1.0" encoding="UTF-8"?>
<!-- Created by Vectric (http://www.vectric.com/) -->
<svg width="13.29494769in" height="6.44891136in" viewBox="0 0 13.29494769 6.44891136" id="svg2" version="1.1" xmlns="http://www.w3.org/2000/svg" xmlns:xlink="http://www.w3.org/1999/xlink" xmlns:inkscape="http://www.inkscape.org/namespaces/inkscape">
    <g inkscape:groupmode="layer" id="85667243-1302-4a85-b3ac-c7bf39b332ec" inkscape:label="Toolpath Previews"/>
    <g inkscape:groupmode="layer" id="bcc8d4db-532f-4cad-a0b4-fe6658397f89" inkscape:label="Dog">
        <path style="fill:none;stroke-width:0.010000;stroke-linecap:round;stroke-linejoin:round;stroke-opacity:1;stroke:#3366ff;" d="M 8.995110,2.189464 L 8.994644,2.189465 L 8.994179,2.189468 L 8.993714,2.189474 L 8.993249,2.189482 L 8.992785,2.189491 L 8.992321,2.189503 L 8.991857,2.189518 L 8.991394,2.189534 L 8.990931,2.189552 L 8.990469,2.189573 L 8.990007,2.189596 L 8.989546,2.189621 L 8.989085,2.189648 L 8.988624,2.189677 L 8.988164,2.189709 L 8.987704,2.189742 L 8.987245,2.189778 L 8.986786,2.189815 L 8.986328,2.189855 L 8.985870,2.189897 L 8.985413,2.189941 L 8.984956,2.189988 L 8.984499,2.190036 L 8.984043,2.190086 L 8.983588,2.190139 L 8.983133,2.190194 L 8.982679,2.190250 L 8.982225,2.190309 L 8.981771,2.190370 L 8.981319,2.190433 L 8.980866,2.190498 L 8.980415,2.190565 L 8.979963,2.190634 L 8.979513,2.190705 L 8.979063,2.190779 L 8.978613,2.190854 L 8.978164,2.190931 L 8.977716,2.191011 L 8.977268,2.191092 L 8.976821,2.191176 L 8.976374,2.191261 L 8.975928,2.191349 L 8.975483,2.191439 L 8.975038,2.191530 L 8.974594,2.191624 L 8.974151,2.191719 L 8.973708,2.191817 L 8.973266,2.191917 L 8.972824,2.192018 L 8.972383,2.192122 L 8.971943,2.192228 L 8.971503,2.192335 L 8.971064,2.192445 L 8.970626,2.192557 L 8.970189,2.192670 L 8.969752,2.192786 L 8.969316,2.192903 L 8.968880,2.193023 L 8.968445,2.193144 L 8.968011,2.193268 L 8.967578,2.193393 L 8.967145,2.193520 L 8.966713,2.193650 L 8.966282,2.193781 L 8.965852,2.193914 L 8.965422,2.194049 L 8.964993,2.194186 L 8.964565,2.194325 L 8.964137,2.194466 L 8.963711,2.194609 L 8.963285,2.194753 L 8.962860,2.194900 L 8.962436,2.195048 L 8.962012,2.195199 L 8.961589,2.195351 L 8.961168,2.195505 L 8.960746,2.195661 L 8.960326,2.195819 L 8.959907,2.195979 L 8.959488,2.196141 L 8.959070,2.196304 L 8.958653,2.196470 L 8.958237,2.196637 L 8.957822,2.196806 L 8.957408,2.196978 L 8.956994,2.197150 L 8.956582,2.197325 L 8.956170,2.197502 L 8.955759,2.197680 L 8.955349,2.197860 L 8.954940,2.198043 L 8.954532,2.198227 L 8.954125,2.198412 L 8.953718,2.198600 L 8.953313,2.198789 L 8.952908,2.198980 L 8.952505,2.199174 L 8.952102,2.199368 L 8.951701,2.199565 L 8.951300,2.199763 L 8.950900,2.199964 L 8.950501,2.200166 L 8.950103,2.200369 L 8.949707,2.200575 L 8.949311,2.200782 L 8.948916,2.200992 L 8.948522,2.201202 L 8.948129,2.201415 L 8.947737,2.201630 L 8.947346,2.201846 L 8.946956,2.202064 L 8.946567,2.202283 L 8.946180,2.202505 L 8.945793,2.202728 L 8.945407,2.202953 L 8.945022,2.203180 L 8.944639,2.203408 L 8.944256,2.203638 L 8.943875,2.203870 L 8.943494,2.204103 L 8.943115,2.204339 L 8.942736,2.204576 L 8.942359,2.204814 L 8.941983,2.205055 L 8.941608,2.205297 L 8.941234,2.205541 L 8.940861,2.205786 L 8.940490,2.206033 L 8.940119,2.206282 L 8.939750,2.206532 L 8.939381,2.206785 L 8.939014,2.207038 L 8.938648,2.207294 L 8.938283,2.207551 L 8.937920,2.207810 L 8.937557,2.208070 L 8.937196,2.208333 L 8.936835,2.208596 L 8.936476,2.208862 L 8.936119,2.209129 L 8.935762,2.209398 L 8.935407,2.209668 L 8.935052,2.209940 L 8.934699,2.210213 L 8.934348,2.210489 L 8.933997,2.210765 L 8.933648,2.211044 L 8.933300,2.211324 L 8.932953,2.211605 L 8.932607,2.211889 L 8.932263,2.212173 L 8.931920,2.212460 L 8.931578,2.212748 L 8.931237,2.213037 L 8.930898,2.213329 L 8.930560,2.213621 L 8.930224,2.213916 L 8.929888,2.214211 L 8.929554,2.214509 L 8.929221,2.214808 L 8.928890,2.215108 L 8.928560,2.215410 L 8.928231,2.215714 L 8.927903,2.216019 L 8.927577,2.216326 L 8.927253,2.216634 L 8.926929,2.216944 L 8.926607,2.217255 L 8.926286,2.217568 L 8.925967,2.217882 L 8.925649,2.218198 L 8.925332,2.218516 L 8.925017,2.218834 L 8.924703,2.219155 L 8.924391,2.219477 L 8.924080,2.219800 L 8.923770,2.220125 L 8.923462,2.220451 L 8.923155,2.220779 L 8.922850,2.221108 L 8.922546,2.221439 L 8.922244,2.221771 L 8.921943,2.222105 L 8.921643,2.222440 L 8.921345,2.222777 L 8.921048,2.223115 L 8.920753,2.223454 L 8.920459,2.223795 L 8.920167,2.224138 L 8.919877,2.224482 L 8.919587,2.224827 L 8.919300,2.225174 L 8.919013,2.225522 L 8.918729,2.225871 L 8.918446,2.226222 L 8.918164,2.226575 L 8.917884,2.226929 L 8.917605,2.227284 L 8.917328,2.227640 L 8.917053,2.227998 L 8.916779,2.228358 L 8.916506,2.228719 L 8.916235,2.229081 L 8.915966,2.229444 L 8.915698,2.229809 L 8.915432,2.230176 L 8.915168,2.230543 L 8.914905,2.230912 L 8.914644,2.231283 L 8.914384,2.231655 L 8.914126,2.232028 L 8.913869,2.232402 L 8.913615,2.232778 L 8.913361,2.233155 L 8.913110,2.233534 L 8.912860,2.233914 L 8.912612,2.234295 L 8.912365,2.234677 L 8.912120,2.235061 L 8.911877,2.235446 L 8.911635,2.235833 L 8.911395,2.236220 L 8.911157,2.236609 L 8.910920,2.237000 L 8.910686,2.237392 L 8.910452,2.237784 L 8.910221,2.238179 L 8.909991,2.238574 L 8.909763,2.238971 L 8.909537,2.239369 L 8.909312,2.239769 L 8.909090,2.240169 L 8.908868,2.240571 L 8.908649,2.240974 L 8.908432,2.241379 L 8.908216,2.241784 L 8.908002,2.242191 L 8.907790,2.242600 L 8.907579,2.243009 L 8.907370,2.243420 L 8.907164,2.243832 L 8.906958,2.244245 L 8.906755,2.244659 L 8.906554,2.245075 L 8.906354,2.245491 L 8.906156,2.245909 L 8.905960,2.246329 L 8.905766,2.246749 L 8.905574,2.247171 L 8.905383,2.247594 L 8.905195,2.248018 L 8.905008,2.248443 L 8.904823,2.248869 L 8.904640,2.249297 L 8.904459,2.249725 L 8.904280,2.250155 L 8.904102,2.250586 L 8.903927,2.251017 L 8.903754,2.251449 L 8.903584,2.251881 L 8.903415,2.252314 L 8.903248,2.252747 L 8.903084,2.253181 L 8.902922,2.253615 L 8.902762,2.254050 L 8.902604,2.254485 L 8.902448,2.254920 L 8.902295,2.255356 L 8.902144,2.255793 L 8.901994,2.256229 L 8.901847,2.256666 L 8.901702,2.257104 L 8.901559,2.257542 L 8.901419,2.257980 L 8.901280,2.258419 L 8.901144,2.258858 L 8.901009,2.259297 L 8.900877,2.259737 L 8.900747,2.260177 L 8.900619,2.260618 L 8.900494,2.261059 L 8.900370,2.261500 L 8.900249,2.261942 L 8.900129,2.262383 L 8.900012,2.262825 L 8.899897,2.263268 L 8.899673,2.264154 L 8.899457,2.265041 L 8.899251,2.265929 L 8.899052,2.266817 L 8.898862,2.267707 L 8.898680,2.268598 L 8.898507,2.269490 L 8.898342,2.270382 L 8.898186,2.271276 L 8.898038,2.272170 L 8.897898,2.273064 L 8.897767,2.273959 L 8.897644,2.274855 L 8.897529,2.275751 L 8.897423,2.276647 L 8.897325,2.277544 L 8.897235,2.278441 L 8.897154,2.279338 L 8.897081,2.280236 L 8.897016,2.281133 L 8.896960,2.282031 L 8.896911,2.282929 L 8.896871,2.283826 L 8.896840,2.284724 L 8.896816,2.285621 L 8.896800,2.286518 L 8.896793,2.287415 L 8.896794,2.288311 L 8.896803,2.289207 L 8.896821,2.290103 L 8.896846,2.290998 L 8.896880,2.291893 L 8.896921,2.292787 L 8.896971,2.293680 L 8.897029,2.294572 L 8.897095,2.295464 L 8.897169,2.296355 L 8.897251,2.297245 L 8.897342,2.298134 L 8.897440,2.299022 L 8.897546,2.299909 L 8.897661,2.300795 L 8.897783,2.301679 L 8.897913,2.302563 L 8.898052,2.303445 L 8.898198,2.304326 L 8.898352,2.305205 L 8.898514,2.306083 L 8.898685,2.306959 L 8.898863,2.307834 L 8.899049,2.308707 L 8.899243,2.309578 L 8.899445,2.310448 L 8.899654,2.311316 L 8.899872,2.312182 L 8.900097,2.313046 L 8.900331,2.313908 L 8.900572,2.314768 L 8.900821,2.315626 L 8.901078,2.316482 L 8.901343,2.317336 L 8.901615,2.318187 L 8.901895,2.319036 L 8.902183,2.319883 L 8.902479,2.320727 L 8.902783,2.321569 L 8.903094,2.322409 L 8.903413,2.323245 L 8.903740,2.324079 L 8.904074,2.324911 L 8.904416,2.325739 L 8.904766,2.326565 L 8.905124,2.327388 L 8.905489,2.328208 L 8.905862,2.329025 L 8.906242,2.329839 L 8.906631,2.330650 L 8.907026,2.331457 L 8.907430,2.332262 L 8.907841,2.333063 L 8.908259,2.333861 L 8.908685,2.334655 L 8.909119,2.335446 L 8.909560,2.336234 L 8.910009,2.337018 L 8.910465,2.337798 L 8.910929,2.338575 L 8.911400,2.339348 L 8.911879,2.340117 L 8.912366,2.340882 L 8.912859,2.341644 L 8.913361,2.342401 L 8.913869,2.343155 L 8.914386,2.343904 L 8.914909,2.344650 L 8.915440,2.345391 L 8.915979,2.346128 L 8.916524,2.346860 L 8.916800,2.347225 L 8.917078,2.347589 L 8.917357,2.347951 L 8.917638,2.348313 L 8.917921,2.348673 L 8.918206,2.349032 L 8.918493,2.349390 L 8.918781,2.349747 L 8.919072,2.350103 L 8.919364,2.350457 L 8.919658,2.350811 L 8.919954,2.351163 L 8.920252,2.351514 L 8.920551,2.351864 L 8.920853,2.352213 L 8.921156,2.352561 L 8.921461,2.352907 L 8.921768,2.353252 L 8.922076,2.353596 L 8.922387,2.353939 L 8.922699,2.354280 L 8.923013,2.354621 L 8.923329,2.354960 L 8.923647,2.355297 L 8.923967,2.355634 L 8.924288,2.355969 L 8.924611,2.356303 L 8.924936,2.356636 L 8.925263,2.356967 L 8.925591,2.357298 L 8.925922,2.357626 L 8.926253,2.357953 L 8.926586,2.358278 L 8.926920,2.358601 L 8.927255,2.358922 L 8.927592,2.359242 L 8.927929,2.359560 L 8.928268,2.359876 L 8.928609,2.360190 L 8.928950,2.360502 L 8.929293,2.360813 L 8.929637,2.361121 L 8.929982,2.361428 L 8.930328,2.361733 L 8.930676,2.362036 L 8.931025,2.362338 L 8.931375,2.362637 L 8.931726,2.362935 L 8.932078,2.363231 L 8.932432,2.363525 L 8.932786,2.363817 L 8.933142,2.364108 L 8.933499,2.364396 L 8.933857,2.364683 L 8.934216,2.364968 L 8.934576,2.365251 L 8.934938,2.365532 L 8.935300,2.365811 L 8.935664,2.366089 L 8.936029,2.366365 L 8.936761,2.366910 L 8.937498,2.367449 L 8.938239,2.367980 L 8.938985,2.368503 L 8.939734,2.369020 L 8.940488,2.369528 L 8.941245,2.370030 L 8.942007,2.370523 L 8.942772,2.371010 L 8.943541,2.371489 L 8.944314,2.371960 L 8.945091,2.372424 L 8.945871,2.372880 L 8.946655,2.373329 L 8.947443,2.373770 L 8.948234,2.374204 L 8.949028,2.374630 L 8.949826,2.375048 L 8.950627,2.375459 L 8.951432,2.375863 L 8.952239,2.376258 L 8.953050,2.376647 L 8.953864,2.377027 L 8.954681,2.377400 L 8.955501,2.377765 L 8.956324,2.378123 L 8.957150,2.378473 L 8.957978,2.378815 L 8.958810,2.379149 L 8.959644,2.379476 L 8.960480,2.379795 L 8.961320,2.380106 L 8.962162,2.380410 L 8.963006,2.380706 L 8.963853,2.380994 L 8.964702,2.381274 L 8.965553,2.381546 L 8.966407,2.381811 L 8.967263,2.382068 L 8.968121,2.382317 L 8.968981,2.382558 L 8.969843,2.382792 L 8.970707,2.383017 L 8.971573,2.383235 L 8.972441,2.383444 L 8.973311,2.383646 L 8.974182,2.383840 L 8.975055,2.384026 L 8.975930,2.384204 L 8.976806,2.384375 L 8.977684,2.384537 L 8.978563,2.384691 L 8.979444,2.384837 L 8.980326,2.384976 L 8.981210,2.385106 L 8.982094,2.385228 L 8.982980,2.385343 L 8.983867,2.385449 L 8.984755,2.385547 L 8.985644,2.385638 L 8.986534,2.385720 L 8.987425,2.385794 L 8.988317,2.385860 L 8.989209,2.385918 L 8.990102,2.385968 L 8.990996,2.386009 L 8.991891,2.386043 L 8.992786,2.386068 L 8.993682,2.386086 L 8.994578,2.386095 L 8.995474,2.386096 L 8.996371,2.386089 L 8.997268,2.386073 L 8.998165,2.386050 L 8.999063,2.386018 L 8.999960,2.385978 L 9.000858,2.385929 L 9.001756,2.385873 L 9.002653,2.385808 L 9.003551,2.385735 L 9.004448,2.385654 L 9.005345,2.385564 L 9.006242,2.385466 L 9.007138,2.385360 L 9.008034,2.385245 L 9.008930,2.385122 L 9.009825,2.384991 L 9.010719,2.384851 L 9.011613,2.384703 L 9.012507,2.384547 L 9.013399,2.384382 L 9.014291,2.384209 L 9.015182,2.384027 L 9.016072,2.383837 L 9.016960,2.383638 L 9.017848,2.383432 L 9.018735,2.383216 L 9.019621,2.382992 L 9.020064,2.382877 L 9.020506,2.382760 L 9.020948,2.382641 L 9.021389,2.382519 L 9.021830,2.382395 L 9.022271,2.382270 L 9.022712,2.382142 L 9.023152,2.382012 L 9.023592,2.381880 L 9.024031,2.381745 L 9.024470,2.381609 L 9.024909,2.381470 L 9.025347,2.381330 L 9.025785,2.381187 L 9.026223,2.381042 L 9.026660,2.380895 L 9.027096,2.380746 L 9.027533,2.380594 L 9.027969,2.380441 L 9.028404,2.380285 L 9.028839,2.380127 L 9.029274,2.379967 L 9.029708,2.379805 L 9.030142,2.379641 L 9.030575,2.379474 L 9.031008,2.379306 L 9.031440,2.379135 L 9.031872,2.378962 L 9.032303,2.378787 L 9.032734,2.378609 L 9.033164,2.378430 L 9.033592,2.378249 L 9.034020,2.378066 L 9.034446,2.377881 L 9.034871,2.377694 L 9.035296,2.377506 L 9.035718,2.377315 L 9.036140,2.377123 L 9.036560,2.376929 L 9.036980,2.376733 L 9.037398,2.376535 L 9.037814,2.376335 L 9.038230,2.376134 L 9.038644,2.375931 L 9.039057,2.375725 L 9.039469,2.375519 L 9.039880,2.375310 L 9.040289,2.375099 L 9.040698,2.374887 L 9.041105,2.374673 L 9.041510,2.374457 L 9.041915,2.374240 L 9.042318,2.374021 L 9.042720,2.373799 L 9.043120,2.373577 L 9.043520,2.373352 L 9.043918,2.373126 L 9.044315,2.372898 L 9.044710,2.372668 L 9.045105,2.372437 L 9.045497,2.372203 L 9.045889,2.371969 L 9.046280,2.371732 L 9.046669,2.371494 L 9.047056,2.371254 L 9.047443,2.371012 L 9.047828,2.370769 L 9.048212,2.370524 L 9.048594,2.370277 L 9.048975,2.370029 L 9.049355,2.369779 L 9.049734,2.369528 L 9.050111,2.369274 L 9.050487,2.369020 L 9.050861,2.368763 L 9.051234,2.368505 L 9.051606,2.368245 L 9.051977,2.367984 L 9.052346,2.367721 L 9.052713,2.367457 L 9.053080,2.367191 L 9.053445,2.366923 L 9.053808,2.366654 L 9.054170,2.366383 L 9.054531,2.366110 L 9.054891,2.365836 L 9.055249,2.365561 L 9.055605,2.365284 L 9.055960,2.365005 L 9.056314,2.364725 L 9.056667,2.364444 L 9.057018,2.364160 L 9.057367,2.363876 L 9.057715,2.363589 L 9.058062,2.363302 L 9.058407,2.363012 L 9.058751,2.362722 L 9.059094,2.362430 L 9.059435,2.362136 L 9.059774,2.361841 L 9.060112,2.361544 L 9.060449,2.361246 L 9.060784,2.360946 L 9.061118,2.360645 L 9.061450,2.360343 L 9.061781,2.360039 L 9.062110,2.359734 L 9.062438,2.359427 L 9.062764,2.359119 L 9.063089,2.358809 L 9.063412,2.358498 L 9.063734,2.358186 L 9.064055,2.357872 L 9.064373,2.357557 L 9.064691,2.357240 L 9.065007,2.356922 L 9.065321,2.356603 L 9.065634,2.356282 L 9.065945,2.355960 L 9.066255,2.355637 L 9.066563,2.355312 L 9.066870,2.354986 L 9.067175,2.354658 L 9.067479,2.354329 L 9.067781,2.353999 L 9.068081,2.353668 L 9.068380,2.353335 L 9.068678,2.353001 L 9.068973,2.352665 L 9.069268,2.352329 L 9.069560,2.351991 L 9.069852,2.351652 L 9.070141,2.351311 L 9.070429,2.350969 L 9.070716,2.350626 L 9.071000,2.350282 L 9.071284,2.349936 L 9.071565,2.349589 L 9.071845,2.349241 L 9.072124,2.348892 L 9.072400,2.348541 L 9.072676,2.348190 L 9.072949,2.347837 L 9.073221,2.347482 L 9.073491,2.347127 L 9.073760,2.346770 L 9.074027,2.346413 L 9.074293,2.346054 L 9.074556,2.345693 L 9.074819,2.345332 L 9.075079,2.344970 L 9.075338,2.344606 L 9.075595,2.344241 L 9.075851,2.343875 L 9.076104,2.343508 L 9.076357,2.343139 L 9.076607,2.342770 L 9.076856,2.342399 L 9.077103,2.342028 L 9.077349,2.341655 L 9.077592,2.341281 L 9.077834,2.340906 L 9.078075,2.340530 L 9.078313,2.340153 L 9.078550,2.339774 L 9.078786,2.339395 L 9.079019,2.339014 L 9.079251,2.338633 L 9.079481,2.338250 L 9.079709,2.337867 L 9.079936,2.337482 L 9.080161,2.337096 L 9.080384,2.336709 L 9.080606,2.336322 L 9.080825,2.335933 L 9.081043,2.335543 L 9.081259,2.335152 L 9.081474,2.334760 L 9.081687,2.334367 L 9.081897,2.333973 L 9.082107,2.333578 L 9.082314,2.333182 L 9.082520,2.332786 L 9.082723,2.332388 L 9.082925,2.331989 L 9.083126,2.331589 L 9.083324,2.331188 L 9.083521,2.330787 L 9.083715,2.330384 L 9.083909,2.329981 L 9.084100,2.329576 L 9.084289,2.329171 L 9.084477,2.328764 L 9.084663,2.328357 L 9.084846,2.327949 L 9.085029,2.327540 L 9.085209,2.327130 L 9.085387,2.326719 L 9.085564,2.326307 L 9.085739,2.325895 L 9.085912,2.325481 L 9.086083,2.325067 L 9.086252,2.324652 L 9.086419,2.324236 L 9.086585,2.323819 L 9.086748,2.323401 L 9.086910,2.322982 L 9.087070,2.322563 L 9.087228,2.322143 L 9.087384,2.321721 L 9.087538,2.321300 L 9.087690,2.320877 L 9.087841,2.320453 L 9.087989,2.320029 L 9.088136,2.319604 L 9.088280,2.319178 L 9.088423,2.318752 L 9.088564,2.318324 L 9.088703,2.317896 L 9.088840,2.317467 L 9.088975,2.317037 L 9.089108,2.316607 L 9.089239,2.316176 L 9.089369,2.315744 L 9.089496,2.315311 L 9.089621,2.314878 L 9.089745,2.314444 L 9.089866,2.314009 L 9.089986,2.313573 L 9.090103,2.313137 L 9.090219,2.312700 L 9.090332,2.312263 L 9.090444,2.311825 L 9.090554,2.311386 L 9.090661,2.310946 L 9.090767,2.310506 L 9.090871,2.310065 L 9.090972,2.309623 L 9.091072,2.309181 L 9.091170,2.308738 L 9.091265,2.308295 L 9.091359,2.307851 L 9.091450,2.307406 L 9.091540,2.306961 L 9.091628,2.306515 L 9.091713,2.306068 L 9.091797,2.305621 L 9.091878,2.305173 L 9.091958,2.304725 L 9.092035,2.304276 L 9.092110,2.303826 L 9.092184,2.303376 L 9.092255,2.302926 L 9.092324,2.302474 L 9.092391,2.302023 L 9.092456,2.301570 L 9.092519,2.301118 L 9.092580,2.300664 L 9.092639,2.300210 L 9.092695,2.299756 L 9.092750,2.299301 L 9.092803,2.298846 L 9.092853,2.298390 L 9.092901,2.297933 L 9.092948,2.297477 L 9.092992,2.297019 L 9.093034,2.296561 L 9.093074,2.296103 L 9.093111,2.295644 L 9.093147,2.295185 L 9.093180,2.294725 L 9.093212,2.294265 L 9.093241,2.293804 L 9.093268,2.293343 L 9.093293,2.292882 L 9.093316,2.292420 L 9.093337,2.291958 L 9.093355,2.291495 L 9.093371,2.291032 L 9.093386,2.290568 L 9.093398,2.290104 L 9.093407,2.289640 L 9.093415,2.289175 L 9.093421,2.288710 L 9.093424,2.288245 L 9.093425,2.287779 L 9.093423,2.287168 L 9.093417,2.286558 L 9.093408,2.285948 L 9.093395,2.285338 L 9.093378,2.284729 L 9.093357,2.284120 L 9.093332,2.283512 L 9.093304,2.282904 L 9.093272,2.282297 L 9.093236,2.281690 L 9.093197,2.281084 L 9.093154,2.280478 L 9.093107,2.279873 L 9.093056,2.279269 L 9.093002,2.278665 L 9.092944,2.278062 L 9.092882,2.277459 L 9.092817,2.276857 L 9.092748,2.276256 L 9.092675,2.275656 L 9.092599,2.275056 L 9.092519,2.274457 L 9.092435,2.273858 L 9.092348,2.273261 L 9.092257,2.272664 L 9.092162,2.272068 L 9.092064,2.271473 L 9.091962,2.270878 L 9.091856,2.270285 L 9.091747,2.269692 L 9.091635,2.269100 L 9.091518,2.268509 L 9.091399,2.267919 L 9.091275,2.267330 L 9.091148,2.266742 L 9.091018,2.266154 L 9.090884,2.265568 L 9.090746,2.264982 L 9.090605,2.264398 L 9.090460,2.263815 L 9.090312,2.263232 L 9.090160,2.262651 L 9.090004,2.262071 L 9.089846,2.261491 L 9.089683,2.260913 L 9.089517,2.260336 L 9.089348,2.259760 L 9.089175,2.259185 L 9.088999,2.258612 L 9.088819,2.258039 L 9.088636,2.257468 L 9.088449,2.256898 L 9.088259,2.256329 L 9.088066,2.255761 L 9.087868,2.255195 L 9.087668,2.254630 L 9.087464,2.254066 L 9.087257,2.253503 L 9.087046,2.252942 L 9.086832,2.252382 L 9.086614,2.251823 L 9.086393,2.251266 L 9.086169,2.250710 L 9.085941,2.250155 L 9.085710,2.249602 L 9.085476,2.249051 L 9.085238,2.248500 L 9.084997,2.247951 L 9.084752,2.247404 L 9.084504,2.246858 L 9.084253,2.246314 L 9.083998,2.245771 L 9.083741,2.245229 L 9.083479,2.244689 L 9.083215,2.244151 L 9.082947,2.243614 L 9.082676,2.243079 L 9.082401,2.242546 L 9.082124,2.242014 L 9.081843,2.241483 L 9.081559,2.240955 L 9.081271,2.240428 L 9.080980,2.239902 L 9.080686,2.239379 L 9.080389,2.238857 L 9.080089,2.238337 L 9.079785,2.237818 L 9.079478,2.237302 L 9.079168,2.236787 L 9.078854,2.236274 L 9.078538,2.235763 L 9.078218,2.235253 L 9.077895,2.234745 L 9.077569,2.234240 L 9.077239,2.233736 L 9.076907,2.233234 L 9.076571,2.232734 L 9.076232,2.232236 L 9.075890,2.231739 L 9.075545,2.231245 L 9.075197,2.230753 L 9.074845,2.230262 L 9.074491,2.229774 L 9.074133,2.229288 L 9.073772,2.228803 L 9.073408,2.228321 L 9.073041,2.227841 L 9.072671,2.227363 L 9.072298,2.226887 L 9.071922,2.226413 L 9.071542,2.225941 L 9.071160,2.225471 L 9.070775,2.225004 L 9.070386,2.224538 L 9.069994,2.224075 L 9.069600,2.223614 L 9.069202,2.223155 L 9.068801,2.222699 L 9.068398,2.222245 L 9.067991,2.221793 L 9.067581,2.221343 L 9.067168,2.220895 L 9.066753,2.220450 L 9.066334,2.220008 L 9.065912,2.219567 L 9.065487,2.219129 L 9.065060,2.218693 L 9.064629,2.218260 L 9.064196,2.217829 L 9.063760,2.217402 L 9.063322,2.216977 L 9.062881,2.216555 L 9.062439,2.216136 L 9.061994,2.215721 L 9.061546,2.215308 L 9.061096,2.214898 L 9.060644,2.214491 L 9.060190,2.214088 L 9.059734,2.213687 L 9.059275,2.213289 L 9.058814,2.212895 L 9.058351,2.212503 L 9.057885,2.212114 L 9.057418,2.211729 L 9.056948,2.211347 L 9.056476,2.210967 L 9.056002,2.210591 L 9.055526,2.210218 L 9.055048,2.209848 L 9.054568,2.209481 L 9.054086,2.209117 L 9.053601,2.208756 L 9.053115,2.208398 L 9.052627,2.208044 L 9.052136,2.207692 L 9.051644,2.207344 L 9.051150,2.206999 L 9.050654,2.206657 L 9.050155,2.206318 L 9.049655,2.205982 L 9.049153,2.205650 L 9.048649,2.205320 L 9.048144,2.204994 L 9.047636,2.204671 L 9.047127,2.204351 L 9.046615,2.204035 L 9.046102,2.203721 L 9.045587,2.203411 L 9.045071,2.203104 L 9.044552,2.202800 L 9.044032,2.202500 L 9.043510,2.202203 L 9.042987,2.201909 L 9.042461,2.201618 L 9.041934,2.201330 L 9.041406,2.201046 L 9.040875,2.200765 L 9.040343,2.200488 L 9.039810,2.200213 L 9.039275,2.199942 L 9.038738,2.199674 L 9.038200,2.199410 L 9.037660,2.199148 L 9.037118,2.198891 L 9.036575,2.198636 L 9.036031,2.198385 L 9.035485,2.198137 L 9.034938,2.197892 L 9.034389,2.197651 L 9.033839,2.197413 L 9.033287,2.197179 L 9.032734,2.196948 L 9.032179,2.196720 L 9.031623,2.196496 L 9.031066,2.196275 L 9.030507,2.196057 L 9.029947,2.195843 L 9.029386,2.195632 L 9.028823,2.195425 L 9.028259,2.195221 L 9.027694,2.195021 L 9.027128,2.194824 L 9.026560,2.194630 L 9.025991,2.194440 L 9.025421,2.194253 L 9.024850,2.194070 L 9.024277,2.193890 L 9.023704,2.193714 L 9.023129,2.193541 L 9.022553,2.193372 L 9.021976,2.193206 L 9.021398,2.193043 L 9.020818,2.192885 L 9.020238,2.192729 L 9.019657,2.192577 L 9.019074,2.192429 L 9.018491,2.192284 L 9.017907,2.192143 L 9.017321,2.192005 L 9.016735,2.191871 L 9.016147,2.191741 L 9.015559,2.191614 L 9.014970,2.191490 L 9.014380,2.191371 L 9.013789,2.191254 L 9.013197,2.191142 L 9.012604,2.191033 L 9.012011,2.190927 L 9.011416,2.190825 L 9.010821,2.190727 L 9.010225,2.190632 L 9.009628,2.190541 L 9.009031,2.190454 L 9.008432,2.190370 L 9.007833,2.190290 L 9.007233,2.190214 L 9.006633,2.190141 L 9.006032,2.190072 L 9.005430,2.190007 L 9.004827,2.189945 L 9.004224,2.189887 L 9.003620,2.189833 L 9.003016,2.189782 L 9.002411,2.189735 L 9.001805,2.189692 L 9.001199,2.189653 L 9.000592,2.189617 L 8.999985,2.189585 L 8.999377,2.189557 L 8.998769,2.189532 L 8.998160,2.189511 L 8.997551,2.189494 L 8.996942,2.189481 L 8.996331,2.189472 L 8.995721,2.189466 L 8.995110,2.189464 "/>
        <path style="fill:none;stroke-width:0.010000;stroke-linecap:round;stroke-linejoin:round;stroke-opacity:1;stroke:#3366ff;" d="M 9.980642,2.282873 C 9.950605,2.225715 9.904292,2.104298 9.768337,2.001858 C 9.690093,1.942903 9.593104,1.907745 9.496929,1.889082 C 9.489859,1.887710 9.479848,1.900351 9.466182,1.913532 C 9.381302,1.995403 9.326148,2.103754 9.265470,2.204875 C 9.228622,2.266281 9.210560,2.402067 9.204996,2.590784 C 9.200135,2.755690 9.202152,2.880630 9.240224,2.930294 C 9.293182,2.999377 9.415644,2.981644 9.499755,2.959227 C 9.566840,2.941348 9.703583,2.894787 9.815230,2.749749 C 9.849054,2.705809 9.917445,2.622455 9.953643,2.480819 C 9.969861,2.417362 9.978253,2.351691 9.981091,2.286256 C 9.981141,2.285120 9.981171,2.283880 9.980642,2.282873 "/>
        <path style="fill:none;stroke-width:0.010000;stroke-linecap:round;stroke-linejoin:round;stroke-opacity:1;stroke:#3366ff;" d="M 8.979349,2.790367 C 8.815343,2.953421 8.623153,2.964305 8.535572,2.969275 C 8.502753,2.971138 8.469847,2.971609 8.436978,2.971259 "/>
        <path style="fill:none;stroke-width:0.010000;stroke-linecap:round;stroke-linejoin:round;stroke-opacity:1;stroke:#3366ff;" d="M 11.679805,4.705234 C 11.641337,4.690164 11.574756,4.651186 11.468695,4.626398 C 11.389369,4.607858 11.305793,4.605360 11.224678,4.612887 C 10.986443,4.634993 10.862366,4.819727 10.822234,4.901124 C 10.741270,5.065335 10.757155,5.206153 10.763369,5.275320 C 10.778302,5.441547 10.821364,5.523466 10.824623,5.531623 C 10.848903,5.592390 10.873828,5.653803 10.909630,5.708577 C 10.916362,5.718876 10.922941,5.729274 10.929446,5.739718 "/>
        <path style="fill:none;stroke-width:0.010000;stroke-linecap:round;stroke-linejoin:round;stroke-opacity:1;stroke:#3366ff;" d="M 8.931702,3.058679 L 9.028166,3.058605 C 9.070631,3.063776 9.094801,3.116545 9.110547,3.155949 C 9.149196,3.252670 9.162344,3.359438 9.165518,3.463546 C 9.166998,3.512124 9.165657,3.560802 9.162896,3.609324 C 9.155983,3.730825 9.117313,3.848755 9.083783,3.965742 C 9.036452,4.130885 9.010477,4.248431 9.010767,4.313592 C 9.011074,4.382752 9.040127,4.451838 9.077440,4.510069 C 9.168986,4.652939 9.238516,4.747388 9.278102,4.798138 C 9.303046,4.830115 9.359537,4.883522 9.400984,4.982082 C 9.404544,4.990547 9.438787,5.075881 9.494454,5.241255 C 9.545009,5.391442 9.544598,5.504607 9.548954,5.564557 C 9.566542,5.806641 9.564464,5.976251 9.547484,6.066739 C 9.540885,6.101908 9.538134,6.120740 9.537023,6.122261 C 9.534910,6.125152 9.499671,6.136842 9.443842,6.175741 C 9.402059,6.204853 9.354441,6.247687 9.353024,6.298593 C 9.353024,6.358593 9.369960,6.448911 9.409960,6.448904 L 9.630572,6.448904 C 9.784530,6.448904 9.866030,6.448904 9.873653,6.448904 C 9.903327,6.430687 9.944456,6.376768 9.966635,6.296629 C 9.984244,6.233002 9.976939,6.110754 9.978072,5.936707 C 9.978667,5.845396 9.982431,5.679266 9.997946,5.439031 C 9.998716,5.427100 9.999573,5.415174 10.000582,5.403261 C 10.186085,5.492952 10.381602,5.566489 10.552571,5.681491 C 10.660062,5.753793 10.696830,5.816838 10.700989,5.822240 C 10.810765,5.964818 10.864060,6.045581 10.863850,6.055050 C 10.863717,6.061068 10.799290,6.040032 10.686586,6.020586 C 10.598440,6.005377 10.489733,5.990282 10.419406,6.045554 C 10.412769,6.050770 10.322962,6.119949 10.324477,6.280325 C 10.324999,6.335521 10.337597,6.409314 10.387168,6.438690 C 10.401643,6.445781 10.418369,6.448644 10.434488,6.448644 C 11.682624,6.448644 12.339544,6.448644 12.405232,6.448644 C 12.498850,6.448644 12.587467,6.388062 12.663802,6.333856 C 12.756411,6.268095 12.837791,6.187796 12.925558,6.115699 C 13.120642,5.955448 13.171280,5.818364 13.176984,5.806363 C 13.265040,5.621067 13.304922,5.406702 13.292844,5.201903 C 13.284706,5.063898 13.248336,4.914782 13.158842,4.809415 C 13.108051,4.749616 13.069521,4.728608 13.065430,4.728047 C 13.044031,4.725111 13.056689,4.771614 13.061306,4.792714 C 13.071900,4.841130 13.101460,4.929259 13.102331,5.059918 C 13.104335,5.360636 12.936049,5.693097 12.686126,5.860352 C 12.613598,5.908889 12.529221,5.942677 12.443389,5.958454 C 12.436183,5.959778 12.421099,5.963904 12.421489,5.956588 C 12.422733,5.933223 12.445945,5.895346 12.467972,5.837725 C 12.472723,5.825295 12.535714,5.696062 12.529634,5.443297 C 12.523763,5.199230 12.433508,5.037938 12.384135,4.959594 C 12.280631,4.795357 12.140331,4.656361 12.002385,4.519768 C 11.986525,4.504063 11.820015,4.355108 11.491654,4.086741 C 11.218506,3.863501 11.072833,3.748304 11.059140,3.735765 C 10.956084,3.641401 10.840440,3.561728 10.733449,3.471850 C 10.611155,3.369117 10.509285,3.243631 10.408408,3.119801 C 10.261552,2.939531 10.128986,2.738765 10.055276,2.518242 C 10.020253,2.413461 9.996488,2.303111 9.943219,2.206323 C 9.903138,2.133499 9.804714,1.981948 9.596204,1.914500 C 9.449763,1.867130 9.337569,1.882542 9.279211,1.884185 C 9.230893,1.885545 9.180545,1.884908 9.135281,1.901871 C 9.132498,1.902914 9.103396,1.910983 9.053580,1.937575 C 9.033568,1.948258 8.991301,1.960181 8.946864,2.000209 C 8.944465,2.002369 8.916505,2.019099 8.869730,2.058781 C 8.852013,2.073811 8.831222,2.084851 8.812916,2.099158 C 8.782977,2.122556 8.749433,2.141668 8.714599,2.156849 C 8.702326,2.162198 8.573249,2.214666 8.319184,2.227394 C 8.260642,2.230327 8.218506,2.227414 8.198261,2.236604 C 8.171295,2.248845 8.161431,2.285959 8.156879,2.315222 C 8.152266,2.344875 8.163179,2.374914 8.165663,2.404820 C 8.172362,2.485481 8.161428,2.567801 8.176002,2.647418 C 8.189107,2.719005 8.223683,2.747869 8.226121,2.750823 C 8.228138,2.753266 8.251107,2.775946 8.282753,2.827146 C 8.306574,2.865685 8.355225,2.948926 8.466460,2.992441 C 8.510251,3.009572 8.592563,3.036952 8.715226,3.054900 C 8.818935,3.070074 8.892299,3.059430 8.931702,3.058679 "/>
    </g>
    <g inkscape:groupmode="layer" id="abd5be99-5f14-4587-96b6-19cce9bad0e3" inkscape:label="Girl">
        <path style="fill:none;stroke-width:0.010000;stroke-linecap:round;stroke-linejoin:round;stroke-opacity:1;stroke:#ff0000;" d="M 6.024164,1.050955 L 6.023447,1.050956 L 6.022731,1.050961 L 6.022016,1.050970 L 6.021301,1.050982 L 6.020587,1.050997 L 6.019873,1.051015 L 6.019160,1.051037 L 6.018447,1.051062 L 6.017735,1.051091 L 6.017024,1.051122 L 6.016313,1.051157 L 6.015604,1.051196 L 6.014894,1.051238 L 6.014186,1.051283 L 6.013478,1.051331 L 6.012770,1.051382 L 6.012064,1.051437 L 6.011358,1.051495 L 6.010653,1.051557 L 6.009948,1.051621 L 6.009245,1.051689 L 6.008542,1.051760 L 6.007840,1.051835 L 6.007138,1.051912 L 6.006438,1.051993 L 6.005738,1.052077 L 6.005039,1.052164 L 6.004340,1.052255 L 6.003643,1.052348 L 6.002946,1.052445 L 6.002251,1.052545 L 6.001556,1.052649 L 6.000861,1.052755 L 6.000168,1.052865 L 5.999476,1.052977 L 5.998784,1.053093 L 5.998094,1.053212 L 5.997404,1.053334 L 5.996715,1.053460 L 5.996027,1.053588 L 5.995340,1.053720 L 5.994654,1.053855 L 5.993969,1.053992 L 5.993284,1.054133 L 5.992601,1.054277 L 5.991919,1.054425 L 5.991238,1.054575 L 5.990557,1.054728 L 5.989878,1.054885 L 5.989200,1.055044 L 5.988522,1.055207 L 5.987846,1.055372 L 5.987171,1.055541 L 5.986496,1.055713 L 5.985823,1.055887 L 5.985151,1.056065 L 5.984480,1.056246 L 5.983810,1.056430 L 5.983141,1.056617 L 5.982473,1.056806 L 5.981807,1.056999 L 5.981141,1.057195 L 5.980476,1.057394 L 5.979813,1.057596 L 5.979151,1.057801 L 5.978490,1.058009 L 5.977830,1.058219 L 5.977171,1.058433 L 5.976514,1.058650 L 5.975857,1.058869 L 5.975202,1.059092 L 5.974548,1.059317 L 5.973895,1.059546 L 5.973244,1.059777 L 5.972594,1.060012 L 5.971945,1.060249 L 5.971297,1.060489 L 5.970650,1.060732 L 5.970005,1.060978 L 5.969361,1.061227 L 5.968718,1.061478 L 5.968077,1.061733 L 5.967437,1.061990 L 5.966798,1.062251 L 5.966160,1.062514 L 5.965524,1.062780 L 5.964889,1.063049 L 5.964256,1.063320 L 5.963624,1.063595 L 5.962993,1.063872 L 5.962364,1.064152 L 5.961736,1.064435 L 5.961109,1.064721 L 5.960484,1.065010 L 5.959861,1.065301 L 5.959238,1.065595 L 5.958617,1.065892 L 5.957998,1.066192 L 5.957380,1.066495 L 5.956763,1.066800 L 5.956148,1.067108 L 5.955535,1.067419 L 5.954923,1.067732 L 5.954312,1.068048 L 5.953703,1.068368 L 5.953096,1.068689 L 5.952490,1.069014 L 5.951885,1.069341 L 5.951282,1.069671 L 5.950681,1.070003 L 5.950081,1.070339 L 5.949483,1.070677 L 5.948886,1.071017 L 5.948291,1.071361 L 5.947698,1.071707 L 5.947106,1.072055 L 5.946515,1.072407 L 5.945927,1.072761 L 5.945340,1.073117 L 5.944755,1.073477 L 5.944171,1.073839 L 5.943589,1.074203 L 5.943008,1.074570 L 5.942430,1.074940 L 5.941853,1.075313 L 5.941278,1.075688 L 5.940704,1.076065 L 5.940132,1.076445 L 5.939562,1.076828 L 5.938994,1.077214 L 5.938427,1.077602 L 5.937862,1.077992 L 5.937299,1.078385 L 5.936738,1.078781 L 5.936178,1.079179 L 5.935621,1.079580 L 5.935065,1.079983 L 5.934510,1.080389 L 5.933958,1.080797 L 5.933408,1.081208 L 5.932859,1.081622 L 5.932312,1.082037 L 5.931767,1.082456 L 5.931224,1.082877 L 5.930683,1.083300 L 5.930144,1.083726 L 5.929606,1.084154 L 5.929071,1.084585 L 5.928537,1.085018 L 5.928005,1.085454 L 5.927476,1.085892 L 5.926948,1.086333 L 5.926422,1.086776 L 5.925898,1.087221 L 5.925376,1.087669 L 5.924856,1.088120 L 5.924338,1.088572 L 5.923822,1.089027 L 5.923308,1.089485 L 5.922796,1.089945 L 5.922286,1.090407 L 5.921779,1.090872 L 5.921273,1.091339 L 5.920769,1.091809 L 5.920267,1.092281 L 5.919767,1.092755 L 5.919270,1.093231 L 5.918774,1.093710 L 5.918281,1.094191 L 5.917790,1.094675 L 5.917300,1.095161 L 5.916813,1.095649 L 5.916328,1.096140 L 5.915846,1.096633 L 5.915365,1.097128 L 5.914887,1.097625 L 5.914410,1.098125 L 5.913936,1.098627 L 5.913464,1.099131 L 5.912994,1.099638 L 5.912527,1.100147 L 5.912062,1.100658 L 5.911598,1.101171 L 5.911138,1.101687 L 5.910679,1.102205 L 5.910223,1.102725 L 5.909768,1.103247 L 5.909317,1.103772 L 5.908867,1.104299 L 5.908420,1.104828 L 5.907975,1.105359 L 5.907532,1.105892 L 5.907092,1.106428 L 5.906654,1.106966 L 5.906218,1.107506 L 5.905785,1.108048 L 5.905354,1.108592 L 5.904925,1.109139 L 5.904499,1.109687 L 5.904075,1.110238 L 5.903654,1.110791 L 5.903235,1.111346 L 5.902818,1.111903 L 5.902404,1.112463 L 5.901992,1.113024 L 5.901583,1.113588 L 5.901176,1.114153 L 5.900771,1.114721 L 5.900369,1.115291 L 5.899970,1.115863 L 5.899572,1.116437 L 5.899178,1.117013 L 5.898786,1.117591 L 5.898396,1.118172 L 5.898009,1.118754 L 5.897625,1.119338 L 5.897243,1.119925 L 5.896863,1.120513 L 5.896487,1.121104 L 5.896112,1.121696 L 5.895741,1.122291 L 5.895371,1.122887 L 5.895005,1.123486 L 5.894641,1.124087 L 5.894280,1.124689 L 5.893921,1.125294 L 5.893565,1.125900 L 5.893211,1.126509 L 5.892861,1.127119 L 5.892512,1.127732 L 5.892167,1.128346 L 5.891824,1.128962 L 5.891484,1.129581 L 5.891147,1.130201 L 5.890812,1.130823 L 5.890480,1.131447 L 5.890151,1.132073 L 5.889824,1.132701 L 5.889500,1.133331 L 5.889179,1.133963 L 5.888861,1.134597 L 5.888546,1.135232 L 5.888233,1.135870 L 5.887923,1.136509 L 5.887616,1.137150 L 5.887311,1.137794 L 5.887010,1.138438 L 5.886711,1.139085 L 5.886415,1.139734 L 5.886122,1.140384 L 5.885832,1.141037 L 5.885545,1.141691 L 5.885260,1.142347 L 5.884978,1.143005 L 5.884700,1.143664 L 5.884424,1.144326 L 5.884151,1.144989 L 5.883882,1.145652 L 5.883616,1.146316 L 5.883353,1.146981 L 5.883094,1.147647 L 5.882838,1.148314 L 5.882585,1.148981 L 5.882336,1.149649 L 5.882089,1.150317 L 5.881847,1.150986 L 5.881607,1.151656 L 5.881371,1.152327 L 5.881138,1.152998 L 5.880908,1.153670 L 5.880682,1.154343 L 5.880459,1.155016 L 5.880239,1.155690 L 5.880023,1.156364 L 5.879810,1.157039 L 5.879600,1.157714 L 5.879393,1.158391 L 5.879190,1.159067 L 5.878990,1.159744 L 5.878793,1.160422 L 5.878600,1.161100 L 5.878410,1.161779 L 5.878223,1.162458 L 5.878039,1.163138 L 5.877859,1.163818 L 5.877682,1.164499 L 5.877337,1.165862 L 5.877006,1.167226 L 5.876687,1.168592 L 5.876382,1.169960 L 5.876090,1.171329 L 5.875810,1.172699 L 5.875544,1.174071 L 5.875290,1.175444 L 5.875050,1.176818 L 5.874822,1.178194 L 5.874607,1.179570 L 5.874405,1.180947 L 5.874216,1.182325 L 5.874040,1.183703 L 5.873876,1.185082 L 5.873725,1.186462 L 5.873587,1.187842 L 5.873462,1.189223 L 5.873350,1.190603 L 5.873250,1.191984 L 5.873163,1.193365 L 5.873089,1.194746 L 5.873027,1.196127 L 5.872978,1.197508 L 5.872942,1.198888 L 5.872918,1.200268 L 5.872907,1.201648 L 5.872909,1.203027 L 5.872923,1.204406 L 5.872949,1.205784 L 5.872988,1.207161 L 5.873040,1.208537 L 5.873104,1.209912 L 5.873181,1.211286 L 5.873270,1.212659 L 5.873372,1.214031 L 5.873486,1.215402 L 5.873612,1.216771 L 5.873751,1.218139 L 5.873902,1.219505 L 5.874066,1.220869 L 5.874242,1.222232 L 5.874430,1.223593 L 5.874630,1.224952 L 5.874843,1.226309 L 5.875068,1.227664 L 5.875306,1.229017 L 5.875555,1.230368 L 5.875817,1.231716 L 5.876091,1.233062 L 5.876377,1.234405 L 5.876676,1.235746 L 5.876986,1.237084 L 5.877309,1.238419 L 5.877644,1.239751 L 5.877991,1.241081 L 5.878350,1.242407 L 5.878721,1.243730 L 5.879104,1.245050 L 5.879499,1.246367 L 5.879906,1.247680 L 5.880325,1.248990 L 5.880757,1.250296 L 5.881200,1.251599 L 5.881655,1.252898 L 5.882122,1.254193 L 5.882601,1.255484 L 5.883092,1.256772 L 5.883594,1.258055 L 5.884109,1.259334 L 5.884635,1.260609 L 5.885173,1.261879 L 5.885724,1.263145 L 5.886285,1.264407 L 5.886859,1.265663 L 5.887444,1.266916 L 5.888041,1.268163 L 5.888650,1.269406 L 5.889271,1.270643 L 5.889903,1.271876 L 5.890547,1.273103 L 5.891203,1.274325 L 5.891870,1.275542 L 5.892549,1.276754 L 5.893239,1.277960 L 5.893941,1.279161 L 5.894655,1.280356 L 5.895380,1.281545 L 5.896116,1.282728 L 5.896865,1.283906 L 5.897624,1.285077 L 5.898395,1.286243 L 5.899178,1.287402 L 5.899972,1.288555 L 5.900778,1.289702 L 5.901594,1.290842 L 5.902423,1.291976 L 5.903262,1.293103 L 5.903687,1.293664 L 5.904114,1.294223 L 5.904543,1.294781 L 5.904976,1.295337 L 5.905411,1.295891 L 5.905850,1.296444 L 5.906291,1.296995 L 5.906735,1.297544 L 5.907181,1.298091 L 5.907631,1.298637 L 5.908083,1.299181 L 5.908539,1.299723 L 5.908997,1.300263 L 5.909457,1.300801 L 5.909921,1.301338 L 5.910388,1.301872 L 5.910857,1.302405 L 5.911329,1.302936 L 5.911804,1.303466 L 5.912281,1.303993 L 5.912762,1.304518 L 5.913245,1.305042 L 5.913731,1.305563 L 5.914220,1.306083 L 5.914712,1.306601 L 5.915206,1.307117 L 5.915703,1.307630 L 5.916203,1.308142 L 5.916706,1.308652 L 5.917212,1.309160 L 5.917719,1.309666 L 5.918229,1.310168 L 5.918741,1.310668 L 5.919255,1.311166 L 5.919771,1.311660 L 5.920289,1.312152 L 5.920808,1.312640 L 5.921330,1.313127 L 5.921853,1.313610 L 5.922379,1.314090 L 5.922906,1.314568 L 5.923435,1.315043 L 5.923966,1.315515 L 5.924499,1.315984 L 5.925034,1.316451 L 5.925571,1.316914 L 5.926109,1.317375 L 5.926649,1.317833 L 5.927191,1.318288 L 5.927735,1.318741 L 5.928280,1.319190 L 5.928828,1.319637 L 5.929377,1.320081 L 5.929928,1.320522 L 5.930480,1.320960 L 5.931035,1.321396 L 5.931591,1.321828 L 5.932148,1.322258 L 5.932708,1.322685 L 5.933269,1.323109 L 5.934396,1.323949 L 5.935530,1.324777 L 5.936670,1.325594 L 5.937817,1.326400 L 5.938970,1.327194 L 5.940129,1.327976 L 5.941294,1.328747 L 5.942466,1.329507 L 5.943643,1.330255 L 5.944827,1.330992 L 5.946016,1.331717 L 5.947211,1.332431 L 5.948412,1.333133 L 5.949618,1.333823 L 5.950829,1.334502 L 5.952046,1.335169 L 5.953268,1.335825 L 5.954496,1.336469 L 5.955729,1.337101 L 5.956966,1.337721 L 5.958209,1.338330 L 5.959456,1.338927 L 5.960708,1.339513 L 5.961965,1.340086 L 5.963227,1.340648 L 5.964493,1.341198 L 5.965763,1.341736 L 5.967038,1.342263 L 5.968317,1.342777 L 5.969600,1.343280 L 5.970887,1.343771 L 5.972178,1.344250 L 5.973474,1.344717 L 5.974773,1.345172 L 5.976075,1.345615 L 5.977382,1.346046 L 5.978691,1.346465 L 5.980005,1.346873 L 5.981321,1.347268 L 5.982642,1.347651 L 5.983965,1.348022 L 5.985291,1.348381 L 5.986621,1.348728 L 5.987953,1.349063 L 5.989288,1.349385 L 5.990626,1.349696 L 5.991967,1.349994 L 5.993310,1.350281 L 5.994656,1.350555 L 5.996004,1.350816 L 5.997355,1.351066 L 5.998707,1.351303 L 6.000062,1.351529 L 6.001419,1.351741 L 6.002778,1.351942 L 6.004139,1.352130 L 6.005502,1.352306 L 6.006867,1.352470 L 6.008233,1.352621 L 6.009601,1.352760 L 6.010970,1.352886 L 6.012340,1.353000 L 6.013712,1.353102 L 6.015085,1.353191 L 6.016460,1.353267 L 6.017835,1.353332 L 6.019211,1.353383 L 6.020588,1.353422 L 6.021966,1.353449 L 6.023345,1.353463 L 6.024724,1.353464 L 6.026103,1.353453 L 6.027484,1.353430 L 6.028864,1.353393 L 6.030245,1.353344 L 6.031626,1.353283 L 6.033007,1.353208 L 6.034388,1.353122 L 6.035768,1.353022 L 6.037149,1.352909 L 6.038530,1.352784 L 6.039910,1.352646 L 6.041289,1.352496 L 6.042668,1.352332 L 6.044047,1.352156 L 6.045425,1.351967 L 6.046802,1.351765 L 6.048178,1.351550 L 6.049553,1.351322 L 6.050927,1.351082 L 6.052300,1.350828 L 6.053672,1.350562 L 6.055043,1.350282 L 6.056412,1.349990 L 6.057780,1.349684 L 6.059146,1.349366 L 6.060510,1.349035 L 6.061873,1.348690 L 6.062554,1.348513 L 6.063234,1.348333 L 6.063913,1.348149 L 6.064593,1.347962 L 6.065271,1.347772 L 6.065950,1.347579 L 6.066627,1.347382 L 6.067305,1.347182 L 6.067981,1.346978 L 6.068657,1.346772 L 6.069333,1.346562 L 6.070008,1.346349 L 6.070682,1.346132 L 6.071356,1.345913 L 6.072029,1.345690 L 6.072701,1.345463 L 6.073373,1.345234 L 6.074045,1.345001 L 6.074715,1.344765 L 6.075385,1.344525 L 6.076054,1.344282 L 6.076723,1.344036 L 6.077391,1.343787 L 6.078058,1.343534 L 6.078725,1.343278 L 6.079390,1.343018 L 6.080055,1.342756 L 6.080720,1.342490 L 6.081383,1.342220 L 6.082046,1.341948 L 6.082707,1.341672 L 6.083367,1.341393 L 6.084025,1.341112 L 6.084681,1.340827 L 6.085335,1.340540 L 6.085987,1.340250 L 6.086638,1.339957 L 6.087286,1.339661 L 6.087933,1.339362 L 6.088578,1.339060 L 6.089221,1.338756 L 6.089863,1.338449 L 6.090502,1.338139 L 6.091139,1.337826 L 6.091775,1.337511 L 6.092409,1.337192 L 6.093040,1.336871 L 6.093670,1.336548 L 6.094298,1.336221 L 6.094924,1.335892 L 6.095549,1.335560 L 6.096171,1.335225 L 6.096791,1.334888 L 6.097409,1.334547 L 6.098026,1.334205 L 6.098640,1.333859 L 6.099253,1.333511 L 6.099863,1.333160 L 6.100472,1.332807 L 6.101078,1.332451 L 6.101683,1.332092 L 6.102285,1.331731 L 6.102886,1.331367 L 6.103484,1.331000 L 6.104081,1.330631 L 6.104676,1.330259 L 6.105268,1.329885 L 6.105859,1.329508 L 6.106447,1.329129 L 6.107034,1.328747 L 6.107618,1.328362 L 6.108200,1.327975 L 6.108780,1.327586 L 6.109359,1.327194 L 6.109935,1.326799 L 6.110509,1.326402 L 6.111081,1.326003 L 6.111651,1.325601 L 6.112218,1.325196 L 6.112784,1.324789 L 6.113348,1.324380 L 6.113909,1.323968 L 6.114469,1.323554 L 6.115026,1.323137 L 6.115581,1.322718 L 6.116134,1.322297 L 6.116685,1.321873 L 6.117233,1.321446 L 6.117780,1.321018 L 6.118324,1.320587 L 6.118866,1.320154 L 6.119406,1.319718 L 6.119944,1.319280 L 6.120480,1.318840 L 6.121013,1.318397 L 6.121544,1.317952 L 6.122073,1.317505 L 6.122600,1.317055 L 6.123125,1.316603 L 6.123647,1.316149 L 6.124167,1.315693 L 6.124685,1.315234 L 6.125201,1.314773 L 6.125714,1.314310 L 6.126225,1.313845 L 6.126734,1.313377 L 6.127241,1.312908 L 6.127745,1.312436 L 6.128247,1.311961 L 6.128747,1.311485 L 6.129244,1.311007 L 6.129739,1.310526 L 6.130232,1.310043 L 6.130723,1.309558 L 6.131211,1.309071 L 6.131697,1.308582 L 6.132181,1.308091 L 6.132662,1.307597 L 6.133141,1.307102 L 6.133617,1.306604 L 6.134092,1.306105 L 6.134563,1.305603 L 6.135033,1.305099 L 6.135500,1.304593 L 6.135965,1.304085 L 6.136427,1.303575 L 6.136887,1.303063 L 6.137345,1.302549 L 6.137800,1.302033 L 6.138253,1.301515 L 6.138703,1.300995 L 6.139151,1.300474 L 6.139596,1.299950 L 6.140039,1.299424 L 6.140480,1.298896 L 6.140918,1.298366 L 6.141354,1.297835 L 6.141787,1.297301 L 6.142218,1.296765 L 6.142646,1.296228 L 6.143072,1.295689 L 6.143496,1.295148 L 6.143916,1.294604 L 6.144335,1.294059 L 6.144751,1.293513 L 6.145164,1.292964 L 6.145575,1.292414 L 6.145983,1.291861 L 6.146389,1.291307 L 6.146792,1.290751 L 6.147193,1.290193 L 6.147591,1.289634 L 6.147987,1.289073 L 6.148380,1.288509 L 6.148771,1.287945 L 6.149159,1.287378 L 6.149544,1.286810 L 6.149927,1.286239 L 6.150307,1.285668 L 6.150685,1.285094 L 6.151060,1.284519 L 6.151432,1.283942 L 6.151802,1.283363 L 6.152169,1.282783 L 6.152534,1.282201 L 6.152896,1.281617 L 6.153255,1.281032 L 6.153611,1.280445 L 6.153965,1.279856 L 6.154317,1.279266 L 6.154666,1.278674 L 6.155012,1.278081 L 6.155355,1.277486 L 6.155696,1.276889 L 6.156034,1.276291 L 6.156369,1.275691 L 6.156701,1.275089 L 6.157031,1.274487 L 6.157359,1.273882 L 6.157683,1.273276 L 6.158005,1.272669 L 6.158324,1.272059 L 6.158640,1.271449 L 6.158954,1.270837 L 6.159264,1.270223 L 6.159572,1.269608 L 6.159878,1.268992 L 6.160180,1.268374 L 6.160480,1.267754 L 6.160777,1.267133 L 6.161071,1.266511 L 6.161363,1.265887 L 6.161651,1.265262 L 6.161937,1.264636 L 6.162220,1.264008 L 6.162500,1.263378 L 6.162777,1.262748 L 6.163052,1.262116 L 6.163324,1.261482 L 6.163592,1.260847 L 6.163858,1.260211 L 6.164122,1.259574 L 6.164382,1.258935 L 6.164639,1.258295 L 6.164894,1.257653 L 6.165146,1.257011 L 6.165394,1.256367 L 6.165640,1.255722 L 6.165883,1.255075 L 6.166123,1.254427 L 6.166361,1.253778 L 6.166595,1.253128 L 6.166826,1.252476 L 6.167055,1.251824 L 6.167280,1.251170 L 6.167503,1.250514 L 6.167723,1.249858 L 6.167939,1.249200 L 6.168153,1.248542 L 6.168364,1.247882 L 6.168572,1.247221 L 6.168776,1.246559 L 6.168978,1.245895 L 6.169177,1.245231 L 6.169373,1.244565 L 6.169566,1.243898 L 6.169756,1.243231 L 6.169943,1.242562 L 6.170126,1.241892 L 6.170307,1.241221 L 6.170485,1.240549 L 6.170660,1.239875 L 6.170831,1.239201 L 6.171000,1.238526 L 6.171166,1.237849 L 6.171328,1.237172 L 6.171488,1.236494 L 6.171644,1.235814 L 6.171797,1.235134 L 6.171948,1.234453 L 6.172095,1.233771 L 6.172239,1.233087 L 6.172380,1.232403 L 6.172518,1.231718 L 6.172652,1.231032 L 6.172784,1.230345 L 6.172913,1.229657 L 6.173038,1.228968 L 6.173160,1.228278 L 6.173279,1.227588 L 6.173395,1.226896 L 6.173508,1.226204 L 6.173617,1.225510 L 6.173724,1.224816 L 6.173827,1.224121 L 6.173927,1.223425 L 6.174024,1.222729 L 6.174118,1.222031 L 6.174208,1.221333 L 6.174295,1.220634 L 6.174379,1.219934 L 6.174460,1.219233 L 6.174538,1.218532 L 6.174612,1.217830 L 6.174683,1.217127 L 6.174751,1.216423 L 6.174816,1.215719 L 6.174877,1.215014 L 6.174935,1.214308 L 6.174990,1.213601 L 6.175041,1.212894 L 6.175090,1.212186 L 6.175135,1.211477 L 6.175176,1.210768 L 6.175215,1.210058 L 6.175250,1.209348 L 6.175282,1.208636 L 6.175310,1.207924 L 6.175335,1.207212 L 6.175357,1.206499 L 6.175376,1.205785 L 6.175391,1.205071 L 6.175402,1.204356 L 6.175411,1.203640 L 6.175416,1.202924 L 6.175418,1.202208 L 6.175415,1.201268 L 6.175406,1.200328 L 6.175391,1.199390 L 6.175371,1.198452 L 6.175345,1.197515 L 6.175313,1.196578 L 6.175275,1.195642 L 6.175232,1.194707 L 6.175182,1.193773 L 6.175127,1.192840 L 6.175067,1.191907 L 6.175000,1.190976 L 6.174928,1.190045 L 6.174850,1.189115 L 6.174767,1.188186 L 6.174677,1.187258 L 6.174583,1.186331 L 6.174482,1.185405 L 6.174376,1.184480 L 6.174264,1.183556 L 6.174146,1.182634 L 6.174023,1.181712 L 6.173894,1.180791 L 6.173760,1.179872 L 6.173620,1.178954 L 6.173474,1.178037 L 6.173323,1.177121 L 6.173167,1.176207 L 6.173004,1.175294 L 6.172837,1.174382 L 6.172663,1.173471 L 6.172484,1.172562 L 6.172300,1.171654 L 6.172110,1.170748 L 6.171915,1.169843 L 6.171714,1.168939 L 6.171508,1.168037 L 6.171296,1.167136 L 6.171079,1.166237 L 6.170856,1.165340 L 6.170628,1.164444 L 6.170394,1.163549 L 6.170155,1.162657 L 6.169911,1.161765 L 6.169661,1.160876 L 6.169406,1.159988 L 6.169145,1.159102 L 6.168880,1.158218 L 6.168608,1.157335 L 6.168332,1.156455 L 6.168050,1.155576 L 6.167763,1.154699 L 6.167470,1.153823 L 6.167172,1.152950 L 6.166869,1.152079 L 6.166561,1.151209 L 6.166247,1.150342 L 6.165928,1.149476 L 6.165604,1.148612 L 6.165274,1.147751 L 6.164939,1.146891 L 6.164600,1.146034 L 6.164254,1.145179 L 6.163904,1.144326 L 6.163548,1.143475 L 6.163188,1.142626 L 6.162822,1.141779 L 6.162451,1.140935 L 6.162075,1.140093 L 6.161693,1.139253 L 6.161307,1.138415 L 6.160915,1.137580 L 6.160518,1.136747 L 6.160116,1.135916 L 6.159710,1.135088 L 6.159298,1.134262 L 6.158880,1.133439 L 6.158458,1.132618 L 6.158031,1.131800 L 6.157599,1.130984 L 6.157162,1.130171 L 6.156719,1.129360 L 6.156272,1.128552 L 6.155820,1.127746 L 6.155362,1.126943 L 6.154900,1.126143 L 6.154433,1.125346 L 6.153960,1.124551 L 6.153483,1.123759 L 6.153001,1.122969 L 6.152514,1.122183 L 6.152022,1.121399 L 6.151525,1.120618 L 6.151023,1.119840 L 6.150517,1.119065 L 6.150005,1.118292 L 6.149489,1.117523 L 6.148967,1.116757 L 6.148441,1.115993 L 6.147910,1.115233 L 6.147374,1.114475 L 6.146834,1.113721 L 6.146288,1.112970 L 6.145738,1.112221 L 6.145183,1.111476 L 6.144623,1.110734 L 6.144058,1.109995 L 6.143489,1.109260 L 6.142915,1.108527 L 6.142336,1.107798 L 6.141752,1.107072 L 6.141164,1.106350 L 6.140571,1.105631 L 6.139973,1.104915 L 6.139370,1.104202 L 6.138763,1.103493 L 6.138151,1.102787 L 6.137535,1.102085 L 6.136914,1.101386 L 6.136288,1.100691 L 6.135658,1.099999 L 6.135023,1.099310 L 6.134383,1.098626 L 6.133739,1.097944 L 6.133090,1.097267 L 6.132437,1.096593 L 6.131779,1.095922 L 6.131116,1.095256 L 6.130449,1.094593 L 6.129779,1.093935 L 6.129105,1.093282 L 6.128427,1.092633 L 6.127746,1.091989 L 6.127061,1.091349 L 6.126373,1.090714 L 6.125681,1.090084 L 6.124986,1.089458 L 6.124287,1.088837 L 6.123585,1.088220 L 6.122879,1.087609 L 6.122170,1.087001 L 6.121457,1.086399 L 6.120741,1.085801 L 6.120022,1.085208 L 6.119299,1.084620 L 6.118573,1.084036 L 6.117844,1.083457 L 6.117112,1.082883 L 6.116376,1.082314 L 6.115637,1.081749 L 6.114895,1.081189 L 6.114150,1.080634 L 6.113402,1.080084 L 6.112651,1.079538 L 6.111896,1.078998 L 6.111139,1.078462 L 6.110379,1.077931 L 6.109615,1.077405 L 6.108849,1.076883 L 6.108079,1.076367 L 6.107307,1.075855 L 6.106532,1.075349 L 6.105754,1.074847 L 6.104973,1.074350 L 6.104189,1.073858 L 6.103402,1.073371 L 6.102613,1.072889 L 6.101821,1.072412 L 6.101026,1.071939 L 6.100228,1.071472 L 6.099428,1.071010 L 6.098625,1.070553 L 6.097820,1.070100 L 6.097012,1.069653 L 6.096201,1.069211 L 6.095388,1.068773 L 6.094572,1.068341 L 6.093753,1.067914 L 6.092933,1.067492 L 6.092109,1.067075 L 6.091284,1.066663 L 6.090455,1.066256 L 6.089625,1.065854 L 6.088792,1.065457 L 6.087957,1.065066 L 6.087119,1.064679 L 6.086279,1.064298 L 6.085437,1.063921 L 6.084593,1.063550 L 6.083746,1.063184 L 6.082897,1.062824 L 6.082046,1.062468 L 6.081193,1.062118 L 6.080338,1.061773 L 6.079480,1.061433 L 6.078621,1.061098 L 6.077759,1.060769 L 6.076896,1.060444 L 6.076030,1.060125 L 6.075163,1.059812 L 6.074293,1.059503 L 6.073422,1.059200 L 6.072548,1.058902 L 6.071673,1.058610 L 6.070796,1.058322 L 6.069917,1.058040 L 6.069036,1.057764 L 6.068154,1.057493 L 6.067269,1.057227 L 6.066383,1.056966 L 6.065496,1.056711 L 6.064606,1.056461 L 6.063715,1.056217 L 6.062822,1.055978 L 6.061928,1.055744 L 6.061032,1.055516 L 6.060135,1.055294 L 6.059235,1.055076 L 6.058335,1.054865 L 6.057433,1.054658 L 6.056529,1.054457 L 6.055624,1.054262 L 6.054718,1.054072 L 6.053810,1.053888 L 6.052901,1.053709 L 6.051990,1.053536 L 6.051078,1.053368 L 6.050165,1.053206 L 6.049250,1.053049 L 6.048335,1.052898 L 6.047418,1.052752 L 6.046500,1.052612 L 6.045580,1.052478 L 6.044660,1.052349 L 6.043738,1.052226 L 6.042815,1.052108 L 6.041891,1.051997 L 6.040966,1.051890 L 6.040041,1.051790 L 6.039114,1.051695 L 6.038186,1.051606 L 6.037257,1.051522 L 6.036327,1.051444 L 6.035396,1.051372 L 6.034464,1.051306 L 6.033532,1.051245 L 6.032598,1.051190 L 6.031664,1.051141 L 6.030729,1.051097 L 6.029794,1.051059 L 6.028857,1.051027 L 6.027920,1.051001 L 6.026982,1.050981 L 6.026043,1.050966 L 6.025104,1.050958 L 6.024164,1.050955 "/>
        <path style="fill:none;stroke-width:0.010000;stroke-linecap:round;stroke-linejoin:round;stroke-opacity:1;stroke:#ff0000;" d="M 5.419151,1.721510 C 5.431211,1.891272 5.610370,2.028862 5.767127,2.095131 C 5.797706,2.108059 5.829015,2.119326 5.860687,2.129283 "/>
        <path style="fill:none;stroke-width:0.010000;stroke-linecap:round;stroke-linejoin:round;stroke-opacity:1;stroke:#ff0000;" d="M 4.185493,1.204907 C 4.134328,1.289722 3.964761,1.395810 3.714023,1.468773 C 3.510920,1.527874 3.355220,1.527224 3.277938,1.505660 C 3.239048,1.494808 3.168876,1.469971 3.075642,1.418610 C 2.798725,1.266064 2.753228,1.057417 2.748661,1.041417 C 2.702403,0.879343 2.723827,0.667818 2.837867,0.543712 C 2.903797,0.471962 3.003000,0.422060 3.100160,0.414658 C 3.100503,0.414632 3.100846,0.414606 3.101190,0.414586 C 3.088858,0.502184 3.087629,0.592707 3.102145,0.679970 C 3.111197,0.734385 3.130176,0.791820 3.168356,0.831635 C 3.199781,0.864404 3.276924,0.931732 3.396555,0.927829 C 3.408798,0.927430 3.540740,0.921921 3.744356,0.809202 C 3.928256,0.707398 4.085474,0.562565 4.244310,0.424889 C 4.504461,0.199394 4.797564,0.049710 5.138693,0.003255 C 5.247063,-0.011503 5.357516,0.026831 5.462015,0.059109 C 5.699918,0.132594 5.941223,0.228346 6.133270,0.386826 C 6.244485,0.478603 6.340164,0.601544 6.385078,0.738564 C 6.423953,0.857163 6.414955,0.926786 6.414936,0.933354 C 6.414208,1.176897 6.411316,1.429185 6.488073,1.660316 C 6.506137,1.714709 6.538407,1.770055 6.530808,1.826863 C 6.523449,1.881884 6.464374,1.880276 6.461459,1.880462 C 6.401740,1.884280 6.337260,1.880515 6.273556,1.889595 C 6.237740,1.894700 6.208290,1.905434 6.184467,1.916271 C 6.166312,1.924530 6.151926,1.932220 6.139999,1.938099 C 6.130655,1.942705 6.122926,1.945917 6.115373,1.949297 C 6.092952,1.959330 6.073845,1.969860 6.054612,1.983583 C 6.046410,1.989435 6.039993,1.995764 6.031893,2.001791 C 6.022343,2.008896 6.012029,2.015158 6.002595,2.022597 C 5.990913,2.031807 5.980048,2.039819 5.970446,2.047657 C 5.961674,2.054819 5.954072,2.061922 5.945527,2.067918 C 5.929358,2.079263 5.913325,2.089318 5.895842,2.102641 C 5.893153,2.104690 5.878676,2.116267 5.853011,2.131085 C 5.838206,2.139633 5.819854,2.149638 5.796875,2.158948 C 5.761956,2.173096 5.717015,2.186413 5.662839,2.196685 C 5.523440,2.223115 5.372067,2.214727 5.239682,2.163690 C 5.161032,2.133369 5.087537,2.087237 5.023643,2.032257 C 5.019203,2.028436 4.984387,1.980404 4.903108,1.904365 C 4.835232,1.840864 4.751433,1.775636 4.658642,1.770231 C 4.602991,1.766989 4.461773,1.823742 4.426285,1.966357 C 4.415254,2.010688 4.422166,2.057762 4.424372,2.103391 C 4.443813,2.505649 4.468870,2.907828 4.475118,3.310507 C 4.476752,3.415828 4.494272,3.489877 4.513137,3.525097 C 4.558248,3.609315 4.640537,3.597465 4.645564,3.597342 C 4.712265,3.595713 4.832148,3.556631 4.989092,3.477198 C 5.091606,3.425314 5.184395,3.356104 5.282843,3.296868 C 5.308755,3.281278 5.333264,3.225260 5.355068,3.148576 C 5.369999,3.096066 5.382737,3.040919 5.391110,2.985554 C 5.371685,2.971855 5.349773,2.953001 5.355838,2.921857 C 5.363485,2.882594 5.382098,2.879665 5.401417,2.874489 C 5.428819,2.911191 5.459004,2.938651 5.489976,2.959381 C 5.519654,2.979244 5.552463,2.993031 5.584668,3.003573 C 5.618089,3.014513 5.648400,3.023208 5.668621,3.028626 C 5.690640,3.034526 5.731768,3.045599 5.789608,3.052965 C 5.929257,3.070749 5.938363,3.059772 6.067989,3.058695 C 6.074309,3.058642 6.087066,3.058403 6.100431,3.058623 C 6.105646,3.058709 6.110499,3.058605 6.115584,3.058605 C 6.122423,3.058605 6.129528,3.062244 6.135833,3.065287 C 6.142712,3.068608 6.154042,3.076944 6.164400,3.091183 C 6.183695,3.117708 6.202409,3.154581 6.174941,3.183846 C 6.154943,3.205153 6.100704,3.219705 6.029226,3.248447 C 5.684702,3.386983 5.465333,3.525148 5.346469,3.600714 C 5.230723,3.674297 5.020649,3.817610 4.682145,3.944742 C 4.593526,3.978025 4.503713,4.008186 4.413332,4.036331 C 4.390028,4.043587 4.364508,4.038955 4.340125,4.037865 C 4.232110,4.033035 4.168469,4.015957 4.132465,3.996318 C 4.093529,3.975079 4.067604,3.934897 4.042297,3.898473 C 4.037871,3.892102 4.029375,3.814015 4.016212,3.667206 C 3.985704,3.326947 3.987913,2.984543 3.972875,2.643250 C 3.972181,2.627500 3.978683,2.586439 3.938943,2.555353 C 3.937165,2.553351 3.882997,2.522049 3.842758,2.553170 C 3.802104,2.584612 3.794146,2.644528 3.779574,2.693814 C 3.751780,2.787827 3.720538,2.903922 3.633532,2.949099 C 3.535552,2.999975 3.441640,2.962749 3.405224,2.942074 C 3.331883,2.900435 3.279093,2.828627 3.207052,2.784779 C 3.205913,2.784086 3.194756,2.772248 3.169458,2.771173 C 3.085016,2.767582 2.990160,2.783570 2.924560,2.836862 C 2.813677,2.926942 2.789165,3.092707 2.759828,3.232524 C 2.739080,3.331410 2.715256,3.430546 2.709371,3.531414 C 2.703550,3.631182 2.701860,3.847513 2.866133,4.053505 C 2.960358,4.171658 3.085517,4.261415 3.196130,4.364387 C 3.218579,4.385286 3.453743,4.583509 3.928842,4.920981 C 4.330692,5.206423 4.745816,5.484598 5.087163,5.840187 C 5.251907,6.011804 5.344453,6.149146 5.398404,6.221476 C 5.465089,6.310876 5.516391,6.384200 5.506518,6.425337 C 5.501266,6.447221 5.474288,6.447867 5.465751,6.447837 C 5.273975,6.447153 3.356196,6.450573 0.154623,6.447837 C 0.098759,6.447795 0.018003,6.430628 0.002796,6.376873 C -0.019217,6.299065 0.092909,6.230016 0.167484,6.198756 C 0.635002,6.002786 0.771199,5.882878 1.144356,5.651926 C 1.298888,5.580476 1.476605,5.575106 1.645374,5.552690 C 1.651270,5.551907 1.657354,5.548727 1.663068,5.550380 L 1.988888,5.820933 C 2.113215,5.919534 2.228862,5.951271 2.288987,5.954062 L 3.960971,5.954062 C 4.022372,5.953991 4.067975,5.928192 4.079301,5.907841 C 4.100100,5.870467 4.047415,5.841094 4.034175,5.831717 C 3.564215,5.498878 3.070704,5.198990 2.611914,4.850915 C 2.403683,4.692935 2.198287,4.524600 2.032672,4.322389 C 1.876983,4.132296 1.840917,4.000047 1.835102,3.988496 C 1.826381,3.971175 1.723070,3.773785 1.778350,3.409502 C 1.812368,3.185338 1.894454,2.953675 2.044165,2.783400 C 2.357842,2.426637 2.662628,2.264812 2.824731,2.186124 C 2.834252,2.181503 2.930960,2.138270 3.118255,2.065094 C 3.271386,2.005265 3.427983,1.954280 3.585424,1.906940 C 3.594381,1.904247 3.683408,1.872091 3.837094,1.782869 C 4.087793,1.637326 4.191149,1.516736 4.200664,1.504810 C 4.204740,1.499700 4.311544,1.275652 4.203838,1.213847 C 4.197938,1.210462 4.191770,1.207530 4.185493,1.204907 "/>
    </g>
</svg>
