<?xml version="1.0" encoding="UTF-8"?>
<!-- Created by Vectric (http://www.vectric.com/) -->
<svg width="5.57277567in" height="10.15179483in" viewBox="0 0 5.57277567 10.15179483" id="svg2" version="1.1" xmlns="http://www.w3.org/2000/svg" xmlns:xlink="http://www.w3.org/1999/xlink" xmlns:inkscape="http://www.inkscape.org/namespaces/inkscape">
    <g inkscape:groupmode="layer" id="85667243-1302-4a85-b3ac-c7bf39b332ec" inkscape:label="Toolpath Previews"/>
    <g inkscape:groupmode="layer" id="714ebd88-a7c6-4b16-b335-882996ef0fc1" inkscape:label="Dog">
        <path style="fill:none;stroke-width:0.010000;stroke-linecap:round;stroke-linejoin:round;stroke-opacity:1;stroke:#000000;" d="M 2.830976,3.889792 C 2.833732,4.029925 2.834639,4.067934 2.829718,4.160976 C 2.798196,4.323002 2.801590,4.350787 2.744558,4.429559 C 2.688459,4.470223 2.623703,4.500285 2.544943,4.508475 C 2.501086,4.519486 2.492524,4.491998 2.469288,4.459942 C 2.411196,4.379801 2.354773,4.303239 2.278531,4.057828 C 2.161038,4.005363 2.085949,3.965663 2.016780,3.909525 C 1.968866,3.857491 1.938032,3.804441 1.916810,3.748973 C 1.876710,3.665773 1.876710,3.633946 1.876710,3.565525 C 1.840782,3.561728 1.563538,3.555272 1.581528,3.432690 C 1.583267,3.420844 1.638645,3.289332 1.839767,3.183027 C 1.886718,3.158211 1.925895,3.058331 2.029433,2.964089 C 2.179049,2.827906 2.487173,2.723113 2.571196,2.723113 C 2.607629,2.692985 2.617041,2.485939 2.624522,2.433568 C 2.632004,2.384937 2.656328,2.250646 2.656328,1.729452 C 2.656328,1.631093 2.658635,1.532748 2.659789,1.434396 C 2.546293,1.405918 2.447197,1.319955 2.377108,1.226253 C 2.339283,1.175684 2.292400,1.161201 2.274995,1.144745 C 2.227771,1.100098 2.179235,0.972663 2.186519,0.801487 C 2.197143,0.551799 2.350996,0.401553 2.425531,0.342982 C 2.450643,0.323248 2.488323,0.311373 2.498754,0.281187 C 2.505668,0.261175 2.510889,0.213308 2.556552,0.181206 C 2.727393,0.061104 3.006366,0.088618 3.182757,0.200411 C 3.193443,0.207184 3.202232,0.219615 3.214837,0.220696 C 3.243432,0.223150 3.541272,0.069463 4.029266,0.181493 C 4.141354,0.195438 4.225834,0.258211 4.398325,0.210629 C 4.588656,0.158126 4.761695,0.044822 4.956424,0.012215 C 5.018948,0.001745 5.137012,-0.010299 5.302199,0.015116 C 5.367569,0.025174 5.571454,0.054436 5.571454,0.218452 C 5.571454,0.269892 5.571454,0.372217 5.571454,0.516261 C 5.571454,0.522798 5.571454,0.609695 5.571454,0.679915 C 5.536440,0.731302 5.474336,0.766318 5.409437,0.769389 C 5.172005,0.778173 5.098620,0.578745 5.093287,0.567434 C 4.901391,0.585194 4.782542,0.676225 4.725951,0.722495 C 4.601065,0.824606 4.488668,0.943709 4.352761,1.030614 C 4.239201,1.103228 4.150261,1.136757 4.110776,1.169238 C 4.051110,1.218322 4.085729,1.392679 4.136812,1.589858 C 4.213942,1.887581 4.337032,2.175683 4.377540,2.480555 C 4.383004,2.521675 4.387213,2.562959 4.391094,2.604258 C 4.564030,2.607565 4.737536,2.614358 4.908914,2.637748 C 5.134571,2.671205 5.303754,2.703576 5.391778,2.716167 C 5.432610,2.731262 5.510164,2.729556 5.549853,2.769245 C 5.562369,2.778755 5.571474,2.812612 5.571474,2.825427 C 5.571474,2.874733 5.571474,2.939569 5.571474,2.985750 C 5.571454,3.173548 5.571454,3.314251 5.571454,3.374729 C 5.457764,3.526134 5.240855,3.443444 5.184110,3.405820 C 5.085396,3.340370 5.073542,3.262541 5.068587,3.258758 C 5.059104,3.251518 4.955711,3.241508 4.730186,3.264447 C 4.578345,3.279892 4.429553,3.320620 4.283392,3.364566 C 4.255758,3.372875 4.221349,3.377048 4.204681,3.400603 C 4.136998,3.496251 4.011739,3.653769 3.756149,3.722254 C 3.600946,3.773228 3.311233,3.823837 2.857861,3.844795 A 0.038138,0.038138 0 0,0 2.830976,3.889792 "/>
    </g>
    <g inkscape:groupmode="layer" id="bcc8d4db-532f-4cad-a0b4-fe6658397f89" inkscape:label="DogDetails">
        <path style="fill:none;stroke-width:0.010000;stroke-linecap:round;stroke-linejoin:round;stroke-opacity:1;stroke:#3366ff;" d="M 2.668101,1.438018 C 2.672988,1.439245 2.677827,1.440687 2.682763,1.441698 L 2.834645,1.465896 C 2.841595,1.466060 2.848462,1.464357 2.855371,1.463587 C 2.915197,1.456915 2.982622,1.453772 3.029623,1.416161 C 3.033022,1.413441 3.082167,1.397364 3.124297,1.326170 C 3.173949,1.242264 3.200244,1.140676 3.198312,1.043198 C 3.196771,0.965485 3.166317,0.928943 3.164903,0.925104 C 3.124978,0.816728 3.007188,0.709414 2.891719,0.711970 C 2.887434,0.712065 2.797872,0.718143 2.797601,0.799577 "/>
        <path style="fill:none;stroke-width:0.010000;stroke-linecap:round;stroke-linejoin:round;stroke-opacity:1;stroke:#3366ff;" d="M 2.710176,3.850286 A 0.365614,0.365614 0 0,1 2.776696,3.989884 C 2.788869,4.079872 2.803169,4.189483 2.791833,4.324433 "/>
    </g>
    <g inkscape:groupmode="layer" id="bb8807bd-faa1-438c-8503-324a360cac30" inkscape:label="Girl">
        <path style="fill:none;stroke-width:0.010000;stroke-linecap:round;stroke-linejoin:round;stroke-opacity:1;stroke:#800080;" d="M 1.010592,6.629617 C 1.066844,6.693046 1.188157,6.872667 1.233191,7.146670 C 1.242568,7.203720 1.268294,7.319667 1.212005,7.461315 C 1.170146,7.566652 1.035160,7.838789 0.736882,7.856933 C 0.720912,7.857905 0.418609,7.894577 0.328851,7.604130 C 0.322646,7.584053 0.319149,7.563047 0.317684,7.542084 C 0.445243,7.555764 0.614359,7.559620 0.693384,7.458557 C 0.795012,7.328587 0.728499,7.175549 0.705331,7.117415 C 0.584929,6.815287 0.330612,6.603613 0.168840,6.321465 C 0.012233,6.048327 -0.017277,5.806927 0.008031,5.690213 C 0.034712,5.567174 0.077607,5.447670 0.125646,5.331296 C 0.219801,5.103204 0.383161,4.853914 0.618153,4.778614 C 0.719614,4.746103 0.830250,4.755383 0.936771,4.753213 C 1.090455,4.750082 1.247919,4.740299 1.393830,4.691941 C 1.399734,4.689984 1.573602,4.596281 1.579088,4.714338 C 1.582094,4.779021 1.566591,4.917831 1.665866,5.056708 C 1.705880,5.112683 1.813285,5.207828 1.845197,5.386395 C 1.915245,5.778364 1.657594,5.966945 1.642562,5.981548 C 1.563383,6.058464 1.459751,6.172649 1.494086,6.277561 C 1.555478,6.465145 1.788687,6.438305 1.798946,6.436675 C 2.543511,6.318379 2.964786,6.375832 3.007780,6.375886 C 3.058088,6.375950 3.214604,6.378744 3.221835,6.246310 C 3.228979,6.143296 3.172828,6.048648 3.095985,5.942499 C 3.049712,5.888920 3.011010,5.828163 2.953186,5.800022 C 2.885213,5.766943 2.857320,5.754598 2.783032,5.740599 C 2.781280,5.742846 2.730823,5.798391 2.698742,5.754786 C 2.693876,5.748173 2.688994,5.728532 2.685936,5.720912 C 2.745819,5.698423 2.781593,5.639676 2.798196,5.577715 C 2.813993,5.518760 2.826056,5.464829 2.829718,5.415689 C 2.837934,5.305435 2.832406,5.209992 2.831136,5.157086 C 2.830039,5.111380 2.844520,5.100109 2.880217,5.098304 C 2.895470,5.097532 2.915738,5.096475 2.938642,5.095599 C 2.965103,5.094588 2.976692,5.170648 3.004263,5.234782 C 3.053161,5.348526 3.110915,5.458507 3.172355,5.565996 C 3.298123,5.740360 3.433330,5.970026 3.521762,6.115737 C 3.605683,6.285728 3.645868,6.417760 3.640743,6.405983 C 3.635317,6.481929 3.627662,6.573954 3.569403,6.622975 C 3.554876,6.635198 3.540980,6.649345 3.523441,6.656613 C 3.493975,6.668823 3.200505,6.739316 2.594926,6.716176 C 2.337705,6.706347 2.202021,6.723830 2.188848,6.726993 C 2.138382,6.739107 2.130279,6.886655 2.137678,6.904898 C 2.155502,6.948842 2.218047,6.957833 2.263543,6.971207 C 2.315893,6.986596 2.476918,7.012293 2.497956,7.154600 C 2.518107,7.290903 2.404205,7.369349 2.371414,7.410044 C 2.353431,7.432362 2.330517,7.456035 2.328642,7.484634 C 2.327927,7.495538 2.302288,7.683779 2.491560,7.769081 C 2.551882,7.796266 2.670493,7.823531 2.842016,7.855269 C 2.946103,7.874528 3.189368,7.913632 3.407755,7.739890 C 3.429429,7.722646 3.633333,7.530309 3.947236,7.107950 C 4.308681,6.621623 4.625148,6.077428 5.103054,5.704919 C 5.240345,5.597906 5.547404,5.471574 5.568737,5.534059 C 5.570715,5.539854 5.570860,5.546141 5.571288,5.552249 C 5.574281,5.594975 5.571813,6.023384 5.571935,6.837164 C 5.571935,8.854031 5.571935,9.915621 5.571935,10.021690 C 5.575458,10.049986 5.561650,10.159268 5.487410,10.151394 C 5.234607,10.140347 5.298476,9.902470 5.165124,9.660667 C 5.023110,9.403158 4.889009,9.244301 4.851704,9.139179 C 4.809636,9.020635 4.803843,8.925014 4.789629,8.800177 C 4.788428,8.767066 4.805687,8.729149 4.814080,8.718981 C 4.848774,8.678104 4.918809,8.599885 5.014004,8.478112 C 5.070722,8.405559 5.119270,8.317415 5.126036,8.225572 L 5.126036,6.818558 C 5.124003,6.778812 5.067241,6.702941 4.932169,6.739133 C 4.912498,6.744404 4.867966,6.822596 4.856934,6.838721 C 4.415087,7.484571 4.164029,7.853711 3.977144,8.084312 C 3.765480,8.345486 3.484765,8.623647 3.150849,8.662552 C 2.915439,8.689980 2.658647,8.637207 2.455180,8.515671 C 2.353272,8.454799 2.179543,8.311557 1.999868,8.055330 C 1.847329,7.837801 1.749168,7.584169 1.663974,7.332516 C 1.628608,7.228052 1.580541,7.022715 1.410140,6.787121 C 1.346390,6.698980 1.297488,6.639451 1.262967,6.616850 C 1.220648,6.589144 1.167825,6.576909 1.117310,6.574289 C 1.113309,6.574081 1.043943,6.561179 1.010592,6.629617 "/>
        <path style="fill:none;stroke-width:0.010000;stroke-linecap:round;stroke-linejoin:round;stroke-opacity:1;stroke:#800080;" d="M 2.417438,4.383992 L 2.622282,4.492416 "/>
        <path style="fill:none;stroke-width:0.010000;stroke-linecap:round;stroke-linejoin:round;stroke-opacity:1;stroke:#800080;" d="M 2.116182,3.735016 C 2.116559,3.815016 2.196331,3.828583 2.200515,3.829060 C 2.279957,3.838107 2.302851,3.760589 2.303821,3.756494 C 2.322246,3.678718 2.248064,3.646761 2.244116,3.645308 C 2.169094,3.617695 2.128492,3.687579 2.126579,3.691327 C 2.119773,3.704660 2.116112,3.720047 2.116182,3.735016 "/>
        <path style="fill:none;stroke-width:0.010000;stroke-linecap:round;stroke-linejoin:round;stroke-opacity:1;stroke:#800080;" d="M 0.985615,4.956334 L 0.975486,4.958763 L 0.965889,4.961909 L 0.956848,4.965659 L 0.948369,4.969906 L 0.933261,4.979393 L 0.920685,4.989493 L 0.910818,4.999299 L 0.903827,5.007913 L 0.898423,5.016208 L 0.893666,5.024974 L 0.889575,5.034135 L 0.886176,5.043607 L 0.883497,5.053306 L 0.881563,5.063151 L 0.880401,5.073056 L 0.880038,5.082942 L 0.880676,5.095116 L 0.882397,5.106640 L 0.885084,5.117510 L 0.888620,5.127723 L 0.892887,5.137278 L 0.897769,5.146173 L 0.903148,5.154409 L 0.908917,5.161998 L 0.921100,5.175161 L 0.933425,5.185704 L 0.944957,5.193620 L 0.954776,5.198908 L 0.966056,5.203451 L 0.977193,5.206743 L 0.988143,5.208893 L 0.998857,5.210003 L 1.009283,5.210179 L 1.019371,5.209526 L 1.029073,5.208148 L 1.038354,5.206148 L 1.055370,5.200721 L 1.070083,5.194065 L 1.082095,5.187017 L 1.091021,5.180403 L 1.099934,5.172127 L 1.107655,5.163448 L 1.114261,5.154451 L 1.119826,5.145226 L 1.124423,5.135864 L 1.128125,5.126454 L 1.131008,5.117086 L 1.133147,5.107833 L 1.135477,5.090120 L 1.135714,5.073969 L 1.134446,5.060096 L 1.132258,5.049202 L 1.128558,5.037613 L 1.123986,5.026932 L 1.118652,5.017124 L 1.112668,5.008162 L 1.106148,5.000019 L 1.099205,4.992664 L 1.091950,4.986070 L 1.084484,4.980198 L 1.069439,4.970555 L 1.054917,4.963471 L 1.041818,4.958719 L 1.031025,4.956066 L 1.018980,4.954489 L 1.007385,4.954083 L 0.996255,4.954736 L 0.985615,4.956334 "/>
    </g>
    <g inkscape:groupmode="layer" id="abd5be99-5f14-4587-96b6-19cce9bad0e3" inkscape:label="GirlDetails">
        <path style="fill:none;stroke-width:0.010000;stroke-linecap:round;stroke-linejoin:round;stroke-opacity:1;stroke:#3366ff;" d="M 1.445326,5.591464 C 1.588184,5.581315 1.703970,5.430549 1.759737,5.298634 C 1.770616,5.272901 1.780098,5.246554 1.788476,5.219902 "/>
    </g>
</svg>
