<?xml version="1.0" encoding="UTF-8"?>
<!-- Created by Vectric (http://www.vectric.com/) -->
<svg width="10.42569625in" height="6.39780709in" viewBox="0 0 10.42569625 6.39780709" id="svg2" version="1.1" xmlns="http://www.w3.org/2000/svg" xmlns:xlink="http://www.w3.org/1999/xlink" xmlns:inkscape="http://www.inkscape.org/namespaces/inkscape">
    <g inkscape:groupmode="layer" id="85667243-1302-4a85-b3ac-c7bf39b332ec" inkscape:label="Toolpath Previews"/>
    <g inkscape:groupmode="layer" id="04ff25e4-7a90-4b20-be2a-180e1b347afe" inkscape:label="Female">
        <path style="fill:none;stroke-width:0.010000;stroke-linecap:round;stroke-linejoin:round;stroke-opacity:1;stroke:#33cccc;" d="M 2.813938,1.640555 C 2.833818,1.844504 2.877325,2.058864 2.991294,2.229163 "/>
        <path style="fill:none;stroke-width:0.010000;stroke-linecap:round;stroke-linejoin:round;stroke-opacity:1;stroke:#33cccc;" d="M 3.345137,1.447612 A 0.128242,0.128242 0 0,0 3.216894,1.575854 A 0.128242,0.128242 0 0,0 3.345137,1.704097 A 0.128242,0.128242 0 0,0 3.473379,1.575854 A 0.128242,0.128242 0 0,0 3.345137,1.447612 "/>
        <path style="fill:none;stroke-width:0.010000;stroke-linecap:round;stroke-linejoin:round;stroke-opacity:1;stroke:#33cccc;" d="M 0.382255,6.386295 C 0.379638,6.385338 0.334227,6.373390 0.330604,6.320575 C 0.330504,6.319116 0.326253,6.303185 0.335469,6.276968 C 0.387548,6.128813 0.478555,5.995887 0.526772,5.846431 C 0.539731,5.806263 0.547527,5.778073 0.550024,5.762260 C 0.553824,5.738192 0.571237,5.494990 0.622362,5.034866 C 0.673210,4.577231 0.711408,4.261942 0.727676,4.088048 C 0.736269,3.996203 0.761362,3.905591 0.761179,3.813344 C 0.761044,3.744922 0.749952,3.676332 0.733190,3.609994 C 0.730481,3.599272 0.656442,3.515363 0.535786,3.343325 C 0.346036,3.072770 0.177447,2.785135 0.041629,2.483873 C 0.013432,2.421327 -0.042227,2.262526 0.054807,2.109883 C 0.138677,1.977948 0.292525,1.897333 0.437427,1.838645 C 0.494323,1.815601 0.552466,1.795729 0.610507,1.775744 C 0.919807,1.696507 1.229107,1.617271 1.538407,1.538034 C 1.589928,1.521743 1.644283,1.507610 1.688262,1.476215 C 1.729655,1.446667 1.776861,1.392143 1.763009,1.343208 C 1.743229,1.273335 1.635265,1.263964 1.562994,1.256860 C 1.310994,1.232091 1.056808,1.240058 0.803960,1.226449 C 0.754998,1.223814 0.696127,1.210835 0.667783,1.170824 C 0.666653,1.169228 0.644954,1.137609 0.672176,1.112312 C 0.697987,1.088327 0.738847,1.084743 0.774078,1.084211 C 0.817746,1.082964 0.861414,1.081716 0.905083,1.080469 C 0.993642,1.072118 1.056992,1.048683 1.080353,1.024339 C 1.081650,1.022987 1.101336,0.919360 1.079831,0.890994 C 1.065289,0.871814 1.021405,0.848175 0.958326,0.841259 C 0.847666,0.829126 0.735932,0.824656 0.626288,0.805396 C 0.499081,0.783052 0.437613,0.746345 0.432512,0.741852 C 0.389136,0.703640 0.420471,0.633536 0.439388,0.622450 C 0.454791,0.613423 0.489413,0.612233 0.536430,0.614370 C 0.569371,0.615867 0.605696,0.620032 0.634878,0.604678 C 0.659663,0.591639 0.678488,0.564821 0.680737,0.554439 C 0.694687,0.534212 0.693502,0.444898 0.660711,0.417406 C 0.639799,0.399874 0.593672,0.378506 0.525993,0.354103 C 0.413787,0.313643 0.310484,0.251338 0.206733,0.192490 C 0.164503,0.168537 0.124087,0.121534 0.123467,0.072987 C 0.123428,0.069950 0.123528,0.012562 0.180206,0.001681 C 0.219874,-0.005934 0.260468,0.014029 0.298687,0.027100 C 0.956009,0.274796 1.673742,0.530144 2.381943,0.622880 C 2.705095,0.665195 2.930459,0.689485 3.048061,0.727591 C 3.053593,0.729383 3.108653,0.750147 3.203345,0.807051 C 3.327128,0.881436 3.442094,0.985383 3.510544,1.112543 C 3.584633,1.250181 3.588447,1.365659 3.595895,1.424480 C 3.645586,1.816935 3.671234,2.023744 3.670979,2.044563 C 3.670932,2.048369 3.675846,2.111876 3.609581,2.140831 C 3.572044,2.157233 3.497137,2.167862 3.390359,2.184022 C 3.065908,2.233127 2.891079,2.226384 2.873860,2.225046 C 2.765225,2.216607 2.664285,2.149392 2.581837,2.078152 C 2.480997,1.991021 2.395358,1.884651 2.326291,1.770675 C 2.288958,1.709066 2.218938,1.641537 2.147342,1.649505 C 2.066575,1.658493 2.044824,1.749092 2.040913,1.779668 C 2.007442,2.041279 2.049519,2.226634 2.069924,2.324572 C 2.107535,2.505097 2.153917,2.685318 2.166424,2.869294 C 2.170065,2.922861 2.174977,2.992979 2.220839,3.020895 C 2.244742,3.035445 2.275386,3.037980 2.303328,3.036478 C 2.514771,3.025146 2.726214,3.013814 2.937658,3.002482 C 3.007428,2.983632 3.054182,2.959183 3.073283,2.939519 C 3.099975,2.912039 3.096179,2.877120 3.093406,2.862856 C 3.092833,2.859907 3.070108,2.836163 3.056051,2.780850 C 3.043800,2.732641 3.052419,2.692527 3.064825,2.678313 C 3.075927,2.665593 3.117649,2.632655 3.154543,2.657553 C 3.176602,2.672439 3.183238,2.702698 3.193409,2.727290 C 3.221170,2.794410 3.256546,2.862100 3.309778,2.911518 C 3.343633,2.942948 3.383623,2.968100 3.425216,2.988199 C 3.429558,2.990296 3.474212,3.009659 3.562996,3.032219 C 3.657379,3.056202 3.755277,3.063296 3.851702,3.076912 C 3.869282,3.138274 3.844379,3.229809 3.786634,3.257011 C 3.751506,3.273559 3.720738,3.261128 3.706304,3.258195 C 3.578813,3.232284 3.448725,3.205786 3.318771,3.211885 C 3.222089,3.216422 3.174606,3.244234 3.169755,3.245787 C 2.850075,3.348126 2.613737,3.361323 2.486880,3.372175 C 2.424405,3.377520 2.310356,3.385244 2.147085,3.411130 C 2.096290,3.419184 2.036216,3.418122 1.994541,3.387984 C 1.937298,3.346589 1.914817,3.267989 1.897794,3.199427 C 1.889767,3.167094 1.883143,3.134412 1.877052,3.101659 C 1.834848,2.873966 1.792645,2.646272 1.750442,2.418579 C 1.740115,2.363042 1.730983,2.303491 1.698517,2.257263 C 1.696277,2.254074 1.666109,2.204932 1.592168,2.208723 C 1.554911,2.210633 1.518329,2.222486 1.483742,2.236469 C 1.480019,2.237974 1.471887,2.280172 1.432317,2.345397 C 1.417582,2.369684 1.373462,2.439096 1.299784,2.425671 C 1.246655,2.415990 1.201162,2.378477 1.160470,2.342975 C 1.110556,2.299428 1.087829,2.272399 1.084683,2.270898 C 1.081335,2.269301 1.044126,2.265604 0.973717,2.262822 C 0.872822,2.258834 0.800807,2.270301 0.766167,2.286640 C 0.751457,2.293579 0.716303,2.314781 0.712812,2.357518 C 0.708991,2.404291 0.732636,2.450677 0.755431,2.491697 C 0.819818,2.607563 0.970126,2.797627 1.157698,3.092482 C 1.288299,3.297780 1.364757,3.452948 1.380570,3.543876 C 1.399278,3.651449 1.384749,3.763104 1.369787,3.871262 C 1.349871,4.015241 1.324222,4.158748 1.314180,4.303751 C 1.272205,4.697219 1.230230,5.090688 1.188255,5.484157 C 1.192382,5.547220 1.211827,5.619521 1.260976,5.659251 C 1.296072,5.687621 1.330324,5.691812 1.347058,5.695418 C 1.365095,5.699305 1.543252,5.748760 1.873824,5.865486 C 2.063337,5.932404 2.252629,6.000844 2.445996,6.055637 C 2.475129,6.063892 2.553304,6.083288 2.573607,6.160492 C 2.584607,6.218909 2.595606,6.277326 2.606605,6.335742 C 2.606610,6.337706 2.610691,6.378258 2.573961,6.384768 C 2.566953,6.386010 2.559781,6.386279 2.552664,6.386295 C 1.829194,6.386295 1.105724,6.386295 0.382255,6.386295 "/>
    </g>
    <g inkscape:groupmode="layer" id="efe90a30-7932-4d39-84b7-0213de3b9f57" inkscape:label="Dog">
        <path style="fill:none;stroke-width:0.010000;stroke-linecap:round;stroke-linejoin:round;stroke-opacity:1;stroke:#ff0000;" d="M 4.236494,2.859670 C 4.408320,2.842947 4.585323,2.809677 4.737367,2.727906 "/>
        <path style="fill:none;stroke-width:0.010000;stroke-linecap:round;stroke-linejoin:round;stroke-opacity:1;stroke:#ff0000;" d="M 5.328266,1.896550 C 5.463082,1.925368 5.577173,1.986709 5.693077,2.077047 C 5.800242,2.160573 5.834581,2.220973 5.837470,2.227318 C 5.839154,2.231016 5.840846,2.235051 5.840576,2.239105 C 5.830623,2.356455 5.825812,2.418269 5.824861,2.424394 C 5.822324,2.440742 5.817532,2.456659 5.813867,2.472791 C 5.795715,2.552195 5.754033,2.597389 5.734976,2.621708 C 5.657398,2.720710 5.568871,2.811550 5.474551,2.894758 C 5.368388,2.988415 5.274255,3.043169 5.220611,3.040731 C 5.196899,3.039654 5.149498,3.027237 5.104195,2.984065 C 5.022382,2.906098 5.021741,2.767144 5.025829,2.654204 C 5.031920,2.485898 5.065369,2.315284 5.130231,2.159859 C 5.176966,2.047873 5.242450,1.987545 5.274027,1.954056 C 5.291733,1.935279 5.310695,1.915453 5.328266,1.896550 "/>
        <path style="fill:none;stroke-width:0.010000;stroke-linecap:round;stroke-linejoin:round;stroke-opacity:1;stroke:#ff0000;" d="M 5.811435,6.382406 C 5.759451,6.366452 5.713767,6.326419 5.683408,6.281304 C 5.624307,6.193478 5.639979,6.051435 5.699877,5.964150 C 5.715067,5.942014 5.733247,5.921815 5.752903,5.903529 C 5.784115,5.874639 5.801433,5.860021 5.802185,5.857913 L 5.777556,5.680735 C 5.762781,5.574414 5.741386,5.379896 5.684689,5.102638 C 5.653775,4.951466 5.629042,4.847762 5.611837,4.791820 C 5.595935,4.740328 5.588155,4.712969 5.586729,4.710517 C 5.584498,4.706681 5.553318,4.674934 5.495608,4.613473 C 5.281340,4.384335 5.201750,4.169236 5.160477,4.057629 C 5.104092,3.905163 5.063680,3.747141 5.022332,3.589929 C 4.971828,3.397910 4.929939,3.301296 4.926279,3.291508 C 4.874321,3.152577 4.846304,3.076670 4.838892,3.074219 C 4.809358,3.064455 4.752235,3.060846 4.670840,3.050846 C 4.535163,3.034176 4.386424,3.001015 4.286550,2.907680 C 4.172854,2.801427 4.128555,2.631001 4.106473,2.476959 C 4.098987,2.424739 4.084756,2.372416 4.088100,2.319769 C 4.091930,2.259479 4.133461,2.238988 4.136221,2.237410 C 4.167602,2.219467 4.233615,2.205038 4.327908,2.191210 C 4.511359,2.164306 4.607592,2.143160 4.615754,2.137811 C 4.661990,2.107514 4.703292,1.996870 4.831003,1.926669 C 4.970965,1.849733 5.152554,1.858980 5.308870,1.891746 C 5.415355,1.914067 5.501138,1.953782 5.572190,1.994629 C 5.671446,2.051690 5.740072,2.113483 5.779601,2.155449 C 5.870042,2.251469 5.950546,2.356463 6.032221,2.460042 C 6.140119,2.596876 6.255598,2.732551 6.396711,2.834789 C 6.558182,2.951775 6.769153,2.987970 6.966383,3.017273 C 7.458560,3.090396 7.959453,3.103154 8.448540,3.194692 C 8.743972,3.249985 9.056577,3.337264 9.284077,3.533686 C 9.352119,3.592432 9.424584,3.646910 9.485457,3.713055 C 9.600086,3.837612 9.684311,3.988229 9.764831,4.137127 C 9.822704,4.244145 9.887714,4.358845 9.990428,4.424052 C 10.047232,4.460113 10.168593,4.507814 10.287719,4.639243 C 10.463514,4.833193 10.422637,5.017747 10.419191,5.031086 C 10.418055,5.035483 10.406167,5.106606 10.322289,5.126864 C 10.298493,5.132610 10.253098,5.128454 10.188835,5.122514 C 9.967185,5.102026 9.814900,5.071193 9.735108,5.043586 C 9.605310,4.998678 9.546648,4.951680 9.540522,4.947843 C 9.519839,4.934886 9.507346,4.928056 9.506788,4.929213 C 9.504693,4.933556 9.516238,4.982503 9.554263,5.065850 C 9.568182,5.096358 9.603891,5.146898 9.660967,5.214411 C 9.741874,5.310113 9.828273,5.409352 9.868063,5.528186 C 9.901092,5.626829 9.896034,5.684537 9.896191,5.690010 C 9.898370,5.766083 9.897662,5.842213 9.897663,5.918317 L 9.897663,6.208650 C 9.897278,6.210205 9.889441,6.224233 9.875239,6.251149 C 9.850131,6.298561 9.811836,6.341593 9.765831,6.369195 C 9.728401,6.391652 9.694898,6.390395 9.678404,6.391834 C 9.588442,6.399683 9.497568,6.399508 9.407495,6.393050 C 9.384147,6.391376 9.334219,6.393480 9.285385,6.355750 C 9.251601,6.329648 9.181744,6.259968 9.181338,6.147413 C 9.181018,6.058779 9.221726,5.963037 9.287495,5.903620 L 9.328362,5.866884 L 9.300980,5.826239 C 9.266889,5.775871 9.190262,5.690392 9.056444,5.602056 C 9.022328,5.579534 8.955230,5.546240 8.867539,5.483587 C 8.637466,5.319205 8.447321,5.100515 8.276065,4.875511 C 8.241137,4.829620 8.205942,4.783928 8.170216,4.738655 L 8.109919,4.662255 L 8.078698,4.673277 C 8.027990,4.691290 7.942132,4.739222 7.813960,4.800040 C 7.664182,4.871109 7.506080,4.932225 7.342270,4.957734 C 7.306111,4.963365 7.239568,4.975026 7.143149,4.971672 C 6.906410,4.963437 6.670573,4.936926 6.433881,4.927468 C 6.429066,4.927276 6.424248,4.927082 6.419430,4.927072 L 6.367774,4.927045 L 6.365498,5.563702 C 6.364447,5.857985 6.366312,6.061143 6.359061,6.172532 C 6.358204,6.185685 6.357799,6.211019 6.343645,6.242755 C 6.319710,6.296416 6.294809,6.381105 6.236065,6.382392 C 6.235571,6.382403 6.235077,6.382407 6.234583,6.382408 C 6.157409,6.382408 6.080236,6.382408 6.003063,6.382408 C 5.881698,6.382478 5.817562,6.384212 5.811435,6.382406 "/>
        <path style="fill:none;stroke-width:0.010000;stroke-linecap:round;stroke-linejoin:round;stroke-opacity:1;stroke:#ff0000;" d="M 4.846360,2.122204 A 0.126000,0.126000 0 0,0 4.720360,2.248204 A 0.126000,0.126000 0 0,0 4.846360,2.374204 A 0.126000,0.126000 0 0,0 4.972360,2.248204 A 0.126000,0.126000 0 0,0 4.846360,2.122204 "/>
    </g>
</svg>
